<svg xmlns:xlink="http://www.w3.org/1999/xlink" width="2156" height="1300" viewBox="0 0 2156 1300" fill="none" xmlns="http://www.w3.org/2000/svg">
<g id="page404_bg" clip-path="url(#clip0_411_4452)" fill="none">
<rect width="2156" height="1300" fill="black"></rect>
<rect id="Rectangle 12" x="-45" y="-35" width="2246" height="1344" fill="url(&quot;#paint0_linear_411_4452&quot;)"></rect>
<g id="shadows" fill="none">
<g id="Ellipse 555" filter="url(#filter0_f_411_4452)" fill="none">
<ellipse cx="1421.88" cy="176.176" rx="370" ry="123.624" transform="rotate(-37.4623 1421.88 176.176)" fill="#223D9C" fill-opacity="0.29"></ellipse>
</g>
<g id="Ellipse 694" filter="url(#filter1_f_411_4452)" fill="none">
<ellipse cx="1013.88" cy="1152.18" rx="370" ry="123.624" transform="rotate(-37.4623 1013.88 1152.18)" fill="black" fill-opacity="0.29"></ellipse>
</g>
<g id="Ellipse 606" filter="url(#filter2_f_411_4452)" fill="none">
<ellipse cx="526.882" cy="206.176" rx="370" ry="123.624" transform="rotate(-37.4623 526.882 206.176)" fill="#223D9C" fill-opacity="0.29"></ellipse>
</g>
</g>
<g id="page404_bg_stars" fill="none">
<path id="Star 15" d="M606 394L607.38 400.62L614 402L607.38 403.38L606 410L604.62 403.38L598 402L604.62 400.62L606 394Z" fill="#FFFFFF"></path>
<path id="Star 23" d="M1733 472L1734.38 478.62L1741 480L1734.38 481.38L1733 488L1731.62 481.38L1725 480L1731.62 478.62L1733 472Z" fill="#FFFFFF"></path>
<path id="Star 16" d="M1583 495L1584.38 501.62L1591 503L1584.38 504.38L1583 511L1581.62 504.38L1575 503L1581.62 501.62L1583 495Z" fill="#FFFFFF"></path>
<path id="Star 26" d="M1437 923L1438.38 929.62L1445 931L1438.38 932.38L1437 939L1435.62 932.38L1429 931L1435.62 929.62L1437 923Z" fill="#FFFFFF"></path>
<path id="Star 17" d="M582 669L583.38 675.62L590 677L583.38 678.38L582 685L580.62 678.38L574 677L580.62 675.62L582 669Z" fill="#FFFFFF"></path>
<path id="Star 18" d="M413 510L413.863 514.137L418 515L413.863 515.863L413 520L412.137 515.863L408 515L412.137 514.137L413 510Z" fill="#FFFFFF"></path>
<path id="Star 27" d="M668 893L668.863 897.137L673 898L668.863 898.863L668 903L667.137 898.863L663 898L667.137 897.137L668 893Z" fill="#FFFFFF"></path>
<path id="Star 28" d="M1262 981L1262.86 985.137L1267 986L1262.86 986.863L1262 991L1261.14 986.863L1257 986L1261.14 985.137L1262 981Z" fill="#FFFFFF"></path>
<path id="Star 29" d="M1720 939L1720.86 943.137L1725 944L1720.86 944.863L1720 949L1719.14 944.863L1715 944L1719.14 943.137L1720 939Z" fill="#FFFFFF"></path>
<path id="Star 19" d="M1540 344L1540.86 348.137L1545 349L1540.86 349.863L1540 354L1539.14 349.863L1535 349L1539.14 348.137L1540 344Z" fill="#FFFFFF"></path>
<path id="Star 24" d="M1527 610L1527.86 614.137L1532 615L1527.86 615.863L1527 620L1526.14 615.863L1522 615L1526.14 614.137L1527 610Z" fill="#FFFFFF"></path>
<path id="Star 25" d="M1641 298L1641.86 302.137L1646 303L1641.86 303.863L1641 308L1640.14 303.863L1636 303L1640.14 302.137L1641 298Z" fill="#FFFFFF"></path>
<path id="Star 30" d="M1490 122L1490.86 126.137L1495 127L1490.86 127.863L1490 132L1489.14 127.863L1485 127L1489.14 126.137L1490 122Z" fill="#FFFFFF"></path>
<path id="Star 20" d="M1699 588L1699.86 592.137L1704 593L1699.86 593.863L1699 598L1698.14 593.863L1694 593L1698.14 592.137L1699 588Z" fill="#FFFFFF"></path>
<path id="Star 21" d="M1042 288L1042.86 292.137L1047 293L1042.86 293.863L1042 298L1041.14 293.863L1037 293L1041.14 292.137L1042 288Z" fill="#FFFFFF"></path>
<path id="Star 22" d="M413 320L413.863 324.137L418 325L413.863 325.863L413 330L412.137 325.863L408 325L412.137 324.137L413 320Z" fill="#FFFFFF"></path>
</g>
<g id="stars_circle" fill="none">
<circle id="Ellipse 527" cx="528" cy="512" r="1" fill="#FFFFFF"></circle>
<circle id="Ellipse 621" cx="2038" cy="512" r="1" fill="#FFFFFF"></circle>
<circle id="Ellipse 555_2" cx="651" cy="873" r="1" fill="#FFFFFF"></circle>
<circle id="Ellipse 528" cx="776" cy="462" r="1" fill="#FFFFFF"></circle>
<circle id="Ellipse 529" cx="337" cy="446" r="1" fill="#FFFFFF"></circle>
<circle id="Ellipse 622" cx="1847" cy="446" r="1" fill="#FFFFFF"></circle>
<circle id="Ellipse 530" cx="339" cy="686" r="1" fill="#FFFFFF"></circle>
<circle id="Ellipse 623" cx="1849" cy="686" r="1" fill="#FFFFFF"></circle>
<circle id="Ellipse 531" cx="717" cy="325" r="1" fill="#FFFFFF"></circle>
<circle id="Ellipse 661" cx="141" cy="418" r="1" fill="#FFFFFF"></circle>
<circle id="Ellipse 653" cx="104" cy="254" r="1" fill="#FFFFFF"></circle>
<circle id="Ellipse 607" cx="906" cy="121" r="1" fill="#FFFFFF"></circle>
<circle id="Ellipse 654" cx="293" cy="50" r="1" fill="#FFFFFF"></circle>
<circle id="Ellipse 532" cx="581" cy="297" r="1" fill="#FFFFFF"></circle>
<circle id="Ellipse 624" cx="1969" cy="233" r="1" fill="#FFFFFF"></circle>
<circle id="Ellipse 533" cx="613" cy="537" r="1" fill="#FFFFFF"></circle>
<circle id="Ellipse 625" cx="2123" cy="537" r="1" fill="#FFFFFF"></circle>
<circle id="Ellipse 534" cx="899" cy="308" r="1" fill="#FFFFFF"></circle>
<circle id="Ellipse 655" cx="286" cy="237" r="1" fill="#FFFFFF"></circle>
<circle id="Ellipse 535" cx="982" cy="495" r="1" fill="#FFFFFF"></circle>
<circle id="Ellipse 536" cx="1200" cy="309" r="1" fill="#FFFFFF"></circle>
<circle id="Ellipse 537" cx="1266" cy="479" r="1" fill="#FFFFFF"></circle>
<circle id="Ellipse 538" cx="1375" cy="323" r="1" fill="#FFFFFF"></circle>
<circle id="Ellipse 546" cx="1635" cy="435" r="1" fill="#FFFFFF"></circle>
<circle id="Ellipse 642" cx="192" cy="600" r="1" fill="#FFFFFF"></circle>
<circle id="Ellipse 556" cx="1446" cy="789" r="1" fill="#FFFFFF"></circle>
<circle id="Ellipse 557" cx="1590" cy="938" r="1" fill="#FFFFFF"></circle>
<circle id="Ellipse 558" cx="1345" cy="1010" r="1" fill="#FFFFFF"></circle>
<circle id="Ellipse 559" cx="1237" cy="924" r="1" fill="#FFFFFF"></circle>
<circle id="Ellipse 560" cx="1037" cy="1009" r="1" fill="#FFFFFF"></circle>
<circle id="Ellipse 561" cx="1815" cy="791" r="1" fill="#FFFFFF"></circle>
<circle id="Ellipse 562" cx="745" cy="985" r="1" fill="#FFFFFF"></circle>
<circle id="Ellipse 563" cx="418" cy="741" r="1" fill="#FFFFFF"></circle>
<circle id="Ellipse 626" cx="1926" cy="786" r="1" fill="#FFFFFF"></circle>
<circle id="Ellipse 547" cx="1633" cy="563" r="1" fill="#FFFFFF"></circle>
<circle id="Ellipse 643" cx="190" cy="728" r="1" fill="#FFFFFF"></circle>
<circle id="Ellipse 608" cx="1108" cy="141" r="1" fill="#FFFFFF"></circle>
<circle id="Ellipse 609" cx="1491" cy="224" r="1" fill="#FFFFFF"></circle>
<circle id="Ellipse 644" cx="48" cy="389" r="1" fill="#FFFFFF"></circle>
<circle id="Ellipse 548" cx="1345" cy="623" r="1" fill="#FFFFFF"></circle>
<circle id="Ellipse 549" cx="1275" cy="735" r="1" fill="#FFFFFF"></circle>
<circle id="Ellipse 550" cx="692" cy="403" r="1" fill="#FFFFFF"></circle>
<circle id="Ellipse 551" cx="494" cy="394" r="1" fill="#FFFFFF"></circle>
<circle id="Ellipse 627" cx="1882" cy="330" r="1" fill="#FFFFFF"></circle>
<circle id="Ellipse 611" cx="1742" cy="144" r="1" fill="#FFFFFF"></circle>
<circle id="Ellipse 612" cx="963" cy="207" r="1" fill="#FFFFFF"></circle>
<circle id="Ellipse 656" cx="350" cy="136" r="1" fill="#FFFFFF"></circle>
<circle id="Ellipse 613" cx="797" cy="263" r="1" fill="#FFFFFF"></circle>
<circle id="Ellipse 662" cx="221" cy="356" r="1" fill="#FFFFFF"></circle>
<circle id="Ellipse 657" cx="184" cy="192" r="1" fill="#FFFFFF"></circle>
<circle id="Ellipse 614" cx="643" cy="177" r="1" fill="#FFFFFF"></circle>
<circle id="Ellipse 658" cx="30" cy="106" r="1" fill="#FFFFFF"></circle>
<circle id="Ellipse 606_2" cx="447" cy="142" r="1" fill="#FFFFFF"></circle>
<circle id="Ellipse 628" cx="1957" cy="142" r="1" fill="#FFFFFF"></circle>
<circle id="Ellipse 539" cx="1728" cy="343" r="1" fill="#FFFFFF"></circle>
<circle id="Ellipse 645" cx="285" cy="508" r="1" fill="#FFFFFF"></circle>
<circle id="Ellipse 540" cx="1418" cy="460" r="1" fill="#FFFFFF"></circle>
<circle id="Ellipse 552" cx="1091" cy="624" r="1" fill="#FFFFFF"></circle>
<circle id="Ellipse 553" cx="1067" cy="722" r="1" fill="#FFFFFF"></circle>
<circle id="Ellipse 554" cx="880" cy="629" r="1" fill="#FFFFFF"></circle>
<circle id="Ellipse 541" cx="1582" cy="506" r="1" fill="#FFFFFF"></circle>
<circle id="Ellipse 646" cx="139" cy="671" r="1" fill="#FFFFFF"></circle>
<circle id="Ellipse 542" cx="1753" cy="560" r="1" fill="#FFFFFF"></circle>
<circle id="Ellipse 564" cx="1734" cy="645" r="1" fill="#FFFFFF"></circle>
<circle id="Ellipse 647" cx="291" cy="810" r="1" fill="#FFFFFF"></circle>
<circle id="Ellipse 565" cx="1813.5" cy="598.5" r="0.5" fill="#FFFFFF"></circle>
<circle id="Ellipse 566" cx="1522.5" cy="713.5" r="0.5" fill="#FFFFFF"></circle>
<circle id="Ellipse 567" cx="1625.5" cy="731.5" r="0.5" fill="#FFFFFF"></circle>
<circle id="Ellipse 568" cx="1647.5" cy="865.5" r="0.5" fill="#FFFFFF"></circle>
<circle id="Ellipse 569" cx="1454.5" cy="854.5" r="0.5" fill="#FFFFFF"></circle>
<circle id="Ellipse 570" cx="1766.5" cy="388.5" r="0.5" fill="#FFFFFF"></circle>
<circle id="Ellipse 610" cx="1276.5" cy="199.5" r="0.5" fill="#FFFFFF"></circle>
<circle id="Ellipse 571" cx="1501.5" cy="981.5" r="0.5" fill="#FFFFFF"></circle>
<circle id="Ellipse 572" cx="1176.5" cy="1023.5" r="0.5" fill="#FFFFFF"></circle>
<circle id="Ellipse 573" cx="944.5" cy="948.5" r="0.5" fill="#FFFFFF"></circle>
<circle id="Ellipse 574" cx="1335.5" cy="898.5" r="0.5" fill="#FFFFFF"></circle>
<circle id="Ellipse 575" cx="1659.5" cy="1000.5" r="0.5" fill="#FFFFFF"></circle>
<circle id="Ellipse 576" cx="743.5" cy="828.5" r="0.5" fill="#FFFFFF"></circle>
<circle id="Ellipse 577" cx="742.5" cy="903.5" r="0.5" fill="#FFFFFF"></circle>
<circle id="Ellipse 578" cx="619.5" cy="972.5" r="0.5" fill="#FFFFFF"></circle>
<circle id="Ellipse 629" cx="2127.5" cy="1017.5" r="0.5" fill="#FFFFFF"></circle>
<circle id="Ellipse 579" cx="574.5" cy="899.5" r="0.5" fill="#FFFFFF"></circle>
<circle id="Ellipse 630" cx="2082.5" cy="944.5" r="0.5" fill="#FFFFFF"></circle>
<circle id="Ellipse 580" cx="423.5" cy="855.5" r="0.5" fill="#FFFFFF"></circle>
<circle id="Ellipse 631" cx="1931.5" cy="900.5" r="0.5" fill="#FFFFFF"></circle>
<circle id="Ellipse 581" cx="498.5" cy="722.5" r="0.5" fill="#FFFFFF"></circle>
<circle id="Ellipse 632" cx="2006.5" cy="767.5" r="0.5" fill="#FFFFFF"></circle>
<circle id="Ellipse 615" cx="777.5" cy="169.5" r="0.5" fill="#FFFFFF"></circle>
<circle id="Ellipse 659" cx="164.5" cy="98.5" r="0.5" fill="#FFFFFF"></circle>
<circle id="Ellipse 616" cx="1343.5" cy="248.5" r="0.5" fill="#FFFFFF"></circle>
<circle id="Ellipse 617" cx="1238.5" cy="100.5" r="0.5" fill="#FFFFFF"></circle>
<circle id="Ellipse 582" cx="407.5" cy="612.5" r="0.5" fill="#FFFFFF"></circle>
<circle id="Ellipse 633" cx="1917.5" cy="612.5" r="0.5" fill="#FFFFFF"></circle>
<circle id="Ellipse 620" cx="726.5" cy="92.5" r="0.5" fill="#FFFFFF"></circle>
<circle id="Ellipse 660" cx="113.5" cy="21.5" r="0.5" fill="#FFFFFF"></circle>
<circle id="Ellipse 583" cx="559.5" cy="591.5" r="0.5" fill="#FFFFFF"></circle>
<circle id="Ellipse 634" cx="2069.5" cy="591.5" r="0.5" fill="#FFFFFF"></circle>
<circle id="Ellipse 584" cx="605.5" cy="842.5" r="0.5" fill="#FFFFFF"></circle>
<circle id="Ellipse 635" cx="2113.5" cy="887.5" r="0.5" fill="#FFFFFF"></circle>
<circle id="Ellipse 585" cx="673.5" cy="783.5" r="0.5" fill="#FFFFFF"></circle>
<circle id="Ellipse 586" cx="663.5" cy="664.5" r="0.5" fill="#FFFFFF"></circle>
<circle id="Ellipse 587" cx="795.5" cy="365.5" r="0.5" fill="#FFFFFF"></circle>
<circle id="Ellipse 663" cx="219.5" cy="458.5" r="0.5" fill="#FFFFFF"></circle>
<circle id="Ellipse 588" cx="687.5" cy="481.5" r="0.5" fill="#FFFFFF"></circle>
<circle id="Ellipse 619" cx="532.5" cy="207.5" r="0.5" fill="#FFFFFF"></circle>
<circle id="Ellipse 636" cx="2042.5" cy="207.5" r="0.5" fill="#FFFFFF"></circle>
<circle id="Ellipse 589" cx="468.5" cy="565.5" r="0.5" fill="#FFFFFF"></circle>
<circle id="Ellipse 637" cx="1978.5" cy="565.5" r="0.5" fill="#FFFFFF"></circle>
<circle id="Ellipse 590" cx="545.5" cy="943.5" r="0.5" fill="#FFFFFF"></circle>
<circle id="Ellipse 638" cx="2053.5" cy="988.5" r="0.5" fill="#FFFFFF"></circle>
<circle id="Ellipse 591" cx="866.5" cy="991.5" r="0.5" fill="#FFFFFF"></circle>
<circle id="Ellipse 592" cx="810.5" cy="902.5" r="0.5" fill="#FFFFFF"></circle>
<circle id="Ellipse 593" cx="1122.5" cy="999.5" r="0.5" fill="#FFFFFF"></circle>
<circle id="Ellipse 594" cx="1373.5" cy="944.5" r="0.5" fill="#FFFFFF"></circle>
<circle id="Ellipse 595" cx="1477.5" cy="670.5" r="0.5" fill="#FFFFFF"></circle>
<circle id="Ellipse 648" cx="34.5" cy="835.5" r="0.5" fill="#FFFFFF"></circle>
<circle id="Ellipse 596" cx="1276.5" cy="298.5" r="0.5" fill="#FFFFFF"></circle>
<circle id="Ellipse 597" cx="492.5" cy="341.5" r="0.5" fill="#FFFFFF"></circle>
<circle id="Ellipse 639" cx="1880.5" cy="277.5" r="0.5" fill="#FFFFFF"></circle>
<circle id="Ellipse 598" cx="388.5" cy="807.5" r="0.5" fill="#FFFFFF"></circle>
<circle id="Ellipse 640" cx="1896.5" cy="852.5" r="0.5" fill="#FFFFFF"></circle>
<circle id="Ellipse 599" cx="1729.5" cy="880.5" r="0.5" fill="#FFFFFF"></circle>
<circle id="Ellipse 600" cx="1793.5" cy="971.5" r="0.5" fill="#FFFFFF"></circle>
<circle id="Ellipse 601" cx="1522.5" cy="904.5" r="0.5" fill="#FFFFFF"></circle>
<circle id="Ellipse 602" cx="1780.5" cy="410.5" r="0.5" fill="#FFFFFF"></circle>
<circle id="Ellipse 618" cx="1635.5" cy="198.5" r="0.5" fill="#FFFFFF"></circle>
<circle id="Ellipse 603" cx="1564.5" cy="428.5" r="0.5" fill="#FFFFFF"></circle>
<circle id="Ellipse 649" cx="121.5" cy="593.5" r="0.5" fill="#FFFFFF"></circle>
<circle id="Ellipse 604" cx="1530.5" cy="553.5" r="0.5" fill="#FFFFFF"></circle>
<circle id="Ellipse 650" cx="87.5" cy="718.5" r="0.5" fill="#FFFFFF"></circle>
<circle id="Ellipse 605" cx="1583.5" cy="648.5" r="0.5" fill="#FFFFFF"></circle>
<circle id="Ellipse 651" cx="140.5" cy="813.5" r="0.5" fill="#FFFFFF"></circle>
<circle id="Ellipse 543" cx="1467" cy="377" r="1" fill="#FFFFFF"></circle>
<circle id="Ellipse 652" cx="24" cy="542" r="1" fill="#FFFFFF"></circle>
<circle id="Ellipse 544" cx="597" cy="779" r="1" fill="#FFFFFF"></circle>
<circle id="Ellipse 641" cx="2105" cy="824" r="1" fill="#FFFFFF"></circle>
</g>
<g id="page404_bg_comets" fill="none">
<g id="Group 1134" fill="none">
<path id="Line 294" d="M1754.97 691.352L1622 804" stroke="url(&quot;#paint1_linear_411_4452&quot;)" stroke-width="0.5px" stroke-linecap="round" fill="none"></path>
<g id="Ellipse 673" filter="url(#filter3_f_411_4452)" fill="none">
<circle cx="1622.5" cy="803.5" r="2.5" fill="#E89D67"></circle>
</g>
<circle id="Ellipse 672" cx="1622.5" cy="803.5" r="1.5" fill="#FFFFFF"></circle>
</g>
<g id="Group 1142" fill="none">
<path id="Line 298" d="M754.97 331.352L622 444" stroke="url(&quot;#paint2_linear_411_4452&quot;)" stroke-width="0.5px" stroke-linecap="round" fill="none"></path>
<g id="Ellipse 680" filter="url(#filter4_f_411_4452)" fill="none">
<circle cx="622.5" cy="443.5" r="2.5" fill="#E89D67"></circle>
</g>
<circle id="Ellipse 683" cx="622.5" cy="443.5" r="1.5" fill="#FFFFFF"></circle>
</g>
<g id="Group 1135" fill="none">
<path id="Line 301" d="M1726.97 292L1594 404.648" stroke="url(&quot;#paint3_linear_411_4452&quot;)" stroke-width="0.5px" stroke-linecap="round" fill="none"></path>
<g id="Ellipse 686" filter="url(#filter5_f_411_4452)" fill="none">
<circle cx="1594.5" cy="404.148" r="2.5" fill="#E89D67"></circle>
</g>
<circle id="Ellipse 689" cx="1594.5" cy="404.148" r="1.5" fill="#FFFFFF"></circle>
</g>
<g id="Group 1136" fill="none">
<path id="Line 304" d="M997.97 816L865 928.648" stroke="url(&quot;#paint4_linear_411_4452&quot;)" stroke-width="0.5px" stroke-linecap="round" fill="none"></path>
<g id="Ellipse 692" filter="url(#filter6_f_411_4452)" fill="none">
<circle cx="865.5" cy="928.148" r="2.5" fill="#E89D67"></circle>
</g>
<circle id="Ellipse 693" cx="865.5" cy="928.148" r="1.5" fill="#FFFFFF"></circle>
</g>
<g id="Group 1137" fill="none">
<path id="Line 296" d="M1649.97 670L1517 782.648" stroke="url(&quot;#paint5_linear_411_4452&quot;)" stroke-width="0.5px" stroke-linecap="round" fill="none"></path>
<g id="Ellipse 676" filter="url(#filter7_f_411_4452)" fill="none">
<circle cx="1517.5" cy="782.148" r="2.5" fill="#E89D67"></circle>
</g>
<circle id="Ellipse 677" cx="1517.5" cy="782.148" r="1.5" fill="#FFFFFF"></circle>
</g>
<g id="Group 1138" fill="none">
<path id="Line 299" d="M1344.97 112L1212 224.648" stroke="url(&quot;#paint6_linear_411_4452&quot;)" stroke-width="0.5px" stroke-linecap="round" fill="none"></path>
<g id="Ellipse 681" filter="url(#filter8_f_411_4452)" fill="none">
<circle cx="1212.5" cy="224.148" r="2.5" fill="#E89D67"></circle>
</g>
<circle id="Ellipse 684" cx="1212.5" cy="224.148" r="1.5" fill="#FFFFFF"></circle>
</g>
<g id="Group 1139" fill="none">
<path id="Line 302" d="M611.97 711L479 823.648" stroke="url(&quot;#paint7_linear_411_4452&quot;)" stroke-width="0.5px" stroke-linecap="round" fill="none"></path>
<g id="Ellipse 687" filter="url(#filter9_f_411_4452)" fill="none">
<circle cx="479.5" cy="823.148" r="2.5" fill="#E89D67"></circle>
</g>
<circle id="Ellipse 690" cx="479.5" cy="823.148" r="1.5" fill="#FFFFFF"></circle>
</g>
<g id="Group 1140" fill="none">
<path id="Line 297" d="M1597.85 788L1533 843.28" stroke="url(&quot;#paint8_linear_411_4452&quot;)" stroke-width="0.5px" stroke-linecap="round" fill="none"></path>
<g id="Ellipse 678" filter="url(#filter10_f_411_4452)" fill="none">
<circle cx="1533.5" cy="842.78" r="2.5" fill="#E89D67"></circle>
</g>
<circle id="Ellipse 679" cx="1533.5" cy="842.78" r="1.5" fill="#FFFFFF"></circle>
</g>
<g id="Group 1141" fill="none">
<path id="Line 300" d="M597.846 428L533 483.28" stroke="url(&quot;#paint9_linear_411_4452&quot;)" stroke-width="0.5px" stroke-linecap="round" fill="none"></path>
<g id="Ellipse 682" filter="url(#filter11_f_411_4452)" fill="none">
<circle cx="533.5" cy="482.78" r="2.5" fill="#E89D67"></circle>
</g>
<circle id="Ellipse 685" cx="533.5" cy="482.78" r="1.5" fill="#FFFFFF"></circle>
</g>
<g id="Group 1143" fill="none">
<path id="Line 303" d="M559.846 829L495 884.28" stroke="url(&quot;#paint10_linear_411_4452&quot;)" stroke-width="0.5px" stroke-linecap="round" fill="none"></path>
<circle id="Ellipse 691" cx="495.5" cy="883.78" r="1.5" fill="#FFFFFF"></circle>
<g id="Ellipse 688" filter="url(#filter12_f_411_4452)" fill="none">
<circle cx="495.5" cy="883.78" r="2.5" fill="#E89D67"></circle>
</g>
</g>
</g>
<g id="page404_bg_planet" fill="none">
<g id="Ellipse 665" filter="url(#filter13_f_411_4452)" fill="none">
<circle cx="1085.15" cy="555.47" r="233.632" transform="rotate(-45 1085.15 555.47)" fill="#BE84CC"></circle>
</g>
<path id="Ellipse 646_2" d="M1523.66 436.64C1529.94 459.037 1523.56 483.898 1506.53 509.722C1489.5 535.544 1461.85 562.272 1425.69 588.352C1353.37 640.511 1247.12 690.016 1124.06 724.485C1001 758.954 884.492 771.848 795.603 764.844C751.156 761.342 713.644 752.868 685.678 739.649C657.712 726.43 639.352 708.496 633.078 686.1C626.805 663.703 633.178 638.842 650.208 613.018C667.238 587.196 694.89 560.468 731.05 534.388C803.368 482.229 909.625 432.724 1032.68 398.255C1155.74 363.786 1272.25 350.892 1361.14 357.896C1405.58 361.398 1443.1 369.872 1471.06 383.091C1499.03 396.31 1517.39 414.244 1523.66 436.64Z" stroke="#B0C2FF" fill="none"></path>
<g id="Mask group" fill="none">
<mask id="mask0_411_4452" style="mask-type:alpha" maskUnits="userSpaceOnUse" x="844" y="318" width="481" height="481" fill="none">
<circle id="Ellipse 645_2" cx="1084.88" cy="558.468" r="239.969" transform="rotate(-45 1084.88 558.468)" fill="#D9D9D9"></circle>
</mask>
<g mask="url(#mask0_411_4452)" fill="none">
<circle id="Ellipse 661_2" cx="1083.6" cy="557.182" r="239.969" transform="rotate(-45 1083.6 557.182)" fill="url(&quot;#paint11_linear_411_4452&quot;)"></circle>
<path id="Union" fill-rule="evenodd" clip-rule="evenodd" d="M893.782 677.81C893.782 690.512 883.485 700.81 870.782 700.81L803.66 700.81C790.957 700.81 780.66 711.107 780.66 723.81L780.66 744.075C780.66 756.777 790.957 767.075 803.66 767.075L1063.03 767.075C1075.73 767.075 1086.03 756.777 1086.03 744.075L1086.03 725.8C1086.03 713.098 1096.33 702.8 1109.03 702.8L1176.15 702.8C1188.85 702.8 1199.15 692.503 1199.15 679.8L1199.15 643.736C1199.15 631.033 1188.85 620.736 1176.15 620.736L916.782 620.736C904.079 620.736 893.782 631.033 893.782 643.736L893.782 677.81Z" fill="url(&quot;#paint12_linear_411_4452&quot;)"></path>
<path id="Rectangle 943" d="M948.109 318.841C956.489 301.66 973.932 290.76 993.048 290.76L1379.37 290.76C1404 290.76 1410.82 324.59 1388.12 334.142V334.142C1386.08 335 1384.27 336.078 1382.54 337.453C1362.62 353.223 1227.31 455.76 1096.45 438.918C1012.86 428.158 967.902 396.883 946.48 375.971C934.816 364.583 934.238 347.281 941.384 332.63L948.109 318.841Z" fill="url(&quot;#paint13_linear_411_4452&quot;)"></path>
<rect id="Rectangle 945" x="1006.74" y="517.698" width="53.4144" height="6.98231" rx="3.49116" fill="#755470"></rect>
<rect id="Rectangle 946" x="922.373" y="679" width="44.8328" height="6.98231" rx="3.49116" fill="#755470"></rect>
<rect id="Rectangle 947" x="702.845" y="723.702" width="338.143" height="2.41917" rx="1.20958" fill="#7283BC"></rect>
<rect id="Rectangle 948" x="636" y="708.277" width="338.143" height="2.41917" rx="1.20958" fill="#7283BC"></rect>
<rect id="Rectangle 949" x="1238" y="442" width="338.143" height="2.41917" rx="1.20958" fill="#5789B8" fill-opacity="0.36"></rect>
<path id="page404_bg_planet_wave_1" d="M1252.53 481.166C1226.29 517.854 1153.89 582.191 1074.26 546.033C974.73 500.836 906.503 503.531 825.907 625.051" stroke="url(&quot;#paint14_linear_411_4452&quot;)" stroke-opacity="0.3" stroke-width="22px" fill="none"></path>
<path id="page404_bg_planet_wave_1_2" d="M1249.33 441.698C1223.09 478.386 1150.69 542.723 1071.06 506.565C971.529 461.368 903.302 464.063 822.706 585.583" stroke="url(&quot;#paint15_linear_411_4452&quot;)" stroke-opacity="0.3" stroke-width="22px" fill="none"></path>
<rect id="Rectangle 942" x="1419.25" y="596.348" width="187.248" height="116.348" rx="50" transform="rotate(-180 1419.25 596.348)" fill="url(&quot;#paint16_linear_411_4452&quot;)"></rect>
<path id="Subtract" fill-rule="evenodd" clip-rule="evenodd" d="M1093.94 317.435C1041.79 323.293 991.188 346.218 951.193 386.213C857.48 479.927 857.48 631.866 951.193 725.58C995.419 769.806 1052.61 793.16 1110.53 795.643C1040.48 803.51 967.634 780.585 913.915 726.866C820.201 633.152 820.201 481.213 913.915 387.499C963.403 338.011 1029.13 314.657 1093.94 317.435Z" fill="#FFFFFF" fill-opacity="0.14"></path>
<path id="Ellipse 646_3" d="M1523.66 436.641C1530.8 462.104 1521.52 491.878 1496.36 523.591C1471.2 555.298 1430.94 587.971 1378.8 618.954C1326.67 649.935 1264.15 678.343 1196.31 701.874C1128.47 725.405 1057.22 743.395 988.326 754.389C919.431 765.384 854.841 769.071 799.784 765.158C744.718 761.245 700.78 749.842 671.486 731.916C642.214 714.004 628.426 690.115 631.067 662.177C633.714 634.181 652.791 602.784 686.9 570.535" stroke="#B0C2FF" fill="none"></path>
<g id="Ellipse 670" filter="url(#filter14_f_411_4452)" fill="none">
<circle cx="964.049" cy="374.644" r="46.3576" transform="rotate(-45 964.049 374.644)" fill="#FFBEB0" fill-opacity="0.41"></circle>
</g>
<g id="Ellipse 671" filter="url(#filter15_f_411_4452)" fill="none">
<circle cx="898.489" cy="604.745" r="46.3576" transform="rotate(-45 898.489 604.745)" fill="#B0ECFF" fill-opacity="0.4"></circle>
</g>
</g>
</g>
</g>
</g>
<defs>
<filter id="filter0_f_411_4452" x="1024.65" y="-163.398" width="794.469" height="679.147" filterUnits="userSpaceOnUse" color-interpolation-filters="sRGB">
<feFlood flood-opacity="0" result="BackgroundImageFix"></feFlood>
<feBlend mode="normal" in="SourceGraphic" in2="BackgroundImageFix" result="shape"></feBlend>
<feGaussianBlur stdDeviation="47" result="effect1_foregroundBlur_411_4452"></feGaussianBlur>
</filter>
<filter id="filter1_f_411_4452" x="616.647" y="812.602" width="794.469" height="679.147" filterUnits="userSpaceOnUse" color-interpolation-filters="sRGB">
<feFlood flood-opacity="0" result="BackgroundImageFix"></feFlood>
<feBlend mode="normal" in="SourceGraphic" in2="BackgroundImageFix" result="shape"></feBlend>
<feGaussianBlur stdDeviation="47" result="effect1_foregroundBlur_411_4452"></feGaussianBlur>
</filter>
<filter id="filter2_f_411_4452" x="129.647" y="-133.398" width="794.469" height="679.147" filterUnits="userSpaceOnUse" color-interpolation-filters="sRGB">
<feFlood flood-opacity="0" result="BackgroundImageFix"></feFlood>
<feBlend mode="normal" in="SourceGraphic" in2="BackgroundImageFix" result="shape"></feBlend>
<feGaussianBlur stdDeviation="47" result="effect1_foregroundBlur_411_4452"></feGaussianBlur>
</filter>
<filter id="filter3_f_411_4452" x="1607" y="788" width="31" height="31" filterUnits="userSpaceOnUse" color-interpolation-filters="sRGB">
<feFlood flood-opacity="0" result="BackgroundImageFix"></feFlood>
<feBlend mode="normal" in="SourceGraphic" in2="BackgroundImageFix" result="shape"></feBlend>
<feGaussianBlur stdDeviation="6.5" result="effect1_foregroundBlur_411_4452"></feGaussianBlur>
</filter>
<filter id="filter4_f_411_4452" x="607" y="428" width="31" height="31" filterUnits="userSpaceOnUse" color-interpolation-filters="sRGB">
<feFlood flood-opacity="0" result="BackgroundImageFix"></feFlood>
<feBlend mode="normal" in="SourceGraphic" in2="BackgroundImageFix" result="shape"></feBlend>
<feGaussianBlur stdDeviation="6.5" result="effect1_foregroundBlur_411_4452"></feGaussianBlur>
</filter>
<filter id="filter5_f_411_4452" x="1579" y="388.648" width="31" height="31" filterUnits="userSpaceOnUse" color-interpolation-filters="sRGB">
<feFlood flood-opacity="0" result="BackgroundImageFix"></feFlood>
<feBlend mode="normal" in="SourceGraphic" in2="BackgroundImageFix" result="shape"></feBlend>
<feGaussianBlur stdDeviation="6.5" result="effect1_foregroundBlur_411_4452"></feGaussianBlur>
</filter>
<filter id="filter6_f_411_4452" x="850" y="912.648" width="31" height="31" filterUnits="userSpaceOnUse" color-interpolation-filters="sRGB">
<feFlood flood-opacity="0" result="BackgroundImageFix"></feFlood>
<feBlend mode="normal" in="SourceGraphic" in2="BackgroundImageFix" result="shape"></feBlend>
<feGaussianBlur stdDeviation="6.5" result="effect1_foregroundBlur_411_4452"></feGaussianBlur>
</filter>
<filter id="filter7_f_411_4452" x="1502" y="766.648" width="31" height="31" filterUnits="userSpaceOnUse" color-interpolation-filters="sRGB">
<feFlood flood-opacity="0" result="BackgroundImageFix"></feFlood>
<feBlend mode="normal" in="SourceGraphic" in2="BackgroundImageFix" result="shape"></feBlend>
<feGaussianBlur stdDeviation="6.5" result="effect1_foregroundBlur_411_4452"></feGaussianBlur>
</filter>
<filter id="filter8_f_411_4452" x="1197" y="208.648" width="31" height="31" filterUnits="userSpaceOnUse" color-interpolation-filters="sRGB">
<feFlood flood-opacity="0" result="BackgroundImageFix"></feFlood>
<feBlend mode="normal" in="SourceGraphic" in2="BackgroundImageFix" result="shape"></feBlend>
<feGaussianBlur stdDeviation="6.5" result="effect1_foregroundBlur_411_4452"></feGaussianBlur>
</filter>
<filter id="filter9_f_411_4452" x="464" y="807.648" width="31" height="31" filterUnits="userSpaceOnUse" color-interpolation-filters="sRGB">
<feFlood flood-opacity="0" result="BackgroundImageFix"></feFlood>
<feBlend mode="normal" in="SourceGraphic" in2="BackgroundImageFix" result="shape"></feBlend>
<feGaussianBlur stdDeviation="6.5" result="effect1_foregroundBlur_411_4452"></feGaussianBlur>
</filter>
<filter id="filter10_f_411_4452" x="1518" y="827.28" width="31" height="31" filterUnits="userSpaceOnUse" color-interpolation-filters="sRGB">
<feFlood flood-opacity="0" result="BackgroundImageFix"></feFlood>
<feBlend mode="normal" in="SourceGraphic" in2="BackgroundImageFix" result="shape"></feBlend>
<feGaussianBlur stdDeviation="6.5" result="effect1_foregroundBlur_411_4452"></feGaussianBlur>
</filter>
<filter id="filter11_f_411_4452" x="518" y="467.28" width="31" height="31" filterUnits="userSpaceOnUse" color-interpolation-filters="sRGB">
<feFlood flood-opacity="0" result="BackgroundImageFix"></feFlood>
<feBlend mode="normal" in="SourceGraphic" in2="BackgroundImageFix" result="shape"></feBlend>
<feGaussianBlur stdDeviation="6.5" result="effect1_foregroundBlur_411_4452"></feGaussianBlur>
</filter>
<filter id="filter12_f_411_4452" x="480" y="868.28" width="31" height="31" filterUnits="userSpaceOnUse" color-interpolation-filters="sRGB">
<feFlood flood-opacity="0" result="BackgroundImageFix"></feFlood>
<feBlend mode="normal" in="SourceGraphic" in2="BackgroundImageFix" result="shape"></feBlend>
<feGaussianBlur stdDeviation="6.5" result="effect1_foregroundBlur_411_4452"></feGaussianBlur>
</filter>
<filter id="filter13_f_411_4452" x="683.52" y="153.838" width="803.264" height="803.264" filterUnits="userSpaceOnUse" color-interpolation-filters="sRGB">
<feFlood flood-opacity="0" result="BackgroundImageFix"></feFlood>
<feBlend mode="normal" in="SourceGraphic" in2="BackgroundImageFix" result="shape"></feBlend>
<feGaussianBlur stdDeviation="65" result="effect1_foregroundBlur_411_4452"></feGaussianBlur>
</filter>
<filter id="filter14_f_411_4452" x="876.691" y="287.287" width="174.715" height="174.715" filterUnits="userSpaceOnUse" color-interpolation-filters="sRGB">
<feFlood flood-opacity="0" result="BackgroundImageFix"></feFlood>
<feBlend mode="normal" in="SourceGraphic" in2="BackgroundImageFix" result="shape"></feBlend>
<feGaussianBlur stdDeviation="20.5" result="effect1_foregroundBlur_411_4452"></feGaussianBlur>
</filter>
<filter id="filter15_f_411_4452" x="811.131" y="517.388" width="174.715" height="174.715" filterUnits="userSpaceOnUse" color-interpolation-filters="sRGB">
<feFlood flood-opacity="0" result="BackgroundImageFix"></feFlood>
<feBlend mode="normal" in="SourceGraphic" in2="BackgroundImageFix" result="shape"></feBlend>
<feGaussianBlur stdDeviation="20.5" result="effect1_foregroundBlur_411_4452"></feGaussianBlur>
</filter>
<linearGradient id="paint0_linear_411_4452" x1="1078" y1="-35" x2="1078" y2="1934.42" gradientUnits="userSpaceOnUse">
<stop offset="0.260691" stop-color="#151B22"></stop>
<stop offset="0.748643" stop-color="#5153E7"></stop>
</linearGradient>
<linearGradient id="paint1_linear_411_4452" x1="1622" y1="805" x2="1748.5" y2="698.5" gradientUnits="userSpaceOnUse">
<stop></stop>
<stop offset="0.0001" stop-color="white"></stop>
<stop offset="1" stop-color="white" stop-opacity="0"></stop>
</linearGradient>
<linearGradient id="paint2_linear_411_4452" x1="622" y1="445" x2="748.5" y2="338.5" gradientUnits="userSpaceOnUse">
<stop></stop>
<stop offset="0.0001" stop-color="white"></stop>
<stop offset="1" stop-color="white" stop-opacity="0"></stop>
</linearGradient>
<linearGradient id="paint3_linear_411_4452" x1="1594" y1="405.647" x2="1720.5" y2="299.147" gradientUnits="userSpaceOnUse">
<stop></stop>
<stop offset="0.0001" stop-color="white"></stop>
<stop offset="1" stop-color="white" stop-opacity="0"></stop>
</linearGradient>
<linearGradient id="paint4_linear_411_4452" x1="865" y1="929.647" x2="991.5" y2="823.147" gradientUnits="userSpaceOnUse">
<stop></stop>
<stop offset="0.0001" stop-color="white"></stop>
<stop offset="1" stop-color="white" stop-opacity="0"></stop>
</linearGradient>
<linearGradient id="paint5_linear_411_4452" x1="1517" y1="783.647" x2="1643.5" y2="677.147" gradientUnits="userSpaceOnUse">
<stop></stop>
<stop offset="0.0001" stop-color="white"></stop>
<stop offset="1" stop-color="white" stop-opacity="0"></stop>
</linearGradient>
<linearGradient id="paint6_linear_411_4452" x1="1212" y1="225.647" x2="1338.5" y2="119.147" gradientUnits="userSpaceOnUse">
<stop></stop>
<stop offset="0.0001" stop-color="white"></stop>
<stop offset="1" stop-color="white" stop-opacity="0"></stop>
</linearGradient>
<linearGradient id="paint7_linear_411_4452" x1="479" y1="824.647" x2="605.5" y2="718.147" gradientUnits="userSpaceOnUse">
<stop></stop>
<stop offset="0.0001" stop-color="white"></stop>
<stop offset="1" stop-color="white" stop-opacity="0"></stop>
</linearGradient>
<linearGradient id="paint8_linear_411_4452" x1="1533.25" y1="844.067" x2="1595.1" y2="791.991" gradientUnits="userSpaceOnUse">
<stop></stop>
<stop offset="0.0001" stop-color="white"></stop>
<stop offset="1" stop-color="white" stop-opacity="0"></stop>
</linearGradient>
<linearGradient id="paint9_linear_411_4452" x1="533.251" y1="484.067" x2="595.1" y2="431.991" gradientUnits="userSpaceOnUse">
<stop></stop>
<stop offset="0.0001" stop-color="white"></stop>
<stop offset="1" stop-color="white" stop-opacity="0"></stop>
</linearGradient>
<linearGradient id="paint10_linear_411_4452" x1="495.251" y1="885.067" x2="557.1" y2="832.991" gradientUnits="userSpaceOnUse">
<stop></stop>
<stop offset="0.0001" stop-color="white"></stop>
<stop offset="1" stop-color="white" stop-opacity="0"></stop>
</linearGradient>
<linearGradient id="paint11_linear_411_4452" x1="964.523" y1="347.21" x2="1178.13" y2="676.258" gradientUnits="userSpaceOnUse">
<stop stop-color="#544684"></stop>
<stop offset="1" stop-color="#151838"></stop>
</linearGradient>
<linearGradient id="paint12_linear_411_4452" x1="797.47" y1="697.473" x2="1039.08" y2="706.744" gradientUnits="userSpaceOnUse">
<stop stop-color="#678FE3"></stop>
<stop offset="1" stop-color="#253149" stop-opacity="0"></stop>
</linearGradient>
<linearGradient id="paint13_linear_411_4452" x1="976.387" y1="374.001" x2="1376.38" y2="355.119" gradientUnits="userSpaceOnUse">
<stop stop-color="#785671"></stop>
<stop offset="1" stop-color="#342B5A"></stop>
</linearGradient>
<linearGradient id="paint14_linear_411_4452" x1="1232.98" y1="519.977" x2="932.935" y2="515.55" gradientUnits="userSpaceOnUse">
<stop stop-color="white" stop-opacity="0"></stop>
<stop offset="1" stop-color="white"></stop>
</linearGradient>
<linearGradient id="paint15_linear_411_4452" x1="1229.78" y1="480.509" x2="929.734" y2="476.082" gradientUnits="userSpaceOnUse">
<stop stop-color="white" stop-opacity="0"></stop>
<stop offset="1" stop-color="white" stop-opacity="0.35"></stop>
</linearGradient>
<linearGradient id="paint16_linear_411_4452" x1="1482.55" y1="655.165" x2="1620.74" y2="650.666" gradientUnits="userSpaceOnUse">
<stop stop-color="#B1ABED" stop-opacity="0.58"></stop>
<stop offset="1" stop-color="#A1A0EE" stop-opacity="0"></stop>
</linearGradient>
<clipPath id="clip0_411_4452">
<rect width="2156" height="1300" fill="white"></rect>
</clipPath>
<linearGradient id="paint0_linear_411_4452" x1="1078" y1="-35" x2="1078" y2="1934.42" gradientUnits="userSpaceOnUse">
<stop offset="0.260691" stop-color="#151B22"></stop>
<stop offset="0.748643" stop-color="#5153E7"></stop>
</linearGradient><linearGradient id="paint1_linear_411_4452" x1="1622" y1="805" x2="1748.5" y2="698.5" gradientUnits="userSpaceOnUse">
<stop></stop>
<stop offset="0.0001" stop-color="white"></stop>
<stop offset="1" stop-color="white" stop-opacity="0"></stop>
</linearGradient><linearGradient id="paint2_linear_411_4452" x1="622" y1="445" x2="748.5" y2="338.5" gradientUnits="userSpaceOnUse">
<stop></stop>
<stop offset="0.0001" stop-color="white"></stop>
<stop offset="1" stop-color="white" stop-opacity="0"></stop>
</linearGradient><linearGradient id="paint3_linear_411_4452" x1="1594" y1="405.647" x2="1720.5" y2="299.147" gradientUnits="userSpaceOnUse">
<stop></stop>
<stop offset="0.0001" stop-color="white"></stop>
<stop offset="1" stop-color="white" stop-opacity="0"></stop>
</linearGradient><linearGradient id="paint4_linear_411_4452" x1="865" y1="929.647" x2="991.5" y2="823.147" gradientUnits="userSpaceOnUse">
<stop></stop>
<stop offset="0.0001" stop-color="white"></stop>
<stop offset="1" stop-color="white" stop-opacity="0"></stop>
</linearGradient><linearGradient id="paint5_linear_411_4452" x1="1517" y1="783.647" x2="1643.5" y2="677.147" gradientUnits="userSpaceOnUse">
<stop></stop>
<stop offset="0.0001" stop-color="white"></stop>
<stop offset="1" stop-color="white" stop-opacity="0"></stop>
</linearGradient><linearGradient id="paint6_linear_411_4452" x1="1212" y1="225.647" x2="1338.5" y2="119.147" gradientUnits="userSpaceOnUse">
<stop></stop>
<stop offset="0.0001" stop-color="white"></stop>
<stop offset="1" stop-color="white" stop-opacity="0"></stop>
</linearGradient><linearGradient id="paint7_linear_411_4452" x1="479" y1="824.647" x2="605.5" y2="718.147" gradientUnits="userSpaceOnUse">
<stop></stop>
<stop offset="0.0001" stop-color="white"></stop>
<stop offset="1" stop-color="white" stop-opacity="0"></stop>
</linearGradient><linearGradient id="paint8_linear_411_4452" x1="1533.25" y1="844.067" x2="1595.1" y2="791.991" gradientUnits="userSpaceOnUse">
<stop></stop>
<stop offset="0.0001" stop-color="white"></stop>
<stop offset="1" stop-color="white" stop-opacity="0"></stop>
</linearGradient><linearGradient id="paint9_linear_411_4452" x1="533.251" y1="484.067" x2="595.1" y2="431.991" gradientUnits="userSpaceOnUse">
<stop></stop>
<stop offset="0.0001" stop-color="white"></stop>
<stop offset="1" stop-color="white" stop-opacity="0"></stop>
</linearGradient><linearGradient id="paint10_linear_411_4452" x1="495.251" y1="885.067" x2="557.1" y2="832.991" gradientUnits="userSpaceOnUse">
<stop></stop>
<stop offset="0.0001" stop-color="white"></stop>
<stop offset="1" stop-color="white" stop-opacity="0"></stop>
</linearGradient><linearGradient id="paint11_linear_411_4452" x1="964.523" y1="347.21" x2="1178.13" y2="676.258" gradientUnits="userSpaceOnUse">
<stop stop-color="#544684"></stop>
<stop offset="1" stop-color="#151838"></stop>
</linearGradient><linearGradient id="paint12_linear_411_4452" x1="797.47" y1="697.473" x2="1039.08" y2="706.744" gradientUnits="userSpaceOnUse">
<stop stop-color="#678FE3"></stop>
<stop offset="1" stop-color="#253149" stop-opacity="0"></stop>
</linearGradient><linearGradient id="paint13_linear_411_4452" x1="976.387" y1="374.001" x2="1376.38" y2="355.119" gradientUnits="userSpaceOnUse">
<stop stop-color="#785671"></stop>
<stop offset="1" stop-color="#342B5A"></stop>
</linearGradient><linearGradient id="paint14_linear_411_4452" x1="1232.98" y1="519.977" x2="932.935" y2="515.55" gradientUnits="userSpaceOnUse">
<stop stop-color="white" stop-opacity="0"></stop>
<stop offset="1" stop-color="white"></stop>
</linearGradient><linearGradient id="paint15_linear_411_4452" x1="1229.78" y1="480.509" x2="929.734" y2="476.082" gradientUnits="userSpaceOnUse">
<stop stop-color="white" stop-opacity="0"></stop>
<stop offset="1" stop-color="white" stop-opacity="0.35"></stop>
</linearGradient><linearGradient id="paint16_linear_411_4452" x1="1482.55" y1="655.165" x2="1620.74" y2="650.666" gradientUnits="userSpaceOnUse">
<stop stop-color="#B1ABED" stop-opacity="0.58"></stop>
<stop offset="1" stop-color="#A1A0EE" stop-opacity="0"></stop>
</linearGradient></defs>
</svg>