<svg xmlns:xlink="http://www.w3.org/1999/xlink" width="307" height="363" viewBox="0 0 307 363" fill="none" xmlns="http://www.w3.org/2000/svg">
<ellipse cx="183.5" cy="347.5" rx="113.5" ry="15.5" fill="black" fill-opacity="0.28"></ellipse>
<path d="M127.305 71.858C127.305 72.6337 126.46 73.114 125.794 72.7173L120.239 69.411C118.422 68.3292 117.308 66.3703 117.308 64.2552L117.308 47.2747C117.308 45.1597 118.422 43.2008 120.239 42.119L125.794 38.8127C126.46 38.4159 127.305 38.8963 127.305 39.672L127.305 71.858Z" fill="url(&quot;#paint0_linear_580_4640&quot;)"></path>
<path d="M217.279 89.3267H143.015V89.3267C144.799 92.0034 147.804 93.6111 151.021 93.6111H209.274C212.491 93.6111 215.495 92.0034 217.279 89.3267V89.3267Z" fill="#44579D"></path>
<rect x="212.995" y="226.429" width="11.4253" height="61.4107" fill="black"></rect>
<rect width="11.4253" height="61.4107" transform="matrix(-1 0 0 1 147.3 226.429)" fill="black"></rect>
<path d="M210.854 176.861C212.532 168.23 224.883 168.23 226.56 176.861L237.882 235.112C238.842 240.051 235.059 244.639 230.029 244.639H207.386C202.355 244.639 198.573 240.051 199.533 235.112L210.854 176.861Z" fill="url(&quot;#paint1_linear_580_4640&quot;)"></path>
<path d="M149.44 176.861C147.762 168.23 135.411 168.23 133.734 176.861L122.412 235.112C121.453 240.051 125.235 244.639 130.266 244.639H152.908C157.939 244.639 161.721 240.051 160.761 235.112L149.44 176.861Z" fill="url(&quot;#paint2_linear_580_4640&quot;)"></path>
<path d="M178.541 103.95C179.354 104.65 181.183 103.86 182.626 102.184C184.069 100.509 184.58 98.5838 183.767 97.8835C182.954 97.1833 181.125 97.9735 179.682 99.6486C178.239 101.324 177.728 103.249 178.541 103.95Z" stroke="#FFFFFF" stroke-miterlimit="10" fill="none"></path>
<path d="M186.399 110.719C187.211 111.419 189.04 110.629 190.483 108.954C191.926 107.279 192.437 105.353 191.624 104.653C190.812 103.953 188.983 104.743 187.54 106.418C186.097 108.093 185.586 110.019 186.399 110.719Z" stroke="#FFFFFF" stroke-miterlimit="10" fill="none"></path>
<path d="M87.0705 102.021L53.9903 99.4512C51.7576 99.2891 49.748 102.836 49.3573 107.441C48.9665 112.045 50.4952 115.886 52.728 116.048L81.2049 118.225C81.2049 118.225 87.4268 112.221 88.9806 106.65C89.555 104.621 89.3413 102.973 88.5137 102.221C88.1355 102.119 87.2082 102.089 87.0705 102.021Z" fill="#4862BD"></path>
<path d="M66.2672 129.425C66.2672 129.425 94.5923 133.585 103.651 132.928C113.442 132.217 121.227 128.787 123.216 117.928C123.919 110.822 117.032 103.54 104.18 98.5375C91.328 93.5352 75.0693 89.657 75.0693 89.657" fill="url(&quot;#paint3_linear_580_4640&quot;)"></path>
<mask id="mask0_580_4640" style="mask-type:alpha" maskUnits="userSpaceOnUse" x="63" y="89" width="16" height="41" fill="none">
<path d="M66.716 129.561C63.3287 128.875 62.3986 119.436 64.6386 108.477C66.8786 97.518 71.4405 89.1899 74.8279 89.8755C78.2153 90.561 79.1454 100.001 76.9054 110.96C74.6653 121.918 70.1034 130.247 66.716 129.561Z" fill="black"></path>
</mask>
<g mask="url(#mask0_580_4640)" fill="none">
<path d="M66.716 129.561C63.3287 128.875 62.3986 119.436 64.6386 108.477C66.8786 97.518 71.4405 89.1899 74.8279 89.8755C78.2153 90.561 79.1454 100.001 76.9054 110.96C74.6653 121.918 70.1034 130.247 66.716 129.561Z" fill="black"></path>
<path d="M87.0703 102.021L53.9902 99.4507C51.7574 99.2886 49.7479 102.835 49.3572 107.44C48.9665 112.045 50.4953 115.885 52.728 116.047L81.205 118.225C81.205 118.225 87.4267 112.221 88.9804 106.65C89.5548 104.621 89.3411 102.973 88.5135 102.221C88.1353 102.119 87.208 102.089 87.0703 102.021Z" fill="#4862BD"></path>
</g>
<path d="M78.8065 131.086C78.8065 131.086 79.2711 121.593 87.5494 120.903C95.8276 120.213 122.808 122.19 122.808 122.19" stroke="#FFFFFF" stroke-width="0.5px" stroke-miterlimit="10" fill="none"></path>
<path d="M194.192 117.434C195.005 118.134 196.834 117.344 198.277 115.669C199.72 113.993 200.231 112.068 199.418 111.368C198.605 110.667 196.776 111.458 195.333 113.133C193.89 114.808 193.379 116.733 194.192 117.434Z" stroke="#FFFFFF" stroke-miterlimit="10" fill="none"></path>
<path d="M202.152 124.291C202.965 124.992 204.794 124.202 206.237 122.526C207.68 120.851 208.191 118.926 207.378 118.225C206.565 117.525 204.737 118.315 203.294 119.991C201.85 121.666 201.339 123.591 202.152 124.291Z" stroke="#FFFFFF" stroke-miterlimit="10" fill="none"></path>
<path d="M209.997 131.05C210.81 131.75 212.639 130.96 214.082 129.285C215.525 127.61 216.036 125.684 215.223 124.984C214.41 124.284 212.581 125.074 211.138 126.749C209.695 128.424 209.184 130.35 209.997 131.05Z" stroke="#FFFFFF" stroke-miterlimit="10" fill="none"></path>
<path d="M145.611 193.672C146.559 194.488 147.988 194.382 148.804 193.435C149.62 192.488 149.513 191.059 148.566 190.243C147.619 189.427 146.19 189.533 145.374 190.48C144.558 191.427 144.664 192.856 145.611 193.672Z" fill="#3851A7"></path>
<path d="M135.041 184.565C135.988 185.381 137.417 185.275 138.233 184.328C139.049 183.381 138.943 181.951 137.995 181.136C137.048 180.32 135.619 180.426 134.803 181.373C133.987 182.32 134.094 183.749 135.041 184.565Z" fill="#3851A7"></path>
<path d="M124.432 175.425C125.379 176.241 126.808 176.135 127.624 175.188C128.44 174.241 128.333 172.811 127.386 171.996C126.439 171.18 125.01 171.286 124.194 172.233C123.378 173.18 123.484 174.609 124.432 175.425Z" fill="#3851A7"></path>
<path d="M239.379 178.667C239.779 175.2 237.069 172.16 233.58 172.16H126.715C123.225 172.16 120.515 175.2 120.915 178.666V178.666C123.032 197.015 139.861 210.008 158.148 207.414L180.147 204.293L202.146 207.414C220.433 210.008 237.262 197.015 239.379 178.667V178.667Z" fill="black"></path>
<mask id="mask1_580_4640" style="mask-type:alpha" maskUnits="userSpaceOnUse" x="118" y="95" width="125" height="115" fill="none">
<path fill-rule="evenodd" clip-rule="evenodd" d="M242.986 99.3286C242.986 99.327 242.986 99.3254 242.986 99.3238C242.986 96.9575 215.172 95.0393 180.861 95.0393C146.551 95.0393 118.737 96.9575 118.737 99.3238C118.737 99.3238 118.737 99.3239 118.737 99.324H118.737V159.738C118.737 187.103 146.554 209.292 180.861 209.292C215.168 209.292 242.986 187.103 242.986 159.738V99.3286Z" fill="url(&quot;#paint4_linear_580_4640&quot;)"></path>
</mask>
<g mask="url(#mask1_580_4640)" fill="none">
<path fill-rule="evenodd" clip-rule="evenodd" d="M242.986 99.3286C242.986 99.327 242.986 99.3254 242.986 99.3238C242.986 96.9575 215.172 95.0393 180.861 95.0393C146.551 95.0393 118.737 96.9575 118.737 99.3238C118.737 99.3238 118.737 99.3239 118.737 99.324H118.737V159.738C118.737 187.103 146.554 209.292 180.861 209.292C215.168 209.292 242.986 187.103 242.986 159.738V99.3286Z" fill="url(&quot;#paint5_linear_580_4640&quot;)"></path>
<path d="M242.986 159.306C242.986 165.622 215.168 170.732 180.861 170.732C146.554 170.732 118.737 165.622 118.737 159.306" stroke="#FFFFFF" stroke-opacity="0.46" stroke-width="0.5px" stroke-miterlimit="10" fill="none"></path>
<path d="M242.986 177.873C242.986 184.188 215.168 189.298 180.861 189.298C146.554 189.298 118.737 184.188 118.737 177.873" stroke="#FFFFFF" stroke-opacity="0.46" stroke-width="0.5px" stroke-miterlimit="10" fill="none"></path>
</g>
<rect x="140.159" y="109.321" width="79.9768" height="39.9884" rx="8" fill="url(&quot;#paint6_linear_580_4640&quot;)"></rect>
<circle cx="53.8695" cy="106.498" r="12.8534" transform="rotate(47.6499 53.8695 106.498)" fill="url(&quot;#paint7_radial_580_4640&quot;)"></circle>
<path d="M15.5109 71.6372C15.5109 71.6372 21.7029 82.289 24.5687 86.5607C34.772 101.751 40.9407 108.632 51.3542 103.939C63.1716 98.6023 57.3407 84.4196 53.4266 75.1528C50.1221 67.3429 46.1094 57.8234 46.1094 57.8234" fill="url(&quot;#paint8_linear_580_4640&quot;)"></path>
<path d="M47.8916 104.987C42.5646 105.436 36.2286 97.6443 32.7937 92.3437C31.7402 90.7122 26.0516 81.436 20.6446 72.5796L21.356 69.621L20.3407 68.8615" stroke="#FFFFFF" stroke-width="0.5px" stroke-miterlimit="10" fill="none"></path>
<path d="M32.658 69.322C23.9559 73.2602 15.9125 74.2664 14.6926 71.5693C13.4727 68.8722 19.5382 63.4932 28.2404 59.5549C36.9426 55.6167 44.986 54.6105 46.2059 57.3076C47.4258 60.0047 41.3602 65.3838 32.658 69.322Z" fill="black"></path>
<path d="M276.802 130.325L291.906 162.834C292.914 165.033 290.084 168.407 285.572 170.543C281.059 172.68 276.594 172.584 275.587 170.386L262.619 142.387C262.619 142.387 266.343 133.82 271.395 130.141C273.231 128.793 274.98 128.386 276.054 128.94C276.3 129.284 276.681 130.211 276.802 130.325Z" fill="#4862BD"></path>
<path d="M256.93 161.74C256.93 161.74 242.013 134.644 239.254 125.228C236.272 115.049 236.801 105.874 247.039 99.7553C253.966 96.358 263.939 100.575 273.86 111.691C283.78 122.808 293.851 137.798 293.851 137.798" fill="url(&quot;#paint9_linear_580_4640&quot;)"></path>
<mask id="mask2_580_4640" style="mask-type:alpha" maskUnits="userSpaceOnUse" x="256" y="136" width="39" height="27" fill="none">
<path d="M256.622 161.337C258.596 164.506 268.501 161.878 278.746 155.469C288.991 149.059 295.695 141.293 293.721 138.125C291.747 134.956 281.842 137.583 271.597 143.993C261.353 150.403 254.648 158.168 256.622 161.337Z" fill="black"></path>
</mask>
<g mask="url(#mask2_580_4640)" fill="none">
<path d="M256.622 161.337C258.596 164.506 268.501 161.878 278.746 155.469C288.991 149.059 295.695 141.293 293.721 138.125C291.747 134.956 281.842 137.583 271.597 143.993C261.353 150.403 254.648 158.168 256.622 161.337Z" fill="black"></path>
<path d="M276.802 130.325L291.906 162.834C292.914 165.033 290.084 168.408 285.572 170.544C281.059 172.68 276.594 172.585 275.587 170.386L262.619 142.387C262.619 142.387 266.343 133.821 271.395 130.142C273.231 128.793 274.98 128.387 276.054 128.94C276.3 129.284 276.681 130.212 276.802 130.325Z" fill="#4862BD"></path>
</g>
<path d="M250.509 149.675C250.509 149.675 259.941 145.616 257.51 136.977C255.079 128.338 242.88 101.779 242.88 101.779" stroke="#FFFFFF" stroke-width="0.5px" stroke-miterlimit="10" fill="none"></path>
<circle r="13.8865" transform="matrix(-0.928028 -0.37251 -0.37251 0.928028 285.525 165.903)" fill="url(&quot;#paint10_radial_580_4640&quot;)"></circle>
<path d="M295.829 218.522C295.829 218.522 297.989 205.405 298.544 199.887C300.509 180.257 300.144 170.325 288.521 167.266C275.323 163.804 270.488 179.646 267.413 190.067C264.826 198.854 261.661 209.554 261.661 209.554" fill="url(&quot;#paint11_linear_580_4640&quot;)"></path>
<path d="M290.968 221.306L292.956 207.209L294.815 194.006L295.263 190.694L295.558 188.239L295.739 186.039L295.867 183.09L295.859 180.918L295.775 179.174L295.604 177.413L295.276 175.324L294.809 173.453L294.119 171.636L293.408 170.34L292.631 169.36L292.04 168.714L293.532 169.478L295.175 170.667L296.478 172.034L297.365 173.283L298.125 174.704L298.789 176.499L299.317 178.58L299.614 180.465L299.849 183.275L299.886 187.163L299.728 191.323L299.204 197.695L298.492 203.814L296.337 218.124L296.077 219.057L295.585 219.73L294.948 220.225L294.488 220.46L293.191 220.92L290.968 221.306Z" fill="#4862BD"></path>
<path d="M292.04 168.714C296.668 171.92 296.556 182.73 295.768 189.495C295.523 191.575 293.882 203.197 292.296 214.277L289.722 216.286L290.034 217.607" stroke="#FFFFFF" stroke-width="0.5px" stroke-miterlimit="10" fill="none"></path>
<path d="M280.343 208.936C290.067 211.478 297.277 216.042 296.448 219.13C295.618 222.217 287.063 222.659 277.339 220.116C267.615 217.574 260.405 213.01 261.235 209.923C262.064 206.835 270.619 206.394 280.343 208.936Z" fill="black"></path>
<path d="M289.243 236.1L290.324 230.505C291.348 225.193 286.704 218.987 279.702 216.265L276.564 215.04C270.061 212.516 263.469 213.756 260.894 217.984L257.06 224.301L289.243 236.1Z" fill="#566FC6"></path>
<path d="M11.1074 56.6926L14.3108 61.4059C17.3533 65.8786 25.0273 66.9654 31.8961 63.9225L34.9788 62.5627C41.3545 59.7343 45.126 54.1872 43.9457 49.3791L42.1737 42.2059L11.1074 56.6926Z" fill="#566FC6"></path>
<ellipse rx="17.1259" ry="3.8759" transform="matrix(-0.930395 -0.366558 0.300681 -0.953725 273.29 230.234)" fill="black"></ellipse>
<ellipse rx="17.1259" ry="3.8759" transform="matrix(0.916141 -0.400856 0.463864 0.885907 26.5195 49.5239)" fill="black"></ellipse>
<path d="M265.837 248.566C263.695 247.138 266.497 231.312 267.265 229.286C267.465 228.749 270.418 229.808 270.942 230.002L277.006 232.188C278.69 232.857 279.674 233.723 279.404 234.285C276.733 239.456 267.979 249.994 265.837 248.566Z" fill="#F7931A"></path>
<path d="M18.7834 31.3083C21.3067 30.7975 30.547 43.9484 31.4412 45.9214C31.6809 46.4419 28.8466 47.7885 28.3402 48.0226L22.5121 50.7785C20.8508 51.5007 19.5424 51.5866 19.3349 50.9993C17.5533 45.458 16.26 31.8192 18.7834 31.3083Z" fill="#F7931A"></path>
<path d="M250.82 242.195C251.076 242.541 251.555 242.593 251.899 242.326L262.09 234.222C262.419 233.964 262.494 233.465 262.248 233.134L257.268 230.001C256.035 229.429 254.412 228.573 252.984 230.715C250.396 235.537 250.127 237.142 250.82 242.195Z" fill="#F7931A"></path>
<path d="M33.8928 25.1604C33.4664 25.0975 33.0923 25.3997 33.0389 25.8329L31.5939 38.7725C31.5442 39.188 31.8446 39.5928 32.2535 39.6515L37.9871 38.3325C39.2621 37.8614 41.0143 37.3155 40.5034 34.7921C38.9112 29.5566 37.9633 28.2338 33.8928 25.1604Z" fill="#F7931A"></path>
<path d="M277.964 253.805C277.535 253.746 277.241 253.35 277.289 252.918L278.879 240.057C278.927 239.643 279.313 239.338 279.724 239.397L284.998 242.279C286.129 243.092 287.708 244.11 286.627 246.395C283.865 250.986 282.637 251.992 277.964 253.805Z" fill="#F7931A"></path>
<path d="M6.51457 36.2084C6.85965 35.946 7.34786 36.0171 7.61995 36.356L15.6136 46.5552C15.8732 46.8811 15.8172 47.3698 15.4854 47.6202L9.72224 49.3245C8.3484 49.5536 6.5131 49.954 5.65634 47.5757C4.35028 42.3797 4.50364 40.799 6.51457 36.2084Z" fill="#F7931A"></path>
<path d="M243.49 88.9743C233.703 91.4688 230.664 100.385 233.703 114.319C235.604 122.973 238.702 129.704 242.872 135.059L255.126 109.321C259.69 98.6833 256.554 86.4703 243.49 88.9743Z" fill="url(&quot;#paint12_linear_580_4640&quot;)"></path>
<path d="M117.509 88.9743C127.296 91.4688 130.335 100.385 127.296 114.319C125.395 122.973 122.298 129.704 118.127 135.059L105.874 109.321C101.309 98.6833 104.446 86.4703 117.509 88.9743Z" fill="url(&quot;#paint13_linear_580_4640&quot;)"></path>
<mask id="mask3_580_4640" style="mask-type:alpha" maskUnits="userSpaceOnUse" x="227" y="37" width="16" height="37" fill="none">
<path d="M232.612 37.9535C232.788 37.9121 232.964 37.9617 233.118 38.0538L239.948 42.119C241.765 43.2009 242.879 45.1597 242.879 47.2748V64.2553C242.879 66.3704 241.765 68.3292 239.948 69.411L233.118 73.4763C232.964 73.5684 232.788 73.618 232.612 73.5766C231.48 73.3093 227.169 71.2734 227.169 55.765C227.169 40.2567 231.48 38.2208 232.612 37.9535Z" fill="url(&quot;#paint14_linear_580_4640&quot;)"></path>
</mask>
<g mask="url(#mask3_580_4640)" fill="none">
<path d="M232.612 37.9535C232.788 37.9121 232.964 37.9617 233.118 38.0538L239.948 42.119C241.765 43.2009 242.879 45.1597 242.879 47.2748V64.2553C242.879 66.3704 241.765 68.3292 239.948 69.411L233.118 73.4763C232.964 73.5684 232.788 73.618 232.612 73.5766C231.48 73.3093 227.169 71.2734 227.169 55.765C227.169 40.2567 231.48 38.2208 232.612 37.9535Z" fill="url(&quot;#paint15_linear_580_4640&quot;)"></path>
<path d="M237.275 38.2686L244.104 42.3339C245.846 43.3706 246.913 45.2478 246.913 47.2748V64.2553C246.913 66.2822 245.846 68.1595 244.104 69.1962L237.275 73.2615C237.154 73.3331 237.046 73.3549 236.954 73.3333C236.469 73.2187 235.165 72.6977 233.975 70.2759C232.78 67.8437 231.704 63.501 231.704 55.765C231.704 48.029 232.78 43.6864 233.975 41.2541C235.165 38.8324 236.469 38.3113 236.954 38.1968C237.046 38.1752 237.154 38.197 237.275 38.2686Z" stroke="#000000" stroke-opacity="0.29" stroke-width="0.5px" fill="none"></path>
</g>
<mask id="mask4_580_4640" style="mask-type:alpha" maskUnits="userSpaceOnUse" x="123" y="0" width="115" height="90" fill="none">
<path d="M237.273 35.8611C237.273 16.4917 211.699 0.781006 180.147 0.781006C148.595 0.781006 123.021 16.4917 123.021 35.8611V40.3806V79.1962C123.021 84.7918 127.92 89.3267 133.964 89.3267H226.313C232.358 89.3267 237.257 84.7918 237.257 79.1962V40.3806V35.8611H237.273Z" fill="url(&quot;#paint16_linear_580_4640&quot;)"></path>
</mask>
<g mask="url(#mask4_580_4640)" fill="none">
<path d="M237.273 35.8611C237.273 16.4917 211.699 0.781006 180.147 0.781006C148.595 0.781006 123.021 16.4917 123.021 35.8611V40.3806V79.1962C123.021 84.7918 127.92 89.3267 133.964 89.3267H226.313C232.358 89.3267 237.257 84.7918 237.257 79.1962V40.3806V35.8611H237.273Z" fill="url(&quot;#paint17_linear_580_4640&quot;)"></path>
<path d="M219.259 48.0428C219.259 39.2953 200.078 32.2001 176.414 32.2001C152.75 32.2001 133.57 39.2953 133.57 48.0428V50.0839V67.6136C133.57 70.1406 137.244 72.1887 141.777 72.1887H211.039C215.572 72.1887 219.246 70.1406 219.246 67.6136V50.0839V48.0428H219.259Z" fill="url(&quot;#paint18_linear_580_4640&quot;)"></path>
<path d="M154.395 4.67163L167.675 29.5759C167.675 29.5759 170.144 31.9323 173.197 32.0863C176.25 32.2403 179.72 32.0863 179.72 32.0863C179.72 32.0863 182.773 30.885 183.758 29.7299C184.742 28.5748 198.189 4.67163 198.189 4.67163" stroke="#FFFFFF" stroke-width="0.5px" stroke-miterlimit="10" fill="none"></path>
<path d="M148.728 5.98938L165.397 35.481C165.397 35.481 168.507 38.274 172.341 38.4602C176.175 38.6464 180.52 38.4602 180.52 38.4602C180.52 38.4602 184.354 37.0279 185.604 35.6672C186.855 34.3064 203.738 5.98938 203.738 5.98938" stroke="#FFFFFF" stroke-width="0.5px" stroke-miterlimit="10" fill="none"></path>
<path d="M123.206 65.428L125.754 58.6157L125.877 20.775L124.742 23.6174L124.464 24.6496L124.071 26.3487L123.677 28.413L123.43 30.1121L123.206 32.2241L123.036 35.2253L123.021 66.476L123.206 65.428Z" fill="#AEC0FF"></path>
<path d="M239.103 64.8428L234.071 58.0493L233.827 20.313L236.068 23.1317L236.617 24.1769L237.395 25.8713L238.173 27.9299L238.661 29.6243L239.103 31.7305L239.438 34.7076L239.469 65.888L239.103 64.8428Z" fill="#4862BD"></path>
</g>
<path d="M153.721 66.5098C159.999 66.5098 165.089 61.42 165.089 55.1415C165.089 48.863 159.999 43.7732 153.721 43.7732C147.442 43.7732 142.352 48.863 142.352 55.1415C142.352 61.42 147.442 66.5098 153.721 66.5098Z" fill="#2A2A2A"></path>
<path d="M199.093 66.5098C205.371 66.5098 210.461 61.42 210.461 55.1415C210.461 48.863 205.371 43.7732 199.093 43.7732C192.814 43.7732 187.724 48.863 187.724 55.1415C187.724 61.42 192.814 66.5098 199.093 66.5098Z" fill="#2A2A2A"></path>
<path d="M194.211 50.6146C192.429 50.6146 190.984 52.0591 190.984 53.841C190.984 55.6229 192.429 57.0674 194.211 57.0674C195.993 57.0674 197.437 55.6229 197.437 53.841C197.437 52.0591 195.993 50.6146 194.211 50.6146Z" fill="#FFFFFF"></path>
<path d="M148.467 50.6146C146.685 50.6146 145.241 52.0591 145.241 53.841C145.241 55.6229 146.685 57.0674 148.467 57.0674C150.249 57.0674 151.694 55.6229 151.694 53.841C151.694 52.0591 150.249 50.6146 148.467 50.6146Z" fill="#FFFFFF"></path>
<path d="M153.603 47.8106C152.828 47.8106 152.201 48.4383 152.201 49.2126C152.201 49.9869 152.828 50.6146 153.603 50.6146C154.377 50.6146 155.005 49.9869 155.005 49.2126C155.005 48.4383 154.377 47.8106 153.603 47.8106Z" fill="#FFFFFF"></path>
<path d="M198.991 47.8106C198.217 47.8106 197.589 48.4383 197.589 49.2126C197.589 49.9869 198.217 50.6146 198.991 50.6146C199.766 50.6146 200.393 49.9869 200.393 49.2126C200.393 48.4383 199.766 47.8106 198.991 47.8106Z" fill="#FFFFFF"></path>
<path d="M211.011 283.234C213.691 276.576 223.104 276.543 225.831 283.181L248.446 338.21C250.609 343.475 246.738 349.251 241.046 349.251H196.276C190.609 349.251 186.739 343.52 188.855 338.263L211.011 283.234Z" fill="url(&quot;#paint19_linear_580_4640&quot;)"></path>
<path d="M149.284 283.234C146.603 276.576 137.191 276.543 134.463 283.181L111.849 338.21C109.685 343.475 113.556 349.251 119.248 349.251H164.018C169.685 349.251 173.556 343.52 171.439 338.263L149.284 283.234Z" fill="url(&quot;#paint20_linear_580_4640&quot;)"></path>
<circle r="11.4253" transform="matrix(1.19249e-08 1 1 -1.19249e-08 218.707 259.277)" fill="url(&quot;#paint21_radial_580_4640&quot;)"></circle>
<circle cx="141.587" cy="259.277" r="11.4253" fill="url(&quot;#paint22_radial_580_4640&quot;)"></circle>
<path d="M243.701 349.251H202.998C204.589 342.785 209.918 327.549 218.509 318.335C226.037 310.259 239.309 329.22 247.16 343.552C248.583 346.15 246.663 349.251 243.701 349.251Z" fill="#F7931A"></path>
<path d="M116.594 349.251H157.297C155.706 342.785 150.376 327.549 141.786 318.335C134.257 310.259 120.985 329.22 113.134 343.552C111.711 346.15 113.631 349.251 116.594 349.251Z" fill="#F7931A"></path>
<path d="M252.242 349.251H207.282C208.749 343.347 213.662 329.436 221.582 321.023C228.463 313.713 246.564 330.669 255.4 343.713C257.066 346.171 255.211 349.251 252.242 349.251Z" fill="url(&quot;#paint23_linear_580_4640&quot;)"></path>
<path d="M108.052 349.251H153.012C151.546 343.347 146.633 329.436 138.713 321.023C131.831 313.713 113.73 330.669 104.894 343.713C103.229 346.171 105.083 349.251 108.052 349.251Z" fill="url(&quot;#paint24_linear_580_4640&quot;)"></path>
<path d="M183.872 135.048L188.779 130.31L190.305 131.783C190.556 132.026 190.962 132.101 191.29 131.97C191.638 131.839 191.85 131.522 191.85 131.149V121.877C191.85 121.392 191.445 121 190.942 121H181.341C180.974 121 180.646 121.205 180.491 121.541C180.356 121.877 180.433 122.25 180.684 122.493L182.848 124.582C183.196 124.918 183.775 124.918 184.142 124.582C184.49 124.246 184.49 123.687 184.142 123.332L183.524 122.735H190.034V129.004L189.416 128.407C189.069 128.071 188.489 128.071 188.122 128.407L182.577 133.761C182.23 134.097 182.23 134.657 182.577 135.011C182.751 135.179 182.983 135.272 183.215 135.272C183.466 135.31 183.698 135.235 183.872 135.048Z" fill="#F9943C"></path>
<path d="M180.181 127.949L178.44 126.037L176.698 124.124C176.541 123.952 176.315 123.856 176.106 123.856C175.897 123.856 175.671 123.952 175.514 124.124L173.284 126.572L171.055 129.021L170.358 128.255L169.662 127.49C169.54 127.356 169.383 127.337 169.244 127.395C169.104 127.452 169 127.586 169 127.777V136.27C169 136.384 169.052 136.499 169.122 136.576C169.192 136.652 169.296 136.71 169.401 136.71H177.134C177.308 136.71 177.43 136.595 177.482 136.442C177.534 136.289 177.517 136.117 177.395 135.983L176.559 135.065L175.723 134.147L177.952 131.698L180.181 129.25C180.338 129.078 180.425 128.829 180.425 128.6C180.425 128.351 180.338 128.122 180.181 127.949Z" fill="#FFFFFF"></path>
<defs>
<linearGradient id="paint0_linear_580_4640" x1="127.305" y1="57.1931" x2="115.388" y2="55.8028" gradientUnits="userSpaceOnUse">
<stop stop-color="#F18F1A"></stop>
<stop offset="1" stop-color="#FAB664"></stop>
</linearGradient>
<linearGradient id="paint1_linear_580_4640" x1="203.678" y1="214.173" x2="236.627" y2="214.173" gradientUnits="userSpaceOnUse">
<stop stop-color="#B7C7FD"></stop>
<stop offset="1" stop-color="#6D86DC"></stop>
</linearGradient>
<linearGradient id="paint2_linear_580_4640" x1="156.617" y1="214.173" x2="123.667" y2="214.173" gradientUnits="userSpaceOnUse">
<stop stop-color="#6D86DC"></stop>
<stop offset="1" stop-color="#B7C7FD"></stop>
</linearGradient>
<linearGradient id="paint3_linear_580_4640" x1="93.7072" y1="159.614" x2="123.226" y2="92.1822" gradientUnits="userSpaceOnUse">
<stop stop-color="#6B8AF5"></stop>
<stop offset="1" stop-color="#ABBEFE"></stop>
</linearGradient>
<linearGradient id="paint4_linear_580_4640" x1="115.88" y1="145.486" x2="247.271" y2="145.486" gradientUnits="userSpaceOnUse">
<stop stop-color="#BCCBFF"></stop>
<stop offset="1" stop-color="#5C77D5"></stop>
</linearGradient>
<linearGradient id="paint5_linear_580_4640" x1="115.88" y1="145.486" x2="247.271" y2="145.486" gradientUnits="userSpaceOnUse">
<stop stop-color="#BCCBFF"></stop>
<stop offset="1" stop-color="#5C77D5"></stop>
</linearGradient>
<linearGradient id="paint6_linear_580_4640" x1="140.159" y1="127.887" x2="221.564" y2="127.887" gradientUnits="userSpaceOnUse">
<stop stop-color="#47579D"></stop>
<stop offset="1" stop-color="#24378A"></stop>
</linearGradient>
<radialGradient id="paint7_radial_580_4640" cx="0" cy="0" r="1" gradientUnits="userSpaceOnUse" gradientTransform="translate(51.0132 102.214) rotate(65.3764) scale(18.8522)">
<stop stop-color="#ACBFFE"></stop>
<stop offset="1" stop-color="#082382"></stop>
</radialGradient>
<linearGradient id="paint8_linear_580_4640" x1="49.2565" y1="103.564" x2="65.1078" y2="73.1762" gradientUnits="userSpaceOnUse">
<stop stop-color="#6B8AF5"></stop>
<stop offset="1" stop-color="#B2C3FF"></stop>
</linearGradient>
<linearGradient id="paint9_linear_580_4640" x1="216.004" y1="145.38" x2="273.095" y2="90.015" gradientUnits="userSpaceOnUse">
<stop stop-color="#6B8AF5"></stop>
<stop offset="1" stop-color="#ABBEFE"></stop>
</linearGradient>
<radialGradient id="paint10_radial_580_4640" cx="0" cy="0" r="1" gradientUnits="userSpaceOnUse" gradientTransform="translate(10.8006 9.25769) rotate(65.3764) scale(20.3675)">
<stop stop-color="#ACBFFE"></stop>
<stop offset="1" stop-color="#082382"></stop>
</radialGradient>
<linearGradient id="paint11_linear_580_4640" x1="289.971" y1="168.992" x2="256.219" y2="182.968" gradientUnits="userSpaceOnUse">
<stop stop-color="#6B8AF5"></stop>
<stop offset="1" stop-color="#B2C3FF"></stop>
</linearGradient>
<linearGradient id="paint12_linear_580_4640" x1="252.677" y1="88.5868" x2="230.683" y2="129.735" gradientUnits="userSpaceOnUse">
<stop stop-color="#4F60AA"></stop>
<stop offset="1" stop-color="#293771"></stop>
</linearGradient>
<linearGradient id="paint13_linear_580_4640" x1="108.323" y1="88.5868" x2="130.316" y2="129.735" gradientUnits="userSpaceOnUse">
<stop stop-color="#4F60AA"></stop>
<stop offset="1" stop-color="#293771"></stop>
</linearGradient>
<linearGradient id="paint14_linear_580_4640" x1="232.882" y1="54.3369" x2="244.8" y2="55.7273" gradientUnits="userSpaceOnUse">
<stop stop-color="#F18F1A"></stop>
<stop offset="1" stop-color="#BC7014"></stop>
</linearGradient>
<linearGradient id="paint15_linear_580_4640" x1="232.882" y1="54.3369" x2="244.8" y2="55.7273" gradientUnits="userSpaceOnUse">
<stop stop-color="#F18F1A"></stop>
<stop offset="1" stop-color="#BC7014"></stop>
</linearGradient>
<linearGradient id="paint16_linear_580_4640" x1="236.893" y1="72.566" x2="120.36" y2="73.3244" gradientUnits="userSpaceOnUse">
<stop stop-color="#6B87ED"></stop>
<stop offset="1" stop-color="#C7D3FF"></stop>
</linearGradient>
<linearGradient id="paint17_linear_580_4640" x1="236.893" y1="72.566" x2="120.36" y2="73.3244" gradientUnits="userSpaceOnUse">
<stop stop-color="#6B87ED"></stop>
<stop offset="1" stop-color="#C7D3FF"></stop>
</linearGradient>
<linearGradient id="paint18_linear_580_4640" x1="218.974" y1="64.6193" x2="131.581" y2="65.5638" gradientUnits="userSpaceOnUse">
<stop offset="0.311315" stop-color="#4862BD"></stop>
<stop offset="1" stop-color="#AEBCEF"></stop>
</linearGradient>
<linearGradient id="paint19_linear_580_4640" x1="193.855" y1="325.009" x2="247.568" y2="325.009" gradientUnits="userSpaceOnUse">
<stop stop-color="#B7C7FD"></stop>
<stop offset="1" stop-color="#6D86DC"></stop>
</linearGradient>
<linearGradient id="paint20_linear_580_4640" x1="166.439" y1="325.009" x2="112.726" y2="325.009" gradientUnits="userSpaceOnUse">
<stop stop-color="#6D86DC"></stop>
<stop offset="1" stop-color="#B7C7FD"></stop>
</linearGradient>
<radialGradient id="paint21_radial_580_4640" cx="0" cy="0" r="1" gradientUnits="userSpaceOnUse" gradientTransform="translate(8.88631 7.61683) rotate(65.3764) scale(16.7575)">
<stop stop-color="#ACBFFE"></stop>
<stop offset="1" stop-color="#082382"></stop>
</radialGradient>
<radialGradient id="paint22_radial_580_4640" cx="0" cy="0" r="1" gradientUnits="userSpaceOnUse" gradientTransform="translate(139.048 255.469) rotate(65.3764) scale(16.7575)">
<stop stop-color="#ACBFFE"></stop>
<stop offset="1" stop-color="#082382"></stop>
</radialGradient>
<linearGradient id="paint23_linear_580_4640" x1="229.006" y1="319.26" x2="250.33" y2="349.533" gradientUnits="userSpaceOnUse">
<stop stop-color="#627DD8"></stop>
<stop offset="1" stop-color="#1A2D70"></stop>
</linearGradient>
<linearGradient id="paint24_linear_580_4640" x1="131.288" y1="319.26" x2="109.965" y2="349.533" gradientUnits="userSpaceOnUse">
<stop stop-color="#1A2D70"></stop>
<stop offset="1" stop-color="#627DD8"></stop>
</linearGradient>
<linearGradient id="paint0_linear_580_4640" x1="127.305" y1="57.1931" x2="115.388" y2="55.8028" gradientUnits="userSpaceOnUse">
<stop stop-color="#F18F1A"></stop>
<stop offset="1" stop-color="#FAB664"></stop>
</linearGradient><linearGradient id="paint1_linear_580_4640" x1="203.678" y1="214.173" x2="236.627" y2="214.173" gradientUnits="userSpaceOnUse">
<stop stop-color="#B7C7FD"></stop>
<stop offset="1" stop-color="#6D86DC"></stop>
</linearGradient><linearGradient id="paint2_linear_580_4640" x1="156.617" y1="214.173" x2="123.667" y2="214.173" gradientUnits="userSpaceOnUse">
<stop stop-color="#6D86DC"></stop>
<stop offset="1" stop-color="#B7C7FD"></stop>
</linearGradient><linearGradient id="paint3_linear_580_4640" x1="93.7072" y1="159.614" x2="123.226" y2="92.1822" gradientUnits="userSpaceOnUse">
<stop stop-color="#6B8AF5"></stop>
<stop offset="1" stop-color="#ABBEFE"></stop>
</linearGradient><linearGradient id="paint4_linear_580_4640" x1="115.88" y1="145.486" x2="247.271" y2="145.486" gradientUnits="userSpaceOnUse">
<stop stop-color="#BCCBFF"></stop>
<stop offset="1" stop-color="#5C77D5"></stop>
</linearGradient><linearGradient id="paint5_linear_580_4640" x1="115.88" y1="145.486" x2="247.271" y2="145.486" gradientUnits="userSpaceOnUse">
<stop stop-color="#BCCBFF"></stop>
<stop offset="1" stop-color="#5C77D5"></stop>
</linearGradient><linearGradient id="paint6_linear_580_4640" x1="140.159" y1="127.887" x2="221.564" y2="127.887" gradientUnits="userSpaceOnUse">
<stop stop-color="#47579D"></stop>
<stop offset="1" stop-color="#24378A"></stop>
</linearGradient><radialGradient id="paint7_radial_580_4640" cx="0" cy="0" r="1" gradientUnits="userSpaceOnUse" gradientTransform="translate(51.0132 102.214) rotate(65.3764) scale(18.8522)">
<stop stop-color="#ACBFFE"></stop>
<stop offset="1" stop-color="#082382"></stop>
</radialGradient><linearGradient id="paint8_linear_580_4640" x1="49.2565" y1="103.564" x2="65.1078" y2="73.1762" gradientUnits="userSpaceOnUse">
<stop stop-color="#6B8AF5"></stop>
<stop offset="1" stop-color="#B2C3FF"></stop>
</linearGradient><linearGradient id="paint9_linear_580_4640" x1="216.004" y1="145.38" x2="273.095" y2="90.015" gradientUnits="userSpaceOnUse">
<stop stop-color="#6B8AF5"></stop>
<stop offset="1" stop-color="#ABBEFE"></stop>
</linearGradient><radialGradient id="paint10_radial_580_4640" cx="0" cy="0" r="1" gradientUnits="userSpaceOnUse" gradientTransform="translate(10.8006 9.25769) rotate(65.3764) scale(20.3675)">
<stop stop-color="#ACBFFE"></stop>
<stop offset="1" stop-color="#082382"></stop>
</radialGradient><linearGradient id="paint11_linear_580_4640" x1="289.971" y1="168.992" x2="256.219" y2="182.968" gradientUnits="userSpaceOnUse">
<stop stop-color="#6B8AF5"></stop>
<stop offset="1" stop-color="#B2C3FF"></stop>
</linearGradient><linearGradient id="paint12_linear_580_4640" x1="252.677" y1="88.5868" x2="230.683" y2="129.735" gradientUnits="userSpaceOnUse">
<stop stop-color="#4F60AA"></stop>
<stop offset="1" stop-color="#293771"></stop>
</linearGradient><linearGradient id="paint13_linear_580_4640" x1="108.323" y1="88.5868" x2="130.316" y2="129.735" gradientUnits="userSpaceOnUse">
<stop stop-color="#4F60AA"></stop>
<stop offset="1" stop-color="#293771"></stop>
</linearGradient><linearGradient id="paint14_linear_580_4640" x1="232.882" y1="54.3369" x2="244.8" y2="55.7273" gradientUnits="userSpaceOnUse">
<stop stop-color="#F18F1A"></stop>
<stop offset="1" stop-color="#BC7014"></stop>
</linearGradient><linearGradient id="paint15_linear_580_4640" x1="232.882" y1="54.3369" x2="244.8" y2="55.7273" gradientUnits="userSpaceOnUse">
<stop stop-color="#F18F1A"></stop>
<stop offset="1" stop-color="#BC7014"></stop>
</linearGradient><linearGradient id="paint16_linear_580_4640" x1="236.893" y1="72.566" x2="120.36" y2="73.3244" gradientUnits="userSpaceOnUse">
<stop stop-color="#6B87ED"></stop>
<stop offset="1" stop-color="#C7D3FF"></stop>
</linearGradient><linearGradient id="paint17_linear_580_4640" x1="236.893" y1="72.566" x2="120.36" y2="73.3244" gradientUnits="userSpaceOnUse">
<stop stop-color="#6B87ED"></stop>
<stop offset="1" stop-color="#C7D3FF"></stop>
</linearGradient><linearGradient id="paint18_linear_580_4640" x1="218.974" y1="64.6193" x2="131.581" y2="65.5638" gradientUnits="userSpaceOnUse">
<stop offset="0.311315" stop-color="#4862BD"></stop>
<stop offset="1" stop-color="#AEBCEF"></stop>
</linearGradient><linearGradient id="paint19_linear_580_4640" x1="193.855" y1="325.009" x2="247.568" y2="325.009" gradientUnits="userSpaceOnUse">
<stop stop-color="#B7C7FD"></stop>
<stop offset="1" stop-color="#6D86DC"></stop>
</linearGradient><linearGradient id="paint20_linear_580_4640" x1="166.439" y1="325.009" x2="112.726" y2="325.009" gradientUnits="userSpaceOnUse">
<stop stop-color="#6D86DC"></stop>
<stop offset="1" stop-color="#B7C7FD"></stop>
</linearGradient><radialGradient id="paint21_radial_580_4640" cx="0" cy="0" r="1" gradientUnits="userSpaceOnUse" gradientTransform="translate(8.88631 7.61683) rotate(65.3764) scale(16.7575)">
<stop stop-color="#ACBFFE"></stop>
<stop offset="1" stop-color="#082382"></stop>
</radialGradient><radialGradient id="paint22_radial_580_4640" cx="0" cy="0" r="1" gradientUnits="userSpaceOnUse" gradientTransform="translate(139.048 255.469) rotate(65.3764) scale(16.7575)">
<stop stop-color="#ACBFFE"></stop>
<stop offset="1" stop-color="#082382"></stop>
</radialGradient><linearGradient id="paint23_linear_580_4640" x1="229.006" y1="319.26" x2="250.33" y2="349.533" gradientUnits="userSpaceOnUse">
<stop stop-color="#627DD8"></stop>
<stop offset="1" stop-color="#1A2D70"></stop>
</linearGradient><linearGradient id="paint24_linear_580_4640" x1="131.288" y1="319.26" x2="109.965" y2="349.533" gradientUnits="userSpaceOnUse">
<stop stop-color="#1A2D70"></stop>
<stop offset="1" stop-color="#627DD8"></stop>
</linearGradient></defs>
</svg>