<svg xmlns:xlink="http://www.w3.org/1999/xlink" width="1440" height="840" viewBox="0 0 1440 840" fill="none" xmlns="http://www.w3.org/2000/svg">
<path d="M272 114.788L273.38 121.408L280 122.788L273.38 124.169L272 130.788L270.62 124.169L264 122.788L270.62 121.408L272 114.788Z" fill="#FFFFFF"></path>
<path d="M1375 432L1376.38 438.62L1383 440L1376.38 441.38L1375 448L1373.62 441.38L1367 440L1373.62 438.62L1375 432Z" fill="#FFFFFF"></path>
<path d="M224 629L225.38 635.62L232 637L225.38 638.38L224 645L222.62 638.38L216 637L222.62 635.62L224 629Z" fill="#FFFFFF"></path>
<path d="M55 470L55.8627 474.137L60 475L55.8627 475.863L55 480L54.1373 475.863L50 475L54.1373 474.137L55 470Z" fill="#FFFFFF"></path>
<path d="M1182 304L1182.86 308.137L1187 309L1182.86 309.863L1182 314L1181.14 309.863L1177 309L1181.14 308.137L1182 304Z" fill="#FFFFFF"></path>
<path d="M1387 640L1387.86 644.137L1392 645L1387.86 645.863L1387 650L1386.14 645.863L1382 645L1386.14 644.137L1387 640Z" fill="#FFFFFF"></path>
<path d="M456 38L456.863 42.1373L461 43L456.863 43.8627L456 48L455.137 43.8627L451 43L455.137 42.1373L456 38Z" fill="#FFFFFF"></path>
<path d="M1296 203L1296.86 207.137L1301 208L1296.86 208.863L1296 213L1295.14 208.863L1291 208L1295.14 207.137L1296 203Z" fill="#FFFFFF"></path>
<path d="M1211 822L1211.86 826.137L1216 827L1211.86 827.863L1211 832L1210.14 827.863L1206 827L1210.14 826.137L1211 822Z" fill="#FFFFFF"></path>
<path d="M55 280L55.8627 284.137L60 285L55.8627 285.863L55 290L54.1373 285.863L50 285L54.1373 284.137L55 280Z" fill="#FFFFFF"></path>
<circle cx="73" cy="807" r="1" fill="#FFFFFF"></circle>
<circle cx="418" cy="422" r="1" fill="#FFFFFF"></circle>
<circle cx="161" cy="273" r="1" fill="#FFFFFF"></circle>
<circle cx="417" cy="140.737" r="1" fill="#FFFFFF"></circle>
<circle cx="987" cy="43" r="1" fill="#FFFFFF"></circle>
<circle cx="737" cy="2" r="1" fill="#FFFFFF"></circle>
<circle cx="1345" cy="43" r="1" fill="#FFFFFF"></circle>
<circle cx="989" cy="199" r="1" fill="#FFFFFF"></circle>
<circle cx="143" cy="680" r="1" fill="#FFFFFF"></circle>
<circle cx="359" cy="285" r="1" fill="#FFFFFF"></circle>
<circle cx="193" cy="177" r="1" fill="#FFFFFF"></circle>
<circle cx="541" cy="268" r="1" fill="#FFFFFF"></circle>
<circle cx="624" cy="455" r="1" fill="#FFFFFF"></circle>
<circle cx="842" cy="269" r="1" fill="#FFFFFF"></circle>
<circle cx="908" cy="439" r="1" fill="#FFFFFF"></circle>
<circle cx="1017" cy="283" r="1" fill="#FFFFFF"></circle>
<circle cx="1291" cy="339" r="1" fill="#FFFFFF"></circle>
<circle cx="1276.68" cy="511" r="1" fill="#FFFFFF"></circle>
<circle cx="1163.22" cy="621" r="1" fill="#FFFFFF"></circle>
<circle cx="987" cy="583" r="1" fill="#FFFFFF"></circle>
<circle cx="917" cy="695" r="1" fill="#FFFFFF"></circle>
<circle cx="334" cy="363" r="1" fill="#FFFFFF"></circle>
<circle cx="42.7534" cy="620" r="1" fill="#FFFFFF"></circle>
<circle cx="1382" cy="280" r="1" fill="#FFFFFF"></circle>
<circle cx="1060" cy="420" r="1" fill="#FFFFFF"></circle>
<circle cx="733" cy="584" r="1" fill="#FFFFFF"></circle>
<circle cx="709" cy="682" r="1" fill="#FFFFFF"></circle>
<circle cx="522" cy="589" r="1" fill="#FFFFFF"></circle>
<circle cx="1197" cy="444.898" r="1" fill="#FFFFFF"></circle>
<circle cx="1395" cy="520" r="1" fill="#FFFFFF"></circle>
<circle cx="1109" cy="337" r="1" fill="#FFFFFF"></circle>
<circle cx="239" cy="739" r="1" fill="#FFFFFF"></circle>
<circle cx="1368" cy="813" r="1" fill="#FFFFFF"></circle>
</svg>