<svg xmlns:xlink="http://www.w3.org/1999/xlink" width="393" height="361" viewBox="0 0 393 361" fill="none" xmlns="http://www.w3.org/2000/svg">
<path class="hlfill" d="M211 128.241C211 129.017 210.155 129.497 209.489 129.1L206.931 127.578C205.114 126.496 204 124.537 204 122.422L204 112.578C204 110.463 205.114 108.504 206.931 107.422L209.489 105.9C210.155 105.503 211 105.983 211 106.759L211 128.241Z" fill="#F7931A"></path>
<path d="M81.9829 254.966C92.4669 254.966 100.966 246.467 100.966 235.983C100.966 225.499 92.4669 217 81.9829 217C71.4989 217 63 225.499 63 235.983C63 246.467 71.4989 254.966 81.9829 254.966Z" fill="#1C1C1C" stroke="#6B8AF5" stroke-miterlimit="10"></path>
<path d="M81.9828 250.963C90.0287 250.963 96.5511 244.441 96.5511 236.395C96.5511 228.349 90.0287 221.827 81.9828 221.827C73.937 221.827 67.4146 228.349 67.4146 236.395C67.4146 244.441 73.937 250.963 81.9828 250.963Z" stroke="#6B8AF5" stroke-miterlimit="10" fill="none"></path>
<path d="M99.5433 229.449L95.9528 230.94" stroke="#6B8AF5" stroke-miterlimit="10" fill="none"></path>
<path d="M100.78 236.081H96.8947" stroke="#6B8AF5" stroke-miterlimit="10" fill="none"></path>
<path d="M99.8869 242.124L96.1491 241.055" stroke="#6B8AF5" stroke-miterlimit="10" fill="none"></path>
<path d="M96.3939 247.961L93.2448 245.685" stroke="#6B8AF5" stroke-miterlimit="10" fill="none"></path>
<path d="M91.7441 251.993L89.3504 248.932" stroke="#6B8AF5" stroke-miterlimit="10" fill="none"></path>
<path d="M85.3382 254.642L84.3572 250.875" stroke="#6B8AF5" stroke-miterlimit="10" fill="none"></path>
<path d="M78.7555 254.681L79.3343 250.836" stroke="#6B8AF5" stroke-miterlimit="10" fill="none"></path>
<path d="M72.6335 252.386L74.5759 249.021" stroke="#6B8AF5" stroke-miterlimit="10" fill="none"></path>
<path d="M67.6501 248.03L70.6422 245.548" stroke="#6B8AF5" stroke-miterlimit="10" fill="none"></path>
<path d="M64.4324 242.438L68.0229 240.937" stroke="#6B8AF5" stroke-miterlimit="10" fill="none"></path>
<path d="M63.1471 236.14H67.0319" stroke="#6B8AF5" stroke-miterlimit="10" fill="none"></path>
<path d="M64.3929 229.842L68.062 231.137" stroke="#6B8AF5" stroke-miterlimit="10" fill="none"></path>
<path d="M67.5519 224.034L71.064 226.271" stroke="#6B8AF5" stroke-miterlimit="10" fill="none"></path>
<path d="M72.3491 219.963L74.6839 223.406" stroke="#6B8AF5" stroke-miterlimit="10" fill="none"></path>
<path d="M78.6964 217.647L79.5107 221.729" stroke="#6B8AF5" stroke-miterlimit="10" fill="none"></path>
<path d="M85.4654 217.716L84.1312 221.66" stroke="#6B8AF5" stroke-miterlimit="10" fill="none"></path>
<path d="M91.6264 219.923L88.9776 223.445" stroke="#6B8AF5" stroke-miterlimit="10" fill="none"></path>
<path d="M96.4038 223.946L93.1173 226.869" stroke="#6B8AF5" stroke-miterlimit="10" fill="none"></path>
<path class="hlfill" fill-rule="evenodd" clip-rule="evenodd" d="M88.2573 234.567C88.5561 232.555 87.0352 231.474 84.9556 230.752L85.6302 228.026L83.9831 227.613L83.3264 230.267C82.8934 230.158 82.4487 230.056 82.0067 229.954L82.6682 227.283L81.0221 226.869L80.347 229.594C79.9886 229.512 79.6367 229.43 79.2952 229.345L79.2971 229.336L77.0256 228.765L76.5875 230.537C76.5875 230.537 77.8095 230.819 77.7837 230.837C78.4508 231.004 78.5714 231.449 78.5512 231.802L77.7828 234.907C77.8287 234.918 77.8883 234.935 77.954 234.962L77.8981 234.948L77.898 234.948C77.8599 234.938 77.8203 234.928 77.78 234.918L76.7029 239.268C76.6212 239.472 76.4143 239.779 75.948 239.662C75.9645 239.686 74.7508 239.361 74.7508 239.361L73.9332 241.26L76.0766 241.799C76.3159 241.859 76.5524 241.921 76.7864 241.983L76.7867 241.983C76.9424 242.024 77.0971 242.064 77.2508 242.104L76.5692 244.861L78.2144 245.274L78.8894 242.547C79.3388 242.67 79.7751 242.783 80.202 242.89L79.5293 245.605L81.1764 246.018L81.858 243.266C84.6667 243.802 86.7786 243.586 87.6676 241.027C88.384 238.967 87.632 237.778 86.1542 237.003C87.2304 236.753 88.041 236.04 88.2573 234.567ZM84.4941 239.883C84.0271 241.773 81.0898 240.992 79.7459 240.634L79.7458 240.634C79.6249 240.602 79.5169 240.573 79.4247 240.55L80.3292 236.898C80.4414 236.926 80.5785 236.957 80.7338 236.992L80.7339 236.992C82.1239 237.307 84.9726 237.95 84.4941 239.883ZM81.0129 235.297C82.1334 235.599 84.5775 236.256 85.0032 234.538C85.438 232.78 83.0625 232.251 81.9023 231.992C81.7718 231.963 81.6567 231.937 81.5627 231.914L80.7427 235.226C80.8201 235.246 80.911 235.27 81.0129 235.297Z" fill="#F7931A"></path>
<path d="M165.983 254.966C176.467 254.966 184.966 246.467 184.966 235.983C184.966 225.499 176.467 217 165.983 217C155.499 217 147 225.499 147 235.983C147 246.467 155.499 254.966 165.983 254.966Z" fill="#1C1C1C" stroke="#6B8AF5" stroke-miterlimit="10"></path>
<path d="M165.983 250.953C174.029 250.953 180.551 244.431 180.551 236.385C180.551 228.339 174.029 221.817 165.983 221.817C157.937 221.817 151.415 228.339 151.415 236.385C151.415 244.431 157.937 250.953 165.983 250.953Z" stroke="#6B8AF5" stroke-miterlimit="10" fill="none"></path>
<path d="M183.543 229.449L179.953 230.931" stroke="#6B8AF5" stroke-miterlimit="10" fill="none"></path>
<path d="M184.77 236.081H180.885" stroke="#6B8AF5" stroke-miterlimit="10" fill="none"></path>
<path d="M183.877 242.124L180.149 241.055" stroke="#6B8AF5" stroke-miterlimit="10" fill="none"></path>
<path d="M180.394 247.952L177.245 245.676" stroke="#6B8AF5" stroke-miterlimit="10" fill="none"></path>
<path d="M175.734 251.983L173.35 248.923" stroke="#6B8AF5" stroke-miterlimit="10" fill="none"></path>
<path d="M169.329 254.632L168.347 250.875" stroke="#6B8AF5" stroke-miterlimit="10" fill="none"></path>
<path d="M162.746 254.672L163.325 250.826" stroke="#6B8AF5" stroke-miterlimit="10" fill="none"></path>
<path d="M156.634 252.376L158.576 249.011" stroke="#6B8AF5" stroke-miterlimit="10" fill="none"></path>
<path d="M151.64 248.02L154.642 245.548" stroke="#6B8AF5" stroke-miterlimit="10" fill="none"></path>
<path d="M148.432 242.438L152.013 240.937" stroke="#6B8AF5" stroke-miterlimit="10" fill="none"></path>
<path d="M147.147 236.14H151.032" stroke="#6B8AF5" stroke-miterlimit="10" fill="none"></path>
<path d="M148.393 229.832L152.053 231.127" stroke="#6B8AF5" stroke-miterlimit="10" fill="none"></path>
<path d="M151.542 224.034L155.054 226.261" stroke="#6B8AF5" stroke-miterlimit="10" fill="none"></path>
<path d="M156.349 219.963L158.684 223.406" stroke="#6B8AF5" stroke-miterlimit="10" fill="none"></path>
<path d="M162.696 217.638L163.511 221.719" stroke="#6B8AF5" stroke-miterlimit="10" fill="none"></path>
<path d="M169.466 217.706L168.132 221.65" stroke="#6B8AF5" stroke-miterlimit="10" fill="none"></path>
<path d="M175.626 219.923L172.978 223.436" stroke="#6B8AF5" stroke-miterlimit="10" fill="none"></path>
<path d="M180.404 223.946L177.108 226.869" stroke="#6B8AF5" stroke-miterlimit="10" fill="none"></path>
<path d="M171.676 239.007L164.539 239.489L160.17 233.826L169.808 227.79L171.676 239.007Z" fill="#FFFFFF"></path>
<path d="M171.235 239.995L162.179 244.73L159.726 234.812L164.095 240.474L171.235 239.995Z" fill="#FFFFFF"></path>
<rect x="121" y="146" width="56" height="0.999998" rx="0.499999" transform="rotate(90 121 146)" fill="#FFFFFF"></rect>
<path d="M131.487 255.75L157.5 202.569L183.513 255.75H131.487Z" stroke="#FFFFFF" stroke-width="0.5px" fill="none"></path>
<path d="M66.4868 255.75L92.5 202.569L118.513 255.75H66.4868Z" stroke="#FFFFFF" stroke-width="0.5px" fill="none"></path>
<path d="M128 254H185V254C185 257.314 182.314 260 179 260H134C130.686 260 128 257.314 128 254V254Z" fill="#BCCBFD"></path>
<rect x="85" y="201" width="80" height="1" rx="0.5" fill="#FFFFFF"></rect>
<path d="M63 254H120V254C120 257.314 117.314 260 114 260H69C65.6863 260 63 257.314 63 254V254Z" fill="#BCCBFD"></path>
<rect width="8" height="43" transform="matrix(-1 0 0 1 225 237)" fill="black"></rect>
<path d="M228.853 214.406C227.175 205.774 214.825 205.774 213.147 214.406L208.129 240.224C207.169 245.162 210.951 249.75 215.982 249.75H226.018C231.049 249.75 234.831 245.162 233.871 240.224L228.853 214.406Z" fill="url(&quot;#paint1_linear_216_3968&quot;)"></path>
<circle cx="221" cy="260" r="8" fill="url(&quot;#paint2_radial_216_3968&quot;)"></circle>
<path d="M228.591 282.244C225.911 275.587 216.498 275.553 213.771 282.191L201.537 311.959C199.374 317.224 203.245 323 208.937 323H233.155C238.822 323 242.693 317.269 240.576 312.012L228.591 282.244Z" fill="url(&quot;#paint3_linear_216_3968&quot;)"></path>
<path class="hlfill" d="M205.426 323H232C230.886 318.472 227.154 307.804 221.139 301.352C216.157 296.009 207.583 307.573 202.016 317.33C200.548 319.903 202.464 323 205.426 323Z" fill="#F7931A"></path>
<path d="M199.454 323H229C227.973 318.866 224.533 309.126 218.988 303.235C214.443 298.407 202.911 308.694 196.423 317.541C194.668 319.936 196.485 323 199.454 323Z" fill="url(&quot;#paint4_linear_216_3968&quot;)"></path>
<rect x="271" y="237" width="8" height="43" fill="black"></rect>
<path d="M267.147 214.406C268.825 205.774 281.175 205.774 282.853 214.406L287.871 240.224C288.831 245.162 285.049 249.75 280.018 249.75H269.982C264.951 249.75 261.169 245.162 262.129 240.224L267.147 214.406Z" fill="url(&quot;#paint5_linear_216_3968&quot;)"></path>
<circle r="8" transform="matrix(1.19249e-08 1 1 -1.19249e-08 275 260)" fill="url(&quot;#paint6_radial_216_3968&quot;)"></circle>
<path d="M267.409 282.244C270.089 275.587 279.502 275.553 282.229 282.191L294.463 311.959C296.626 317.224 292.755 323 287.063 323H262.845C257.178 323 253.307 317.269 255.424 312.012L267.409 282.244Z" fill="url(&quot;#paint7_linear_216_3968&quot;)"></path>
<path class="hlfill" d="M290.574 323H264C265.114 318.472 268.846 307.804 274.861 301.352C279.843 296.009 288.417 307.573 293.984 317.33C295.452 319.903 293.536 323 290.574 323Z" fill="#F7931A"></path>
<path d="M296.546 323H267C268.027 318.866 271.467 309.126 277.012 303.235C281.557 298.407 293.089 308.694 299.577 317.541C301.332 319.936 299.515 323 296.546 323Z" fill="url(&quot;#paint8_linear_216_3968&quot;)"></path>
<path d="M183.583 161.305L164.86 175.061C163.602 175.995 164.157 178.795 166.054 181.416C167.951 184.038 170.517 185.376 171.775 184.442L187.877 172.582C187.877 172.582 188.434 166.553 186.712 162.888C186.089 161.549 185.223 160.772 184.44 160.751C184.193 160.87 183.687 161.278 183.583 161.305Z" fill="#4862BD"></path>
<path d="M130.542 174.423L139.344 177.237L147.589 179.87L149.659 180.519L151.199 180.976L152.588 181.331L154.465 181.732L155.859 181.961L156.988 182.094L158.139 182.172L159.519 182.182L160.777 182.08L162.027 181.825L162.945 181.502L163.668 181.1L164.155 180.785L163.483 181.675L162.52 182.619L161.484 183.321L160.574 183.765L159.57 184.107L158.337 184.347L156.938 184.467L155.692 184.457L153.86 184.308L151.362 183.914L148.711 183.362L144.687 182.335L140.848 181.212L131.929 178.266L131.362 177.996L130.991 177.603L130.75 177.134L130.656 176.809L130.519 175.914L130.542 174.423Z" fill="#4862BD"></path>
<path d="M185.071 185.351C185.071 185.351 201.999 174.612 206.504 170.123C211.373 165.271 213.935 159.894 210.028 153.224C207.153 149.133 200.171 148.417 191.068 151.638C181.964 154.858 171.566 160.231 171.566 160.231" fill="url(&quot;#paint9_linear_216_3968&quot;)"></path>
<mask id="mask0_216_3968" style="mask-type:alpha" maskUnits="userSpaceOnUse" x="170" y="160" width="17" height="26" fill="none">
<path d="M185.372 185.218C183.261 186.402 178.454 181.819 174.634 174.982C170.814 168.144 169.428 161.641 171.538 160.457C173.648 159.273 178.455 163.856 182.275 170.693C186.095 177.53 187.482 184.033 185.372 185.218Z" fill="black"></path>
</mask>
<g mask="url(#mask0_216_3968)" fill="none">
<path d="M185.372 185.218C183.261 186.402 178.454 181.819 174.634 174.982C170.814 168.144 169.428 161.641 171.538 160.457C173.648 159.273 178.455 163.856 182.275 170.693C186.095 177.53 187.482 184.033 185.372 185.218Z" fill="black"></path>
<path d="M183.583 161.305L164.86 175.061C163.602 175.995 164.157 178.795 166.054 181.416C167.951 184.038 170.517 185.376 171.775 184.442L187.877 172.582C187.877 172.582 188.434 166.553 186.712 162.888C186.089 161.549 185.223 160.772 184.44 160.751C184.193 160.87 183.687 161.278 183.583 161.305Z" fill="#4862BD"></path>
</g>
<path d="M192.482 180.501C192.482 180.501 188.39 175.252 192.467 171.103C196.543 166.954 211.759 155.671 211.759 155.671" stroke="#FFFFFF" stroke-width="0.5px" stroke-miterlimit="10" fill="none"></path>
<circle cx="168.017" cy="178.854" r="9" transform="rotate(6.904 168.017 178.854)" fill="url(&quot;#paint10_radial_216_3968&quot;)"></circle>
<path d="M131.736 177.892C131.736 177.892 139.889 180.713 143.361 181.669C155.716 185.064 162.134 185.895 165.513 178.646C169.343 170.414 159.768 165.555 153.456 162.428C148.134 159.796 141.654 156.58 141.654 156.58" fill="url(&quot;#paint11_linear_216_3968&quot;)"></path>
<path d="M164.155 180.785C161.534 183.457 154.612 182.22 150.368 180.978C149.063 180.594 141.806 178.272 134.89 176.045L133.915 174.151L133.029 174.212" stroke="#FFFFFF" stroke-width="0.5px" stroke-miterlimit="10" fill="none"></path>
<path d="M139.774 168.827C136.957 174.893 133.15 179.103 131.271 178.23C129.391 177.357 130.15 171.731 132.967 165.665C135.783 159.598 139.59 155.389 141.47 156.262C143.35 157.135 142.59 162.761 139.774 168.827Z" fill="black"></path>
<path d="M122.57 171.976L126.423 173.013C130.081 173.995 134.649 171.064 136.902 166.311L137.916 164.181C140.005 159.766 139.471 155.1 136.647 153.089L132.429 150.093L122.57 171.976Z" fill="#566FC6"></path>
<ellipse rx="11.9916" ry="2.71392" transform="matrix(0.432437 -0.901664 0.929665 0.368406 127.469 161.13)" fill="black"></ellipse>
<path class="hlfill" d="M115.04 155.003C116.146 153.578 127.058 156.332 128.434 156.97C128.799 157.136 127.911 159.146 127.749 159.502L125.917 163.627C125.366 164.769 124.711 165.413 124.332 165.196C120.855 163.071 113.935 156.427 115.04 155.003Z" fill="#F7931A"></path>
<path class="hlfill" d="M120.246 144.836C119.991 144.997 119.931 145.329 120.1 145.583L125.247 153.107C125.411 153.351 125.755 153.428 125.999 153.272L128.438 149.952C128.899 149.119 129.579 148.029 128.155 146.924C124.917 144.874 123.81 144.606 120.246 144.836Z" fill="#F7931A"></path>
<path class="hlfill" d="M110.771 163.209C110.835 162.912 111.126 162.727 111.425 162.782L120.327 164.539C120.614 164.594 120.807 164.879 120.746 165.163L118.467 168.701C117.843 169.45 117.053 170.502 115.511 169.632C112.444 167.472 111.803 166.563 110.771 163.209Z" fill="#F7931A"></path>
<path d="M315.678 169.707L326.254 192.47C326.96 194.01 324.978 196.373 321.819 197.868C318.659 199.364 315.533 199.297 314.827 197.758L305.747 178.153C305.747 178.153 308.355 172.155 311.892 169.579C313.178 168.635 314.402 168.35 315.154 168.737C315.326 168.978 315.593 169.628 315.678 169.707Z" fill="#4862BD"></path>
<path d="M301.763 191.704C301.763 191.704 291.319 172.732 289.387 166.138C287.299 159.011 287.67 152.586 294.838 148.302C299.688 145.923 306.671 148.876 313.618 156.66C320.564 164.444 327.616 174.939 327.616 174.939" fill="url(&quot;#paint12_linear_216_3968&quot;)"></path>
<mask id="mask1_216_3968" style="mask-type:alpha" maskUnits="userSpaceOnUse" x="301" y="174" width="27" height="19" fill="none">
<path d="M301.548 191.422C302.93 193.641 309.866 191.801 317.039 187.313C324.213 182.824 328.907 177.387 327.525 175.168C326.143 172.95 319.207 174.789 312.034 179.278C304.86 183.766 300.166 189.203 301.548 191.422Z" fill="black"></path>
</mask>
<g mask="url(#mask1_216_3968)" fill="none">
<path d="M301.548 191.422C302.93 193.641 309.866 191.801 317.039 187.313C324.213 182.824 328.907 177.387 327.525 175.168C326.143 172.95 319.207 174.789 312.034 179.278C304.86 183.766 300.166 189.203 301.548 191.422Z" fill="black"></path>
<path d="M315.678 169.707L326.254 192.47C326.96 194.01 324.978 196.373 321.819 197.868C318.659 199.364 315.533 199.297 314.827 197.758L305.747 178.153C305.747 178.153 308.355 172.155 311.892 169.579C313.178 168.635 314.402 168.35 315.154 168.737C315.326 168.979 315.593 169.628 315.678 169.707Z" fill="#4862BD"></path>
</g>
<path d="M297.268 183.256C297.268 183.256 303.872 180.414 302.17 174.365C300.467 168.316 291.926 149.719 291.926 149.719" stroke="#FFFFFF" stroke-width="0.5px" stroke-miterlimit="10" fill="none"></path>
<circle r="9.7234" transform="matrix(-0.928028 -0.37251 -0.37251 0.928028 321.786 194.619)" fill="url(&quot;#paint13_radial_216_3968&quot;)"></circle>
<path d="M329.001 231.463C329.001 231.463 330.513 222.278 330.902 218.414C332.278 204.67 332.022 197.715 323.884 195.573C314.643 193.149 311.257 204.242 309.104 211.539C307.292 217.691 305.076 225.183 305.076 225.183" fill="url(&quot;#paint14_linear_216_3968&quot;)"></path>
<path d="M325.597 233.412L326.989 223.542L328.29 214.297L328.604 211.978L328.811 210.259L328.938 208.719L329.027 206.653L329.022 205.132L328.963 203.912L328.843 202.679L328.613 201.216L328.287 199.906L327.803 198.633L327.306 197.726L326.761 197.04L326.348 196.587L327.392 197.122L328.543 197.955L329.455 198.912L330.076 199.787L330.608 200.781L331.074 202.039L331.443 203.495L331.651 204.816L331.816 206.783L331.841 209.505L331.731 212.418L331.364 216.88L330.865 221.164L329.356 231.184L329.175 231.838L328.83 232.309L328.384 232.655L328.062 232.82L327.154 233.142L325.597 233.412Z" fill="#4862BD"></path>
<path d="M326.348 196.587C329.588 198.832 329.51 206.401 328.958 211.138C328.786 212.594 327.638 220.733 326.527 228.491L324.725 229.897L324.943 230.822" stroke="#FFFFFF" stroke-width="0.5px" stroke-miterlimit="10" fill="none"></path>
<path d="M318.157 224.751C324.966 226.531 330.015 229.727 329.434 231.889C328.853 234.05 322.863 234.36 316.054 232.579C309.245 230.799 304.197 227.604 304.777 225.442C305.358 223.28 311.349 222.971 318.157 224.751Z" fill="black"></path>
<path d="M324.389 243.771L325.146 239.853C325.863 236.134 322.612 231.789 317.709 229.883L315.511 229.025C310.958 227.258 306.342 228.126 304.539 231.087L301.855 235.509L324.389 243.771Z" fill="#566FC6"></path>
<ellipse rx="11.9916" ry="2.71392" transform="matrix(-0.930395 -0.366558 0.300681 -0.953725 313.219 239.664)" fill="black"></ellipse>
<path class="hlfill" d="M308 252.5C306.5 251.5 308.462 240.419 309 239C309.14 238.624 311.208 239.366 311.574 239.501L315.821 241.032C317 241.5 317.689 242.107 317.5 242.5C315.63 246.121 309.5 253.5 308 252.5Z" fill="#F7931A"></path>
<path class="hlfill" d="M297.485 248.039C297.665 248.281 298 248.318 298.241 248.13L305.377 242.456C305.607 242.275 305.66 241.926 305.487 241.694L302 239.5C301.137 239.1 300 238.5 299 240C297.188 243.377 297 244.5 297.485 248.039Z" fill="#F7931A"></path>
<path class="hlfill" d="M316.492 256.169C316.191 256.127 315.985 255.85 316.019 255.547L317.132 246.542C317.166 246.252 317.436 246.039 317.724 246.08L321.417 248.098C322.209 248.667 323.314 249.38 322.557 250.98C320.624 254.195 319.763 254.899 316.492 256.169Z" fill="#F7931A"></path>
<path d="M289.474 203.556C289.754 201.129 287.857 199 285.414 199H210.586C208.143 199 206.246 201.129 206.526 203.556V203.556C208.008 216.404 219.791 225.502 232.596 223.685L248 221.5L263.404 223.685C276.209 225.502 287.992 216.404 289.474 203.556V203.556Z" fill="black"></path>
<mask id="mask2_216_3968" style="mask-type:alpha" maskUnits="userSpaceOnUse" x="205" y="145" width="87" height="80" fill="none">
<path fill-rule="evenodd" clip-rule="evenodd" d="M292 148V190.302C292 209.463 272.522 225 248.5 225C224.478 225 205 209.463 205 190.302V148C205 146.343 224.476 145 248.5 145C272.524 145 292 146.343 292 148Z" fill="url(&quot;#paint15_linear_216_3968&quot;)"></path>
</mask>
<g mask="url(#mask2_216_3968)" fill="none">
<path fill-rule="evenodd" clip-rule="evenodd" d="M292 148V190.302C292 209.463 272.522 225 248.5 225C224.478 225 205 209.463 205 190.302V148C205 146.343 224.476 145 248.5 145C272.524 145 292 146.343 292 148Z" fill="url(&quot;#paint16_linear_216_3968&quot;)"></path>
<path d="M292 190C292 194.422 272.522 198 248.5 198C224.478 198 205 194.422 205 190" stroke="#FFFFFF" stroke-opacity="0.46" stroke-width="0.5px" stroke-miterlimit="10" fill="none"></path>
<path d="M292 203C292 207.422 272.522 211 248.5 211C224.478 211 205 207.422 205 203" stroke="#FFFFFF" stroke-opacity="0.46" stroke-width="0.5px" stroke-miterlimit="10" fill="none"></path>
</g>
<rect x="220" y="155" width="56" height="28" rx="8" fill="url(&quot;#paint17_linear_216_3968&quot;)"></rect>
<path d="M247.563 166.573H244.712V165.023L242.441 167.708L244.275 169.802L244.523 170.074L244.499 168.749L247.563 168.726V166.573Z" stroke="#DAE2FF" stroke-miterlimit="10" fill="none"></path>
<path d="M249.349 167.708V166.254L251.856 168.69L249.349 171.6V170.382L245.942 170.405" stroke="#DAE2FF" stroke-miterlimit="10" fill="none"></path>
<path class="hlfill" fill-rule="evenodd" clip-rule="evenodd" d="M239.256 166.295C239.091 164.858 237.847 164.394 236.286 164.282L236.247 162.285L235.04 162.304L235.077 164.248C234.76 164.253 234.435 164.265 234.113 164.276L234.076 162.32L232.869 162.339L232.907 164.334C232.646 164.344 232.389 164.353 232.139 164.357L232.138 164.351L230.473 164.376L230.498 165.674C230.498 165.674 231.39 165.643 231.375 165.66C231.864 165.652 232.029 165.935 232.08 166.181L232.123 168.455C232.157 168.455 232.201 168.456 232.251 168.462L232.21 168.462L232.21 168.462C232.182 168.463 232.153 168.463 232.124 168.464L232.184 171.65C232.166 171.805 232.08 172.054 231.738 172.06C231.754 172.073 230.861 172.073 230.861 172.073L230.649 173.528L232.22 173.503C232.396 173.501 232.569 173.5 232.741 173.499L232.742 173.499C232.856 173.499 232.97 173.498 233.083 173.497L233.122 175.516L234.328 175.497L234.29 173.499C234.621 173.501 234.942 173.499 235.254 173.493L235.292 175.482L236.499 175.463L236.461 173.447C238.489 173.298 239.9 172.761 240.039 170.84C240.152 169.293 239.417 168.615 238.259 168.355C238.953 167.985 239.378 167.346 239.256 166.295ZM237.649 170.638C237.676 172.023 235.515 172.026 234.526 172.028C234.437 172.028 234.357 172.028 234.29 172.03L234.239 169.354C234.321 169.353 234.421 169.349 234.534 169.345C235.547 169.305 237.622 169.223 237.649 170.638ZM234.414 168.129C235.239 168.13 237.039 168.131 237.015 166.873C236.99 165.586 235.261 165.659 234.417 165.695C234.322 165.699 234.238 165.703 234.169 165.704L234.215 168.13C234.272 168.129 234.339 168.129 234.414 168.129Z" fill="#F7931A"></path>
<path d="M264.1 168.823L259.55 171.254L255 168.823L259.55 162L264.1 168.823Z" fill="#FFFFFF"></path>
<path d="M264.103 169.603L259.55 175.399L255 169.603L259.55 172.033L264.103 169.603Z" fill="#FFFFFF"></path>
<path d="M292.353 140.753C285.5 142.5 283.372 148.743 285.5 158.5C286.831 164.56 289 169.273 291.92 173.022L300.5 155C303.696 147.552 301.5 139 292.353 140.753Z" fill="url(&quot;#paint18_linear_216_3968&quot;)"></path>
<path d="M204.141 140.753C210.994 142.5 213.121 148.743 210.993 158.5C209.662 164.56 207.494 169.273 204.574 173.022L195.994 155C192.797 147.552 194.993 139 204.141 140.753Z" fill="url(&quot;#paint19_linear_216_3968&quot;)"></path>
<path d="M274 141H222V141C223.249 142.874 225.353 144 227.606 144H268.394C270.647 144 272.751 142.874 274 141V141Z" fill="#44579D"></path>
<mask id="mask3_216_3968" style="mask-type:alpha" maskUnits="userSpaceOnUse" x="208" y="79" width="80" height="62" fill="none">
<path d="M288 103.563C288 90.0007 270.093 79 248 79C225.907 79 208 90.0007 208 103.563V106.728V133.907C208 137.825 211.43 141 215.663 141H280.326C284.558 141 287.988 137.825 287.988 133.907V106.728V103.563H288Z" fill="url(&quot;#paint20_linear_216_3968&quot;)"></path>
</mask>
<g mask="url(#mask3_216_3968)" fill="none">
<path d="M288 103.563C288 90.0007 270.093 79 248 79C225.907 79 208 90.0007 208 103.563V106.728V133.907C208 137.825 211.43 141 215.663 141H280.326C284.558 141 287.988 137.825 287.988 133.907V106.728V103.563H288Z" fill="url(&quot;#paint21_linear_216_3968&quot;)"></path>
<path d="M272 112.093C272 105.968 258.57 101 242 101C225.43 101 212 105.968 212 112.093V113.522V125.797C212 127.566 214.573 129 217.747 129H266.244C269.419 129 271.991 127.566 271.991 125.797V113.522V112.093H272Z" fill="url(&quot;#paint22_linear_216_3968&quot;)"></path>
<path d="M229.968 81.7244L239.267 99.1624C239.267 99.1624 240.996 100.812 243.134 100.92C245.271 101.028 247.701 100.92 247.701 100.92C247.701 100.92 249.839 100.079 250.528 99.2702C251.217 98.4614 260.633 81.7244 260.633 81.7244" stroke="#FFFFFF" stroke-width="0.5px" stroke-miterlimit="10" fill="none"></path>
<path d="M226 82.647L237.672 103.297C237.672 103.297 239.85 105.253 242.534 105.383C245.219 105.514 248.261 105.383 248.261 105.383C248.261 105.383 250.945 104.38 251.821 103.427C252.697 102.475 264.519 82.647 264.519 82.647" stroke="#FFFFFF" stroke-width="0.5px" stroke-miterlimit="10" fill="none"></path>
<path d="M208.13 124.266L209.914 119.496L210 93L209.205 94.9903L209.011 95.713L208.735 96.9027L208.459 98.3482L208.286 99.5379L208.13 101.017L208.011 103.118L208 125L208.13 124.266Z" fill="#AEC0FF"></path>
<path d="M287.744 123.856L284.22 119.1L284.049 92.6765L285.619 94.6502L286.003 95.382L286.548 96.5685L287.092 98.0099L287.434 99.1964L287.744 100.671L287.979 102.756L288 124.588L287.744 123.856Z" fill="#4862BD"></path>
</g>
<path d="M220.96 127.822C225.356 127.822 228.92 124.258 228.92 119.862C228.92 115.466 225.356 111.902 220.96 111.902C216.564 111.902 213 115.466 213 119.862C213 124.258 216.564 127.822 220.96 127.822Z" fill="#2A2A2A"></path>
<path d="M217.282 116.692C216.034 116.692 215.023 117.704 215.023 118.951C215.023 120.199 216.034 121.21 217.282 121.21C218.529 121.21 219.541 120.199 219.541 118.951C219.541 117.704 218.529 116.692 217.282 116.692Z" fill="#FFFFFF"></path>
<path d="M220.877 114.729C220.335 114.729 219.896 115.168 219.896 115.71C219.896 116.253 220.335 116.692 220.877 116.692C221.42 116.692 221.859 116.253 221.859 115.71C221.859 115.168 221.42 114.729 220.877 114.729Z" fill="#FFFFFF"></path>
<path d="M252.73 127.822C257.126 127.822 260.69 124.258 260.69 119.862C260.69 115.466 257.126 111.902 252.73 111.902C248.333 111.902 244.77 115.466 244.77 119.862C244.77 124.258 248.333 127.822 252.73 127.822Z" fill="#2A2A2A"></path>
<path d="M249.311 116.692C248.064 116.692 247.052 117.704 247.052 118.951C247.052 120.199 248.064 121.21 249.311 121.21C250.559 121.21 251.571 120.199 251.571 118.951C251.571 117.704 250.559 116.692 249.311 116.692Z" fill="#FFFFFF"></path>
<path d="M252.659 114.729C252.116 114.729 251.677 115.168 251.677 115.71C251.677 116.253 252.116 116.692 252.659 116.692C253.201 116.692 253.64 116.253 253.64 115.71C253.64 115.168 253.201 114.729 252.659 114.729Z" fill="#FFFFFF"></path>
<mask id="mask4_216_3968" style="mask-type:alpha" maskUnits="userSpaceOnUse" x="284" y="105" width="11" height="25" fill="none">
<path d="M287.731 105.05C287.903 104.999 288.082 105.049 288.236 105.141L292.069 107.422C293.886 108.504 295 110.463 295 112.578V122.422C295 124.537 293.886 126.496 292.069 127.578L288.236 129.859C288.082 129.951 287.903 130.001 287.731 129.95C286.833 129.686 284 128.02 284 117.5C284 106.98 286.833 105.314 287.731 105.05Z" fill="url(&quot;#paint23_linear_216_3968&quot;)"></path>
</mask>
<g mask="url(#mask4_216_3968)" fill="none">
<path class="hlfill" d="M287.731 105.05C287.903 104.999 288.082 105.049 288.236 105.141L292.069 107.422C293.886 108.504 295 110.463 295 112.578V122.422C295 124.537 293.886 126.496 292.069 127.578L288.236 129.859C288.082 129.951 287.903 130.001 287.731 129.95C286.833 129.686 284 128.02 284 117.5C284 106.98 286.833 105.314 287.731 105.05Z" fill="#F7931A"></path>
<path d="M291.109 105.356L294.941 107.637C296.683 108.674 297.75 110.551 297.75 112.578V122.422C297.75 124.449 296.683 126.326 294.941 127.363L291.109 129.644C290.987 129.717 290.883 129.734 290.801 129.71C290.431 129.602 289.55 129.175 288.755 127.466C287.957 125.748 287.25 122.742 287.25 117.5C287.25 112.258 287.957 109.252 288.755 107.534C289.55 105.825 290.431 105.398 290.801 105.29C290.883 105.266 290.987 105.283 291.109 105.356Z" stroke="#000000" stroke-opacity="0.29" stroke-width="0.5px" fill="none"></path>
</g>
<path d="M247.673 93.8367L251.108 90.5186L252.177 91.5506C252.353 91.7204 252.637 91.7727 252.867 91.6813C253.11 91.5898 253.259 91.3677 253.259 91.1065V84.614C253.259 84.2743 252.975 84 252.624 84H245.901C245.644 84 245.414 84.1437 245.305 84.3788C245.211 84.614 245.265 84.8752 245.441 85.0451L246.956 86.5082C247.199 86.7433 247.605 86.7433 247.862 86.5082C248.105 86.273 248.105 85.8811 247.862 85.6329L247.429 85.2149H251.988V89.6042L251.555 89.1862C251.311 88.951 250.906 88.951 250.649 89.1862L246.766 92.9353C246.523 93.1705 246.523 93.5624 246.766 93.8106C246.888 93.9282 247.05 93.9935 247.213 93.9935C247.389 94.0196 247.551 93.9673 247.673 93.8367Z" fill="#F9943C"></path>
<path d="M245.089 88.8661L243.869 87.5268L242.65 86.1875C242.54 86.067 242.381 86 242.235 86C242.089 86 241.93 86.067 241.82 86.1875L240.259 87.9018L238.698 89.6161L238.21 89.0804L237.723 88.5446C237.637 88.4509 237.528 88.4375 237.43 88.4777C237.332 88.5179 237.259 88.6116 237.259 88.7455V94.692C237.259 94.7723 237.296 94.8527 237.345 94.9063C237.393 94.9598 237.467 95 237.54 95H242.954C243.076 95 243.162 94.9196 243.198 94.8125C243.235 94.7054 243.223 94.5848 243.137 94.4911L242.552 93.8482L241.967 93.2054L243.528 91.4911L245.089 89.7768C245.198 89.6562 245.259 89.4821 245.259 89.3214C245.259 89.1473 245.198 88.9866 245.089 88.8661Z" fill="#FFFFFF"></path>
<defs>
<linearGradient id="paint0_linear_216_3968" x1="211" y1="118.5" x2="202.655" y2="117.526" gradientUnits="userSpaceOnUse">
<stop stop-color="#F18F1A"></stop>
<stop offset="1" stop-color="#FAB664"></stop>
</linearGradient>
<linearGradient id="paint1_linear_216_3968" x1="231.524" y1="228.418" x2="208.452" y2="228.418" gradientUnits="userSpaceOnUse">
<stop stop-color="#6D86DC"></stop>
<stop offset="1" stop-color="#B7C7FD"></stop>
</linearGradient>
<radialGradient id="paint2_radial_216_3968" cx="0" cy="0" r="1" gradientUnits="userSpaceOnUse" gradientTransform="translate(219.222 257.333) rotate(65.3764) scale(11.7337)">
<stop stop-color="#ACBFFE"></stop>
<stop offset="1" stop-color="#082382"></stop>
</radialGradient>
<linearGradient id="paint3_linear_216_3968" x1="238.402" y1="306.026" x2="200.791" y2="306.026" gradientUnits="userSpaceOnUse">
<stop stop-color="#6D86DC"></stop>
<stop offset="1" stop-color="#B7C7FD"></stop>
</linearGradient>
<linearGradient id="paint4_linear_216_3968" x1="213.789" y1="302" x2="198.858" y2="323.198" gradientUnits="userSpaceOnUse">
<stop stop-color="#1A2D70"></stop>
<stop offset="1" stop-color="#627DD8"></stop>
</linearGradient>
<linearGradient id="paint5_linear_216_3968" x1="264.476" y1="228.418" x2="287.548" y2="228.418" gradientUnits="userSpaceOnUse">
<stop stop-color="#B7C7FD"></stop>
<stop offset="1" stop-color="#6D86DC"></stop>
</linearGradient>
<radialGradient id="paint6_radial_216_3968" cx="0" cy="0" r="1" gradientUnits="userSpaceOnUse" gradientTransform="translate(6.22222 5.33333) rotate(65.3764) scale(11.7337)">
<stop stop-color="#ACBFFE"></stop>
<stop offset="1" stop-color="#082382"></stop>
</radialGradient>
<linearGradient id="paint7_linear_216_3968" x1="257.598" y1="306.026" x2="295.209" y2="306.026" gradientUnits="userSpaceOnUse">
<stop stop-color="#B7C7FD"></stop>
<stop offset="1" stop-color="#6D86DC"></stop>
</linearGradient>
<linearGradient id="paint8_linear_216_3968" x1="282.211" y1="302" x2="297.142" y2="323.198" gradientUnits="userSpaceOnUse">
<stop stop-color="#627DD8"></stop>
<stop offset="1" stop-color="#1A2D70"></stop>
</linearGradient>
<linearGradient id="paint9_linear_216_3968" x1="213.425" y1="188.825" x2="198.265" y2="139.562" gradientUnits="userSpaceOnUse">
<stop stop-color="#6B8AF5"></stop>
<stop offset="1" stop-color="#ABBEFE"></stop>
</linearGradient>
<radialGradient id="paint10_radial_216_3968" cx="0" cy="0" r="1" gradientUnits="userSpaceOnUse" gradientTransform="translate(166.017 175.854) rotate(65.3764) scale(13.2004)">
<stop stop-color="#ACBFFE"></stop>
<stop offset="1" stop-color="#082382"></stop>
</radialGradient>
<linearGradient id="paint11_linear_216_3968" x1="164.229" y1="179.406" x2="158.749" y2="156.041" gradientUnits="userSpaceOnUse">
<stop stop-color="#6B8AF5"></stop>
<stop offset="1" stop-color="#B2C3FF"></stop>
</linearGradient>
<linearGradient id="paint12_linear_216_3968" x1="273.107" y1="180.249" x2="313.082" y2="141.482" gradientUnits="userSpaceOnUse">
<stop stop-color="#6B8AF5"></stop>
<stop offset="1" stop-color="#ABBEFE"></stop>
</linearGradient>
<radialGradient id="paint13_radial_216_3968" cx="0" cy="0" r="1" gradientUnits="userSpaceOnUse" gradientTransform="translate(7.56264 6.48226) rotate(65.3764) scale(14.2614)">
<stop stop-color="#ACBFFE"></stop>
<stop offset="1" stop-color="#082382"></stop>
</radialGradient>
<linearGradient id="paint14_linear_216_3968" x1="324.899" y1="196.782" x2="301.266" y2="206.568" gradientUnits="userSpaceOnUse">
<stop stop-color="#6B8AF5"></stop>
<stop offset="1" stop-color="#B2C3FF"></stop>
</linearGradient>
<linearGradient id="paint15_linear_216_3968" x1="203" y1="180.323" x2="295" y2="180.323" gradientUnits="userSpaceOnUse">
<stop stop-color="#BCCBFF"></stop>
<stop offset="1" stop-color="#5C77D5"></stop>
</linearGradient>
<linearGradient id="paint16_linear_216_3968" x1="203" y1="180.323" x2="295" y2="180.323" gradientUnits="userSpaceOnUse">
<stop stop-color="#BCCBFF"></stop>
<stop offset="1" stop-color="#5C77D5"></stop>
</linearGradient>
<linearGradient id="paint17_linear_216_3968" x1="220" y1="168" x2="277" y2="168" gradientUnits="userSpaceOnUse">
<stop stop-color="#47579D"></stop>
<stop offset="1" stop-color="#24378A"></stop>
</linearGradient>
<linearGradient id="paint18_linear_216_3968" x1="298.785" y1="140.482" x2="283.385" y2="169.294" gradientUnits="userSpaceOnUse">
<stop stop-color="#4F60AA"></stop>
<stop offset="1" stop-color="#293771"></stop>
</linearGradient>
<linearGradient id="paint19_linear_216_3968" x1="197.708" y1="140.482" x2="213.108" y2="169.294" gradientUnits="userSpaceOnUse">
<stop stop-color="#4F60AA"></stop>
<stop offset="1" stop-color="#293771"></stop>
</linearGradient>
<linearGradient id="paint20_linear_216_3968" x1="287.734" y1="129.264" x2="206.137" y2="129.795" gradientUnits="userSpaceOnUse">
<stop stop-color="#6B87ED"></stop>
<stop offset="1" stop-color="#C7D3FF"></stop>
</linearGradient>
<linearGradient id="paint21_linear_216_3968" x1="287.734" y1="129.264" x2="206.137" y2="129.795" gradientUnits="userSpaceOnUse">
<stop stop-color="#6B87ED"></stop>
<stop offset="1" stop-color="#C7D3FF"></stop>
</linearGradient>
<linearGradient id="paint22_linear_216_3968" x1="271.8" y1="123.7" x2="210.607" y2="124.361" gradientUnits="userSpaceOnUse">
<stop offset="0.311315" stop-color="#4862BD"></stop>
<stop offset="1" stop-color="#AEBCEF"></stop>
</linearGradient>
<linearGradient id="paint23_linear_216_3968" x1="288" y1="116.5" x2="296.345" y2="117.474" gradientUnits="userSpaceOnUse">
<stop stop-color="#F18F1A"></stop>
<stop offset="1" stop-color="#BC7014"></stop>
</linearGradient>
<linearGradient id="paint24_linear_216_3968" x1="288" y1="116.5" x2="296.345" y2="117.474" gradientUnits="userSpaceOnUse">
<stop stop-color="#F18F1A"></stop>
<stop offset="1" stop-color="#BC7014"></stop>
</linearGradient>
<linearGradient id="paint1_linear_216_3968" x1="231.524" y1="228.418" x2="208.452" y2="228.418" gradientUnits="userSpaceOnUse">
<stop stop-color="#6D86DC"></stop>
<stop offset="1" stop-color="#B7C7FD"></stop>
</linearGradient><radialGradient id="paint2_radial_216_3968" cx="0" cy="0" r="1" gradientUnits="userSpaceOnUse" gradientTransform="translate(219.222 257.333) rotate(65.3764) scale(11.7337)">
<stop stop-color="#ACBFFE"></stop>
<stop offset="1" stop-color="#082382"></stop>
</radialGradient><linearGradient id="paint3_linear_216_3968" x1="238.402" y1="306.026" x2="200.791" y2="306.026" gradientUnits="userSpaceOnUse">
<stop stop-color="#6D86DC"></stop>
<stop offset="1" stop-color="#B7C7FD"></stop>
</linearGradient><linearGradient id="paint4_linear_216_3968" x1="213.789" y1="302" x2="198.858" y2="323.198" gradientUnits="userSpaceOnUse">
<stop stop-color="#1A2D70"></stop>
<stop offset="1" stop-color="#627DD8"></stop>
</linearGradient><linearGradient id="paint5_linear_216_3968" x1="264.476" y1="228.418" x2="287.548" y2="228.418" gradientUnits="userSpaceOnUse">
<stop stop-color="#B7C7FD"></stop>
<stop offset="1" stop-color="#6D86DC"></stop>
</linearGradient><radialGradient id="paint6_radial_216_3968" cx="0" cy="0" r="1" gradientUnits="userSpaceOnUse" gradientTransform="translate(6.22222 5.33333) rotate(65.3764) scale(11.7337)">
<stop stop-color="#ACBFFE"></stop>
<stop offset="1" stop-color="#082382"></stop>
</radialGradient><linearGradient id="paint7_linear_216_3968" x1="257.598" y1="306.026" x2="295.209" y2="306.026" gradientUnits="userSpaceOnUse">
<stop stop-color="#B7C7FD"></stop>
<stop offset="1" stop-color="#6D86DC"></stop>
</linearGradient><linearGradient id="paint8_linear_216_3968" x1="282.211" y1="302" x2="297.142" y2="323.198" gradientUnits="userSpaceOnUse">
<stop stop-color="#627DD8"></stop>
<stop offset="1" stop-color="#1A2D70"></stop>
</linearGradient><linearGradient id="paint9_linear_216_3968" x1="213.425" y1="188.825" x2="198.265" y2="139.562" gradientUnits="userSpaceOnUse">
<stop stop-color="#6B8AF5"></stop>
<stop offset="1" stop-color="#ABBEFE"></stop>
</linearGradient><radialGradient id="paint10_radial_216_3968" cx="0" cy="0" r="1" gradientUnits="userSpaceOnUse" gradientTransform="translate(166.017 175.854) rotate(65.3764) scale(13.2004)">
<stop stop-color="#ACBFFE"></stop>
<stop offset="1" stop-color="#082382"></stop>
</radialGradient><linearGradient id="paint11_linear_216_3968" x1="164.229" y1="179.406" x2="158.749" y2="156.041" gradientUnits="userSpaceOnUse">
<stop stop-color="#6B8AF5"></stop>
<stop offset="1" stop-color="#B2C3FF"></stop>
</linearGradient><linearGradient id="paint12_linear_216_3968" x1="273.107" y1="180.249" x2="313.082" y2="141.482" gradientUnits="userSpaceOnUse">
<stop stop-color="#6B8AF5"></stop>
<stop offset="1" stop-color="#ABBEFE"></stop>
</linearGradient><radialGradient id="paint13_radial_216_3968" cx="0" cy="0" r="1" gradientUnits="userSpaceOnUse" gradientTransform="translate(7.56264 6.48226) rotate(65.3764) scale(14.2614)">
<stop stop-color="#ACBFFE"></stop>
<stop offset="1" stop-color="#082382"></stop>
</radialGradient><linearGradient id="paint14_linear_216_3968" x1="324.899" y1="196.782" x2="301.266" y2="206.568" gradientUnits="userSpaceOnUse">
<stop stop-color="#6B8AF5"></stop>
<stop offset="1" stop-color="#B2C3FF"></stop>
</linearGradient><linearGradient id="paint15_linear_216_3968" x1="203" y1="180.323" x2="295" y2="180.323" gradientUnits="userSpaceOnUse">
<stop stop-color="#BCCBFF"></stop>
<stop offset="1" stop-color="#5C77D5"></stop>
</linearGradient><linearGradient id="paint16_linear_216_3968" x1="203" y1="180.323" x2="295" y2="180.323" gradientUnits="userSpaceOnUse">
<stop stop-color="#BCCBFF"></stop>
<stop offset="1" stop-color="#5C77D5"></stop>
</linearGradient><linearGradient id="paint17_linear_216_3968" x1="220" y1="168" x2="277" y2="168" gradientUnits="userSpaceOnUse">
<stop stop-color="#47579D"></stop>
<stop offset="1" stop-color="#24378A"></stop>
</linearGradient><linearGradient id="paint18_linear_216_3968" x1="298.785" y1="140.482" x2="283.385" y2="169.294" gradientUnits="userSpaceOnUse">
<stop stop-color="#4F60AA"></stop>
<stop offset="1" stop-color="#293771"></stop>
</linearGradient><linearGradient id="paint19_linear_216_3968" x1="197.708" y1="140.482" x2="213.108" y2="169.294" gradientUnits="userSpaceOnUse">
<stop stop-color="#4F60AA"></stop>
<stop offset="1" stop-color="#293771"></stop>
</linearGradient><linearGradient id="paint20_linear_216_3968" x1="287.734" y1="129.264" x2="206.137" y2="129.795" gradientUnits="userSpaceOnUse">
<stop stop-color="#6B87ED"></stop>
<stop offset="1" stop-color="#C7D3FF"></stop>
</linearGradient><linearGradient id="paint21_linear_216_3968" x1="287.734" y1="129.264" x2="206.137" y2="129.795" gradientUnits="userSpaceOnUse">
<stop stop-color="#6B87ED"></stop>
<stop offset="1" stop-color="#C7D3FF"></stop>
</linearGradient><linearGradient id="paint22_linear_216_3968" x1="271.8" y1="123.7" x2="210.607" y2="124.361" gradientUnits="userSpaceOnUse">
<stop offset="0.311315" stop-color="#4862BD"></stop>
<stop offset="1" stop-color="#AEBCEF"></stop>
</linearGradient><linearGradient id="paint23_linear_216_3968" x1="288" y1="116.5" x2="296.345" y2="117.474" gradientUnits="userSpaceOnUse">
<stop stop-color="#F18F1A"></stop>
<stop offset="1" stop-color="#BC7014"></stop>
</linearGradient></defs>
</svg>