<svg xmlns:xlink="http://www.w3.org/1999/xlink" width="393" height="361" viewBox="0 0 393 361" fill="none" xmlns="http://www.w3.org/2000/svg">
<path d="M237.92 122.928C237.92 139.565 237.92 139.85 193.975 139.85C150.03 139.85 150.03 139.85 150.03 122.928C150.087 98.6567 169.751 79 194.032 79C218.313 79 237.92 98.6567 237.92 122.928Z" fill="url(&quot;#paint0_linear_216_3967&quot;)"></path>
<path d="M226.35 124.182C226.35 134.551 226.35 134.779 193.975 134.779C161.6 134.779 161.6 134.779 161.6 124.182C161.6 109.026 176.078 96.7195 193.975 96.7195C211.872 96.7195 226.35 109.026 226.35 124.182Z" fill="url(&quot;#paint1_linear_216_3967&quot;)"></path>
<path d="M212.613 83.1023C210.106 91.0219 202.753 96.7195 194.032 96.7195C185.312 96.7195 177.902 91.0219 175.451 83.1023" stroke="#FFFFFF" stroke-width="0.5px" stroke-miterlimit="10" fill="none"></path>
<path d="M209.308 81.3929C207.256 87.8882 201.157 92.6172 193.975 92.6172C186.793 92.6172 180.695 87.8882 178.643 81.3929" stroke="#FFFFFF" stroke-width="0.5px" stroke-miterlimit="10" fill="none"></path>
<g filter="url(#filter0_f_216_3967)" fill="none">
<line y1="-0.5" x2="42.4826" y2="-0.5" transform="matrix(-0.605168 0.796098 -0.798709 -0.601717 206.973 100.023)" stroke="#FFFFFF" fill="none"></line>
</g>
<path d="M178.187 123.327C182.374 123.327 185.768 119.935 185.768 115.749C185.768 111.564 182.374 108.172 178.187 108.172C174 108.172 170.606 111.564 170.606 115.749C170.606 119.935 174 123.327 178.187 123.327Z" fill="#2B2B2B"></path>
<path d="M177.959 115.237C179.344 115.237 180.467 114.114 180.467 112.73C180.467 111.345 179.344 110.223 177.959 110.223C176.574 110.223 175.451 111.345 175.451 112.73C175.451 114.114 176.574 115.237 177.959 115.237Z" fill="#FFFFFF"></path>
<path d="M174.14 117.003C174.832 117.003 175.394 116.442 175.394 115.749C175.394 115.057 174.832 114.496 174.14 114.496C173.447 114.496 172.886 115.057 172.886 115.749C172.886 116.442 173.447 117.003 174.14 117.003Z" fill="#FFFFFF"></path>
<path class="hlfill" d="M229.086 211.64V216.084C229.086 217.281 227.718 218.135 226.464 217.736L218.427 215.058C217.629 214.774 217.572 213.805 218.37 213.52L226.293 210.102C227.604 209.532 229.086 210.386 229.086 211.64Z" fill="#F7931A"></path>
<path d="M209.08 123.327C213.266 123.327 216.66 119.935 216.66 115.749C216.66 111.564 213.266 108.172 209.08 108.172C204.893 108.172 201.499 111.564 201.499 115.749C201.499 119.935 204.893 123.327 209.08 123.327Z" fill="#2B2B2B"></path>
<path d="M208.795 115.237C210.18 115.237 211.302 114.114 211.302 112.73C211.302 111.345 210.18 110.223 208.795 110.223C207.41 110.223 206.287 111.345 206.287 112.73C206.287 114.114 207.41 115.237 208.795 115.237Z" fill="#FFFFFF"></path>
<path d="M204.976 117.003C205.668 117.003 206.23 116.442 206.23 115.749C206.23 115.057 205.668 114.496 204.976 114.496C204.283 114.496 203.722 115.057 203.722 115.749C203.722 116.442 204.283 117.003 204.976 117.003Z" fill="#FFFFFF"></path>
<path d="M171.176 313C171.176 313 174.482 312.373 173.285 308.841C172.487 306.562 170.15 302.858 168.497 300.465C167.528 298.984 165.818 298.129 163.994 298.243L146.268 299.155C145.698 299.212 145.128 299.269 144.558 299.383L134.128 301.719L128.998 306.562L144.615 313H171.176V313Z" fill="black"></path>
<path d="M170.948 312.373L168.326 304.624C167.699 302.858 166.046 301.662 164.165 301.662H135.324C134.527 301.662 133.729 301.947 133.159 302.516L128.998 306.505C128.998 306.505 128.998 306.505 128.998 306.562V312.943C128.998 312.943 128.998 313 129.055 313H170.549C170.834 313 171.062 312.658 170.948 312.373Z" fill="url(&quot;#paint2_linear_216_3967&quot;)"></path>
<path d="M155.388 280.011C152.937 280.011 150.999 280.923 150.999 282.062L150.885 299.44C150.885 300.579 152.823 301.548 155.274 301.548C157.725 301.548 159.663 300.636 159.663 299.497L159.777 282.119C159.777 280.98 157.839 280.011 155.388 280.011Z" fill="#4862BD"></path>
<path d="M152.595 259.272C152.595 259.272 144.159 279.555 143.532 284.683C142.905 289.811 143.532 297.275 162.341 296.933C172.544 296.762 170.948 286.107 169.124 276.649C167.585 268.616 166.103 261.437 166.103 261.437" fill="url(&quot;#paint3_linear_216_3967&quot;)"></path>
<path d="M158.523 296.933C168.725 296.762 167.129 286.107 165.305 276.649C164.222 270.895 163.253 265.596 162.854 263.146" stroke="#FFFFFF" stroke-width="0.5px" stroke-miterlimit="10" fill="none"></path>
<path d="M166.387 261.619C166.599 260.282 163.62 258.7 159.733 258.084C155.847 257.469 152.525 258.053 152.313 259.389C152.101 260.726 155.08 262.308 158.966 262.924C162.853 263.539 166.175 262.955 166.387 261.619Z" fill="black"></path>
<path d="M162.797 240.868C160.404 240.47 158.295 241.096 158.124 242.236L155.331 259.443C155.16 260.582 156.927 261.836 159.321 262.234C161.714 262.633 163.823 262.007 163.994 260.867L166.787 243.66C167.015 242.521 165.191 241.267 162.797 240.868Z" fill="#4862BD"></path>
<path d="M165.818 219.73L158.979 235.741C158.523 236.823 159.948 238.419 162.17 239.387C164.393 240.356 166.559 240.242 167.015 239.159L172.886 225.371C172.886 225.371 170.948 221.269 168.44 219.56C167.528 218.933 166.673 218.762 166.16 219.047C166.046 219.218 165.875 219.673 165.818 219.73Z" fill="#4862BD"></path>
<path d="M166.217 256.879L164.507 256.822L154.989 246.623L160.517 232.721L173.57 235.114L173.798 249.073C173.798 249.757 173.57 250.383 173.171 250.896L168.839 256.081C168.554 256.48 167.642 256.993 166.217 256.879Z" fill="#4862BD"></path>
<path d="M165.191 256.822C165.191 256.822 161.487 256.936 156.927 255.454C156.186 255.226 154.989 254.543 154.704 253.859L152.652 247.193C152.424 246.623 152.481 245.939 152.709 245.37L157.896 232.379L170.948 234.772L171.176 248.731C171.176 249.358 170.948 249.985 170.549 250.44L165.191 256.822Z" fill="url(&quot;#paint4_linear_216_3967&quot;)"></path>
<path d="M157.611 232.151C157.554 232.607 158.409 233.177 159.834 233.69L160.803 231.411C158.922 231.411 157.725 231.695 157.611 232.151Z" fill="black"></path>
<path d="M169.751 232.835L168.554 235.57C171.518 235.855 173.684 235.627 173.798 235C173.912 234.373 172.259 233.576 169.751 232.835Z" fill="black"></path>
<path d="M165.989 231.98C164.051 231.638 162.227 231.468 160.803 231.468L159.834 233.747C161.259 234.259 163.196 234.829 165.419 235.171C166.502 235.342 167.585 235.513 168.554 235.57L169.751 232.835C168.668 232.55 167.357 232.208 165.989 231.98Z" fill="#4862BD"></path>
<path d="M170.321 235.798C168.953 235.798 167.186 235.627 165.419 235.285C163.481 234.943 161.657 234.487 160.347 233.974C158.808 233.405 158.124 232.835 158.238 232.265C158.352 231.752 158.751 231.752 160.176 231.638L160.461 231.98C159.15 232.037 158.808 232.322 158.808 232.379C158.808 232.436 159.093 232.835 160.574 233.405C161.885 233.917 163.652 234.373 165.533 234.715C167.471 235.057 169.238 235.228 170.663 235.171C172.259 235.114 172.658 234.829 172.658 234.772C172.658 234.715 172.373 234.259 170.834 233.69L171.176 233.405C172.772 233.974 173.342 234.316 173.228 234.886C173.114 235.456 172.316 235.741 170.663 235.741C170.549 235.798 170.435 235.798 170.321 235.798Z" fill="#010202"></path>
<path d="M169.582 313.372H125.409C123.927 313.372 122.958 311.834 123.642 310.467L123.927 309.954C124.782 308.187 126.549 307.048 128.487 306.934C137.435 306.421 162.799 305.567 169.924 312.575C170.209 312.859 169.981 313.372 169.582 313.372Z" fill="url(&quot;#paint5_linear_216_3967&quot;)"></path>
<path d="M216.546 312.943C216.546 312.943 213.24 312.316 214.437 308.784C215.235 306.505 217.572 302.801 219.225 300.408C220.194 298.927 221.904 298.072 223.728 298.186L241.454 299.098C242.024 299.155 242.594 299.212 243.164 299.326L253.595 301.662L258.725 306.505L243.107 312.943H216.546V312.943Z" fill="black"></path>
<path d="M216.774 312.373L219.396 304.624C220.023 302.858 221.676 301.662 223.557 301.662H252.398C253.196 301.662 253.994 301.947 254.564 302.516L258.725 306.505C258.725 306.505 258.725 306.505 258.725 306.562V312.943C258.725 312.943 258.725 313 258.668 313H217.173C216.888 312.943 216.66 312.658 216.774 312.373Z" fill="url(&quot;#paint6_linear_216_3967&quot;)"></path>
<path d="M217.572 312.943H261.745C263.227 312.943 264.196 311.405 263.512 310.037L263.227 309.525C262.372 307.758 260.606 306.619 258.668 306.505C249.719 305.992 224.355 305.137 217.23 312.145C216.945 312.43 217.173 312.943 217.572 312.943Z" fill="url(&quot;#paint7_linear_216_3967&quot;)"></path>
<path d="M232.278 279.954C234.729 279.954 236.667 280.866 236.667 282.005L236.781 299.383C236.781 300.522 234.843 301.491 232.392 301.491C229.941 301.491 228.003 300.579 228.003 299.44L227.889 282.062C227.889 280.923 229.884 280.011 232.278 279.954Z" fill="#4862BD"></path>
<path d="M235.128 259.215C235.128 259.215 243.563 279.498 244.19 284.626C244.817 289.754 244.19 297.218 225.381 296.876C215.178 296.705 216.774 286.05 218.598 276.592C220.137 268.559 221.619 261.38 221.619 261.38" fill="url(&quot;#paint8_linear_216_3967&quot;)"></path>
<path d="M229.143 296.933C218.94 296.762 220.536 286.107 222.36 276.649C223.443 270.895 224.412 265.596 224.811 263.146" stroke="#FFFFFF" stroke-width="0.5px" stroke-miterlimit="10" fill="none"></path>
<path d="M228.783 262.894C232.669 262.279 235.648 260.696 235.436 259.36C235.225 258.023 231.902 257.439 228.016 258.055C224.129 258.67 221.15 260.253 221.362 261.589C221.574 262.925 224.896 263.51 228.783 262.894Z" fill="black"></path>
<path d="M224.925 240.868C227.319 240.47 229.428 241.096 229.599 242.236L232.392 259.443C232.563 260.582 230.796 261.836 228.402 262.234C226.008 262.633 223.899 262.007 223.728 260.867L220.935 243.66C220.707 242.464 222.531 241.267 224.925 240.868Z" fill="#4862BD"></path>
<path d="M221.904 219.73L228.744 235.741C229.2 236.823 227.775 238.419 225.552 239.387C223.329 240.356 221.163 240.242 220.707 239.159L214.779 225.428C214.779 225.428 216.717 221.326 219.225 219.617C220.137 218.99 220.992 218.819 221.505 219.104C221.619 219.218 221.847 219.617 221.904 219.73Z" fill="#4862BD"></path>
<path d="M221.505 256.879L223.215 256.822L232.734 246.623L227.205 232.721L214.152 235.114L213.924 249.073C213.924 249.757 214.152 250.383 214.551 250.896L218.883 256.081C219.168 256.423 220.08 256.993 221.505 256.879Z" fill="#4F69C1"></path>
<path d="M222.531 256.822C222.531 256.822 226.236 256.936 230.796 255.454C231.537 255.226 232.734 254.543 233.019 253.859L235.071 247.193C235.299 246.623 235.242 245.939 235.014 245.37L229.827 232.379L216.774 234.772L216.546 248.731C216.546 249.358 216.774 249.985 217.173 250.44L222.531 256.822Z" fill="url(&quot;#paint9_linear_216_3967&quot;)"></path>
<path d="M230.112 232.151C230.169 232.607 229.314 233.177 227.889 233.69L226.92 231.411C228.744 231.411 229.998 231.638 230.112 232.151Z" fill="black"></path>
<path d="M217.914 232.835L219.111 235.57C216.147 235.855 213.981 235.627 213.867 235C213.753 234.373 215.406 233.519 217.914 232.835Z" fill="black"></path>
<path d="M221.733 231.98C223.671 231.638 225.495 231.468 226.92 231.468L227.889 233.747C226.464 234.259 224.526 234.829 222.303 235.171C221.22 235.342 220.137 235.513 219.168 235.57L217.914 232.835C219.054 232.493 220.308 232.208 221.733 231.98Z" fill="#4862BD"></path>
<path d="M217.344 235.741C218.712 235.741 220.479 235.57 222.246 235.228C224.184 234.886 226.008 234.43 227.319 233.917C228.858 233.348 229.542 232.778 229.428 232.208C229.314 231.695 228.915 231.695 227.49 231.581L227.205 231.923C228.516 231.98 228.858 232.265 228.858 232.322C228.858 232.379 228.573 232.778 227.091 233.348C225.78 233.86 224.013 234.316 222.132 234.658C220.194 235 218.427 235.171 217.002 235.114C215.406 235.057 215.007 234.772 215.007 234.715C215.007 234.658 215.292 234.202 216.831 233.633L216.489 233.348C214.893 233.917 214.323 234.259 214.437 234.829C214.551 235.399 215.349 235.684 217.002 235.684C217.173 235.741 217.287 235.741 217.344 235.741Z" fill="#010202"></path>
<path d="M243.201 225.343C244.172 225.245 244.252 218.186 243.38 209.577C242.509 200.968 241.015 194.068 240.044 194.166C239.073 194.264 238.993 201.323 239.864 209.933C240.736 218.542 242.23 225.441 243.201 225.343Z" fill="black"></path>
<path d="M243.107 158.994C242.993 159.621 242.879 160.191 242.822 160.76C243.563 161.102 244.418 161.558 245.33 162.071C245.615 161.387 245.9 160.59 246.071 159.678C246.242 158.823 246.356 158.026 246.413 157.285C245.672 156.886 244.874 156.487 244.076 156.145C243.734 156.829 243.392 157.855 243.107 158.994Z" fill="#4862BD"></path>
<path d="M239.459 159.336C239.459 159.336 285.799 175.631 237.065 209.817V219.104C237.065 219.104 267.331 205.6 268.756 186.343C269.611 175.061 263.626 164.692 240.542 154.436L237.92 153.809L237.065 158.652L239.459 159.336Z" fill="#4862BD"></path>
<path d="M243.449 164.179C243.449 164.179 249.605 169.421 252.569 173.637C253.31 174.719 254.906 174.89 255.818 173.922C257.927 171.814 260.948 167.996 261.575 163.153C261.632 162.641 261.404 162.128 261.005 161.786C259.181 160.532 253.709 157.057 245.729 154.436L243.449 164.179Z" fill="url(&quot;#paint10_linear_216_3967&quot;)"></path>
<path d="M246.47 157.228C246.584 155.69 246.299 154.55 245.729 154.436C245.273 154.322 244.646 155.006 244.133 156.088C244.931 156.487 245.729 156.829 246.47 157.228Z" fill="black"></path>
<path d="M243.506 164.179C244.076 164.293 244.76 163.438 245.33 162.071C244.418 161.558 243.563 161.102 242.822 160.76C242.594 162.641 242.879 164.008 243.506 164.179Z" fill="black"></path>
<path d="M252.056 177.34C252.056 177.34 252.626 183.836 251.03 186.627C251.03 186.627 265.564 197.168 271.036 206.056C271.036 206.056 276.736 193.92 272.347 177.34H252.056Z" fill="url(&quot;#paint11_linear_216_3967&quot;)"></path>
<path d="M252.056 177.34C252.056 178.138 255.134 178.822 259.295 179.05C259.181 177.91 258.896 176.771 258.554 175.745C254.735 175.973 252.056 176.6 252.056 177.34Z" fill="black"></path>
<path d="M267.16 175.802C267.559 176.771 267.901 177.739 268.129 178.765C270.637 178.423 272.29 177.91 272.29 177.34C272.347 176.714 270.238 176.144 267.16 175.802Z" fill="black"></path>
<path d="M262.201 175.574C260.891 175.574 259.694 175.631 258.554 175.688C258.896 176.771 259.181 177.853 259.295 178.993C260.207 179.05 261.175 179.05 262.201 179.05C264.424 179.05 266.476 178.936 268.186 178.708C267.958 177.739 267.616 176.714 267.217 175.745C265.678 175.688 263.968 175.574 262.201 175.574Z" fill="#4862BD"></path>
<path d="M248.351 186.343C248.351 186.343 259.466 203.321 261.574 213.577C261.574 213.577 253.253 223.491 243.449 225.2C243.449 225.2 245.444 207.367 239.972 194.148L248.351 186.343Z" fill="url(&quot;#paint12_linear_216_3967&quot;)"></path>
<path d="M235.356 200.074C235.584 199.789 240.884 193.351 240.656 201.213C240.428 209.988 240.143 228.961 236.211 225.2C232.278 221.44 225.78 210.614 235.356 200.074Z" fill="url(&quot;#paint13_linear_216_3967&quot;)"></path>
<path d="M259.58 163.951C259.926 163.951 260.207 163.671 260.207 163.324C260.207 162.978 259.926 162.698 259.58 162.698C259.233 162.698 258.953 162.978 258.953 163.324C258.953 163.671 259.233 163.951 259.58 163.951Z" fill="#FFFFFF"></path>
<path d="M270.466 202.296C270.812 202.296 271.093 202.015 271.093 201.669C271.093 201.323 270.812 201.042 270.466 201.042C270.12 201.042 269.839 201.323 269.839 201.669C269.839 202.015 270.12 202.296 270.466 202.296Z" fill="#FFFFFF"></path>
<path d="M247.781 190.445C248.127 190.445 248.408 190.164 248.408 189.818C248.408 189.472 248.127 189.191 247.781 189.191C247.435 189.191 247.154 189.472 247.154 189.818C247.154 190.164 247.435 190.445 247.781 190.445Z" fill="#FFFFFF"></path>
<path d="M245.273 223.662C245.619 223.662 245.9 223.381 245.9 223.035C245.9 222.689 245.619 222.408 245.273 222.408C244.927 222.408 244.646 222.689 244.646 223.035C244.646 223.381 244.927 223.662 245.273 223.662Z" fill="#FFFFFF"></path>
<path d="M264.424 179.107C264.424 179.107 265.45 187.824 268.471 190.787C270.694 192.952 274 192.496 274 192.496" stroke="#FFFFFF" stroke-width="0.5px" stroke-miterlimit="10" fill="none"></path>
<path d="M257.528 202.581C257.528 202.581 248.123 206.626 249.947 212.324C251.714 217.964 253.025 221.155 253.025 221.155" stroke="#FFFFFF" stroke-width="0.5px" stroke-miterlimit="10" fill="none"></path>
<path d="M232.449 172.782C232.392 173.238 232.221 173.694 232.05 174.15L226.293 186.343L221.904 209.931L207.826 225.257H194.032H180.182L165.761 209.646L161.714 186.343L155.901 174.15C155.673 173.751 155.559 173.295 155.502 172.782L150.999 146.516C150.543 143.839 152.595 141.446 155.274 141.446H232.734C235.413 141.446 237.464 143.896 237.008 146.516L232.449 172.782Z" fill="url(&quot;#paint14_linear_216_3967&quot;)"></path>
<path d="M226.977 184.576C218.142 178.195 212.442 167.825 212.442 156.088C212.442 150.847 213.582 145.89 215.634 141.389H193.861H172.088C174.14 145.833 175.28 150.847 175.28 156.088C175.28 167.825 169.523 178.195 160.745 184.576C160.745 184.576 157.269 186.343 159.207 193.18C161.315 200.53 163.709 198.307 163.709 198.307C171.005 192.439 183.716 188.906 193.804 188.906C203.893 188.906 216.66 192.439 223.899 198.307C223.899 198.307 226.35 200.53 228.402 193.18C230.454 186.343 226.977 184.576 226.977 184.576Z" fill="url(&quot;#paint15_linear_216_3967&quot;)"></path>
<path d="M223.557 201.669C215.577 194.889 205.204 190.787 193.918 190.787C182.633 190.787 172.316 194.889 164.336 201.612" stroke="#FFFFFF" stroke-width="0.5px" stroke-miterlimit="10" fill="none"></path>
<path d="M217.914 141.389C215.862 145.833 214.722 150.847 214.722 156.088C214.722 167.028 219.681 176.771 227.547 183.209" stroke="#FFFFFF" stroke-width="0.5px" stroke-miterlimit="10" fill="none"></path>
<path d="M169.637 141.389C171.689 145.833 172.829 150.847 172.829 156.088C172.829 167.028 167.87 176.771 160.005 183.209" stroke="#FFFFFF" stroke-width="0.5px" stroke-miterlimit="10" fill="none"></path>
<path d="M230.511 147.77C231.392 147.77 232.107 147.056 232.107 146.175C232.107 145.293 231.392 144.579 230.511 144.579C229.629 144.579 228.915 145.293 228.915 146.175C228.915 147.056 229.629 147.77 230.511 147.77Z" fill="#FFFFFF"></path>
<path d="M225.894 147.77C226.775 147.77 227.49 147.056 227.49 146.175C227.49 145.293 226.775 144.579 225.894 144.579C225.012 144.579 224.298 145.293 224.298 146.175C224.298 147.056 225.012 147.77 225.894 147.77Z" fill="#FFFFFF"></path>
<path d="M221.22 147.77C222.101 147.77 222.816 147.056 222.816 146.175C222.816 145.293 222.101 144.579 221.22 144.579C220.339 144.579 219.624 145.293 219.624 146.175C219.624 147.056 220.339 147.77 221.22 147.77Z" fill="#FFFFFF"></path>
<path d="M226.065 188.565C226.632 188.565 227.091 188.106 227.091 187.539C227.091 186.973 226.632 186.514 226.065 186.514C225.498 186.514 225.039 186.973 225.039 187.539C225.039 188.106 225.498 188.565 226.065 188.565Z" fill="#FFFFFF"></path>
<path d="M225.267 192.496C225.834 192.496 226.293 192.037 226.293 191.47C226.293 190.904 225.834 190.445 225.267 190.445C224.7 190.445 224.241 190.904 224.241 191.47C224.241 192.037 224.7 192.496 225.267 192.496Z" fill="#FFFFFF"></path>
<path d="M179.156 152.214C179.722 152.214 180.182 151.755 180.182 151.188C180.182 150.622 179.722 150.163 179.156 150.163C178.589 150.163 178.13 150.622 178.13 151.188C178.13 151.755 178.589 152.214 179.156 152.214Z" fill="#FFFFFF"></path>
<path d="M165.077 205.771C159.777 213.919 160.119 218.99 163.082 222.522C164.051 220.072 165.248 218.819 166.73 218.762H166.787C169.295 218.762 171.917 222.522 173 225.029C174.311 227.935 175.907 229.074 176.363 229.359C183.089 230.271 186.565 225.2 186.565 225.2C184.058 208.278 165.077 205.771 165.077 205.771Z" fill="#9BAFF5"></path>
<path d="M172.715 225.2C171.689 222.807 169.124 219.104 166.73 219.104H166.673C165.305 219.161 164.165 220.357 163.253 222.75L163.139 222.693C165.362 225.257 169.01 227.023 172.829 228.505C173.855 228.904 174.767 229.188 175.679 229.302C174.995 228.733 173.741 227.479 172.715 225.2Z" fill="black"></path>
<path d="M173 225.086C171.86 222.522 169.295 218.819 166.787 218.819H166.73C165.248 218.876 164.051 220.129 163.082 222.579C163.139 222.636 163.139 222.636 163.196 222.693L163.31 222.75C164.222 220.357 165.362 219.161 166.73 219.104H166.787C169.181 219.104 171.689 222.864 172.772 225.2C173.798 227.536 174.995 228.733 175.736 229.302C175.793 229.302 175.85 229.302 175.907 229.359C176.078 229.359 176.249 229.416 176.363 229.416C175.907 229.131 174.254 227.992 173 225.086Z" fill="black"></path>
<path d="M222.645 205.714C227.946 213.862 227.604 218.933 224.64 222.465C223.671 220.015 222.474 218.762 220.992 218.705H220.935C218.427 218.705 215.805 222.465 214.722 224.972C213.411 227.878 211.815 229.017 211.359 229.302C204.634 230.214 201.157 225.143 201.157 225.143C203.665 208.278 222.645 205.714 222.645 205.714Z" fill="#8EA7FF"></path>
<path d="M214.95 225.143C215.976 222.75 218.541 218.99 220.935 218.99H220.992C222.36 219.047 223.5 220.243 224.412 222.636L224.526 222.579C222.303 225.143 218.655 226.909 214.836 228.391C213.81 228.79 212.898 229.074 211.986 229.188C212.727 228.676 213.924 227.479 214.95 225.143Z" fill="black"></path>
<path d="M214.722 225.029C215.862 222.465 218.427 218.762 220.935 218.762H220.992C222.474 218.819 223.671 220.072 224.64 222.522C224.583 222.579 224.583 222.579 224.526 222.636L224.412 222.693C223.5 220.3 222.36 219.104 220.992 219.047H220.935C218.541 219.047 216.033 222.807 214.95 225.2C213.924 227.536 212.727 228.733 211.986 229.302C211.929 229.302 211.872 229.302 211.815 229.359C211.644 229.359 211.473 229.416 211.359 229.416C211.815 229.074 213.411 227.935 214.722 225.029Z" fill="black"></path>
<path d="M236.267 145.32C236.495 144.921 236.951 144.75 237.35 144.978C238.775 145.719 241.682 147.713 240.941 151.074L237.92 167.882C237.749 168.908 237.236 169.877 236.495 170.674L234.387 172.839C233.361 173.922 231.537 173.124 231.651 171.643C232.05 164.806 233.247 151.359 236.267 145.32Z" fill="#4862BD"></path>
<path d="M150.999 145.32C150.771 144.921 150.315 144.75 149.916 144.978C148.491 145.719 145.584 147.713 146.325 151.074L149.346 167.882C149.517 168.908 150.03 169.877 150.771 170.674L152.88 172.839C153.906 173.922 155.73 173.124 155.616 171.643C155.16 164.806 154.02 151.359 150.999 145.32Z" fill="#4862BD"></path>
<path d="M109.313 148.825C109.499 147.868 102.759 145.759 94.2597 144.116C85.7605 142.473 78.7204 141.917 78.5351 142.875C78.3498 143.832 85.0895 145.941 93.5886 147.584C102.088 149.227 109.128 149.783 109.313 148.825Z" fill="black"></path>
<path d="M142.905 158.253C142.905 158.253 114.007 197.966 95.2551 141.446L86.3634 138.768C86.3634 138.768 90.5812 171.643 108.593 178.537C119.137 182.582 130.822 179.847 147.237 160.703L150.087 157.399L148.605 151.131L142.905 158.253Z" fill="#4862BD"></path>
<path d="M137.091 160.646C137.091 160.646 130.309 165.034 125.407 166.629C124.153 167.028 123.526 168.509 124.153 169.649C125.578 172.27 128.371 176.258 132.817 178.252C133.33 178.48 133.843 178.423 134.299 178.081C136.008 176.714 140.91 172.497 145.755 165.603L137.091 160.646Z" fill="url(&quot;#paint16_linear_216_3967&quot;)"></path>
<path d="M140.568 161.045C138.858 160.305 137.376 160.134 137.091 160.703C136.806 161.216 137.433 162.128 138.63 163.096C139.314 162.413 139.998 161.672 140.568 161.045Z" fill="black"></path>
<path d="M144.617 163.666C143.99 164.35 143.42 164.977 142.85 165.603C144.332 166.116 145.472 166.23 145.757 165.717C145.928 165.261 145.472 164.464 144.617 163.666Z" fill="black"></path>
<path d="M142.164 161.843C141.594 161.558 141.081 161.273 140.568 161.045C139.998 161.672 139.314 162.356 138.573 163.096C139.143 163.552 139.827 164.065 140.625 164.521C141.366 164.977 142.164 165.318 142.848 165.546C143.418 164.92 144.045 164.293 144.615 163.609C144.045 163.039 143.19 162.413 142.164 161.843Z" fill="#4862BD"></path>
<path d="M121.987 165.091C121.987 165.091 115.603 163.78 113.38 161.387C113.38 161.387 99.0739 172.27 89.0423 175.004C89.0423 175.004 99.0169 183.95 116.173 184.519L121.987 165.091Z" fill="url(&quot;#paint17_linear_216_3967&quot;)"></path>
<path d="M121.702 171.814C122.557 168.11 122.728 165.318 121.987 165.091C121.246 164.863 119.707 167.597 118.282 171.529C119.422 171.757 120.562 171.871 121.702 171.814Z" fill="black"></path>
<path d="M116.002 180.132C115.603 182.639 115.603 184.348 116.173 184.519C116.8 184.69 117.94 182.867 119.137 180.018C118.054 180.132 117.028 180.189 116.002 180.132Z" fill="black"></path>
<path d="M119.08 180.018C119.65 178.651 120.22 177.055 120.733 175.289C121.075 174.036 121.417 172.896 121.645 171.757C120.505 171.814 119.365 171.7 118.225 171.529C117.94 172.383 117.598 173.295 117.313 174.264C116.686 176.429 116.173 178.423 115.945 180.075C117.028 180.189 118.054 180.132 119.08 180.018Z" fill="#4862BD"></path>
<path d="M114.463 158.994C114.463 158.994 94.9701 164.692 84.5395 163.837C84.5395 163.837 77.4148 153.012 78.6117 143.098C78.6117 143.098 95.1411 150.106 109.334 148.739L114.463 158.994Z" fill="url(&quot;#paint18_linear_216_3967&quot;)"></path>
<path d="M105.002 142.585C105.173 142.927 109.846 149.764 102.38 147.314C94.0581 144.579 75.9898 138.825 80.7206 136.147C85.4515 133.469 97.706 130.392 105.002 142.585Z" fill="url(&quot;#paint19_linear_216_3967&quot;)"></path>
<path d="M133.273 176.999C133.619 176.999 133.9 176.718 133.9 176.372C133.9 176.026 133.619 175.745 133.273 175.745C132.926 175.745 132.646 176.026 132.646 176.372C132.646 176.718 132.926 176.999 133.273 176.999Z" fill="#FFFFFF"></path>
<path d="M93.4312 176.372C93.7774 176.372 94.0581 176.091 94.0581 175.745C94.0581 175.399 93.7774 175.118 93.4312 175.118C93.0849 175.118 92.8042 175.399 92.8042 175.745C92.8042 176.091 93.0849 176.372 93.4312 176.372Z" fill="#FFFFFF"></path>
<path d="M111.271 158.083C111.618 158.083 111.898 157.802 111.898 157.456C111.898 157.11 111.618 156.829 111.271 156.829C110.925 156.829 110.644 157.11 110.644 157.456C110.644 157.802 110.925 158.083 111.271 158.083Z" fill="#FFFFFF"></path>
<path d="M116.743 176.486C116.743 176.486 108.08 174.947 104.432 176.999C101.696 178.48 101.183 181.785 101.183 181.785" stroke="#FFFFFF" stroke-width="0.5px" stroke-miterlimit="10" fill="none"></path>
<path d="M96.2241 163.096C96.2241 163.096 95.0271 152.955 89.0993 153.012C83.1716 153.069 79.7517 153.411 79.7517 153.411" stroke="#FFFFFF" stroke-width="0.5px" stroke-miterlimit="10" fill="none"></path>
<path class="hlfill" d="M222.531 202.638C222.531 202.638 231.936 198.478 230.796 201.498C229.656 204.518 228.972 208.164 224.583 208.221C220.707 208.278 211.929 207.196 222.531 202.638Z" fill="#F7931A"></path>
<path class="hlfill" d="M224.526 226.055C224.526 226.055 234.444 228.733 232.905 225.941C231.309 223.149 230.055 219.617 225.78 220.243C221.961 220.756 213.411 223.149 224.526 226.055Z" fill="#F7931A"></path>
<path class="hlfill" d="M94.3431 135.805L88.0164 135.349C86.3064 135.235 85.2235 133.241 85.9644 131.475L89.8973 121.618C90.3533 120.535 93.3741 120.535 93.7161 121.618L96.851 131.988C97.478 133.868 96.167 135.919 94.3431 135.805Z" fill="#F7931A"></path>
<path class="hlfill" d="M111.442 127.6C111.442 127.6 106.142 136.432 105.344 133.298C104.546 130.164 102.95 126.746 106.541 124.239C109.619 121.96 117.427 117.801 111.442 127.6Z" fill="#F7931A"></path>
<path class="hlfill" d="M74.5079 127.714C74.5079 127.714 80.2647 136.204 80.9486 133.07C81.5756 129.937 82.9436 126.404 79.2387 124.068C75.9898 122.017 67.9532 118.256 74.5079 127.714Z" fill="#F7931A"></path>
<path class="hlfill" d="M144.9 80.2534L149.118 107.716L153.165 112.673C153.165 112.673 153.963 129.765 149.916 128.17C145.869 126.575 144.786 120.877 144.159 110.792C143.532 100.708 141.081 81.6208 141.081 81.6208L144.9 80.2534Z" fill="#F7931A"></path>
<path class="hlfill" d="M243.506 80.2534L239.288 107.716L235.242 112.673C235.242 112.673 234.444 129.765 238.49 128.17C242.537 126.632 243.62 120.877 244.247 110.792C244.874 100.708 247.325 81.6208 247.325 81.6208L243.506 80.2534Z" fill="#F7931A"></path>
<path class="hlfill" d="M92 114C100.837 114 108 106.837 108 98C108 89.1634 100.837 82 92 82C83.1634 82 76 89.1634 76 98C76 106.837 83.1634 114 92 114Z" fill="#F7931A"></path>
<path d="M92 111C99.1797 111 105 105.18 105 98C105 90.8203 99.1797 85 92 85C84.8203 85 79 90.8203 79 98C79 105.18 84.8203 111 92 111Z" stroke="#21284B" stroke-miterlimit="10" fill="none"></path>
<path d="M97 94L92 98L89 96" stroke="#21284B" stroke-miterlimit="10" fill="none"></path>
<path d="M100 99C100.552 99 101 98.5523 101 98C101 97.4477 100.552 97 100 97C99.4477 97 99 97.4477 99 98C99 98.5523 99.4477 99 100 99Z" fill="#21284B"></path>
<path d="M84 99C84.5523 99 85 98.5523 85 98C85 97.4477 84.5523 97 84 97C83.4477 97 83 97.4477 83 98C83 98.5523 83.4477 99 84 99Z" fill="#21284B"></path>
<path d="M92 91C92.5523 91 93 90.5523 93 90C93 89.4477 92.5523 89 92 89C91.4477 89 91 89.4477 91 90C91 90.5523 91.4477 91 92 91Z" fill="#21284B"></path>
<path d="M92 106C92.5523 106 93 105.552 93 105C93 104.448 92.5523 104 92 104C91.4477 104 91 104.448 91 105C91 105.552 91.4477 106 92 106Z" fill="#21284B"></path>
<path class="hlfill" d="M97 79C97 80.1046 94.7614 81 92 81C89.2386 81 87 80.1046 87 79C87 77.8954 89.2386 77 92 77C94.7614 77 97 77.8954 97 79Z" fill="#F7931A"></path>
<path class="hlfill" d="M197.318 171.771L202.043 167.126L203.512 168.571C203.754 168.809 204.144 168.882 204.461 168.754C204.795 168.626 205 168.315 205 167.949V158.86C205 158.384 204.609 158 204.126 158H194.882C194.528 158 194.212 158.201 194.063 158.53C193.933 158.86 194.008 159.225 194.249 159.463L196.333 161.511C196.667 161.841 197.225 161.841 197.579 161.511C197.914 161.182 197.914 160.634 197.579 160.286L196.984 159.701H203.252V165.846L202.656 165.261C202.322 164.931 201.764 164.931 201.41 165.261L196.072 170.509C195.737 170.839 195.737 171.387 196.072 171.735C196.24 171.899 196.463 171.991 196.686 171.991C196.928 172.027 197.151 171.954 197.318 171.771Z" fill="#F7931A"></path>
<path d="M193.765 164.821L192.088 163.036L190.412 161.25C190.261 161.089 190.043 161 189.841 161C189.64 161 189.422 161.089 189.271 161.25L187.125 163.536L184.979 165.821L184.308 165.107L183.637 164.393C183.52 164.268 183.369 164.25 183.235 164.304C183.101 164.357 183 164.482 183 164.661V172.589C183 172.696 183.05 172.804 183.117 172.875C183.184 172.946 183.285 173 183.386 173H190.831C190.998 173 191.116 172.893 191.166 172.75C191.216 172.607 191.2 172.446 191.082 172.321L190.277 171.464L189.473 170.607L191.619 168.321L193.765 166.036C193.916 165.875 194 165.643 194 165.429C194 165.196 193.916 164.982 193.765 164.821Z" fill="#FFFFFF"></path>
<defs>
<filter id="filter0_f_216_3967" x="172.264" y="91.0234" width="44.5078" height="52.422" filterUnits="userSpaceOnUse" color-interpolation-filters="sRGB">
<feFlood flood-opacity="0" result="BackgroundImageFix"></feFlood>
<feBlend mode="normal" in="SourceGraphic" in2="BackgroundImageFix" result="shape"></feBlend>
<feGaussianBlur stdDeviation="4.5" result="effect1_foregroundBlur_216_3967"></feGaussianBlur>
</filter>
<linearGradient id="paint0_linear_216_3967" x1="151.882" y1="141.156" x2="208.809" y2="140.234" gradientUnits="userSpaceOnUse">
<stop stop-color="#DFE6FF"></stop>
<stop offset="1" stop-color="#7992EA"></stop>
</linearGradient>
<linearGradient id="paint1_linear_216_3967" x1="224.418" y1="128.816" x2="158.31" y2="131.122" gradientUnits="userSpaceOnUse">
<stop stop-color="#4D62A9"></stop>
<stop offset="1" stop-color="#4863BD" stop-opacity="0"></stop>
<stop offset="1" stop-color="#ADBFFF"></stop>
</linearGradient>
<linearGradient id="paint2_linear_216_3967" x1="124.336" y1="307.516" x2="149.978" y2="313.047" gradientUnits="userSpaceOnUse">
<stop stop-color="#CBD7FF"></stop>
<stop offset="1" stop-color="#6D8CF8"></stop>
</linearGradient>
<linearGradient id="paint3_linear_216_3967" x1="140.864" y1="278.266" x2="180.794" y2="285.181" gradientUnits="userSpaceOnUse">
<stop stop-color="#C7D3FF"></stop>
<stop offset="1" stop-color="#557BFF"></stop>
</linearGradient>
<linearGradient id="paint4_linear_216_3967" x1="178.968" y1="258.156" x2="148.226" y2="250.321" gradientUnits="userSpaceOnUse">
<stop stop-color="#5A7FFF"></stop>
<stop offset="1" stop-color="#D8E0FF"></stop>
</linearGradient>
<linearGradient id="paint5_linear_216_3967" x1="146.735" y1="306.602" x2="115.45" y2="307.957" gradientUnits="userSpaceOnUse">
<stop stop-color="#4862BD"></stop>
<stop offset="1" stop-color="#A7BAFF"></stop>
</linearGradient>
<linearGradient id="paint6_linear_216_3967" x1="221.205" y1="310.715" x2="262.058" y2="305.643" gradientUnits="userSpaceOnUse">
<stop stop-color="#95AAF3"></stop>
<stop offset="1" stop-color="#C7D3FF"></stop>
</linearGradient>
<linearGradient id="paint7_linear_216_3967" x1="240.419" y1="306.172" x2="271.704" y2="307.528" gradientUnits="userSpaceOnUse">
<stop stop-color="#4862BD"></stop>
<stop offset="1" stop-color="#A7BAFF"></stop>
</linearGradient>
<linearGradient id="paint8_linear_216_3967" x1="224.877" y1="285.578" x2="262.058" y2="280.506" gradientUnits="userSpaceOnUse">
<stop stop-color="#7E9BFF"></stop>
<stop offset="1" stop-color="#EDF1FF"></stop>
</linearGradient>
<linearGradient id="paint9_linear_216_3967" x1="221.664" y1="235.305" x2="238.628" y2="228.396" gradientUnits="userSpaceOnUse">
<stop stop-color="#92AAFF"></stop>
<stop offset="1" stop-color="white"></stop>
</linearGradient>
<linearGradient id="paint10_linear_216_3967" x1="249.668" y1="160.809" x2="258.328" y2="178.207" gradientUnits="userSpaceOnUse">
<stop stop-color="#A2B6FF"></stop>
<stop offset="0.0001" stop-color="#A5B9FF"></stop>
<stop offset="1" stop-color="#E4EAFF"></stop>
</linearGradient>
<linearGradient id="paint11_linear_216_3967" x1="262.519" y1="177.34" x2="277.109" y2="206.108" gradientUnits="userSpaceOnUse">
<stop stop-color="#9CB2FF"></stop>
<stop offset="1" stop-color="#D8E0FF"></stop>
</linearGradient>
<linearGradient id="paint12_linear_216_3967" x1="250.773" y1="186.343" x2="250.773" y2="225.2" gradientUnits="userSpaceOnUse">
<stop stop-color="#96ADFF"></stop>
<stop offset="1" stop-color="#CDD8FF"></stop>
</linearGradient>
<linearGradient id="paint13_linear_216_3967" x1="239.568" y1="226.164" x2="227.632" y2="226.625" gradientUnits="userSpaceOnUse">
<stop stop-color="#B8C8FF"></stop>
<stop offset="1" stop-color="#E3EAFF"></stop>
</linearGradient>
<linearGradient id="paint14_linear_216_3967" x1="157.85" y1="188.23" x2="234.977" y2="187.308" gradientUnits="userSpaceOnUse">
<stop stop-color="#BCCBFF"></stop>
<stop offset="1" stop-color="#708BE9"></stop>
</linearGradient>
<linearGradient id="paint15_linear_216_3967" x1="226.714" y1="199.199" x2="155.555" y2="198.738" gradientUnits="userSpaceOnUse">
<stop offset="0.3625" stop-color="#4862BD"></stop>
<stop offset="1" stop-color="#ACBFFF"></stop>
</linearGradient>
<linearGradient id="paint16_linear_216_3967" x1="134.831" y1="160.646" x2="134.831" y2="178.389" gradientUnits="userSpaceOnUse">
<stop stop-color="#A4B8FF"></stop>
<stop offset="1" stop-color="#C6D2FF"></stop>
</linearGradient>
<linearGradient id="paint17_linear_216_3967" x1="105.515" y1="161.387" x2="100.507" y2="184.127" gradientUnits="userSpaceOnUse">
<stop stop-color="#A7BBFF"></stop>
<stop offset="1" stop-color="#E0E7FF"></stop>
</linearGradient>
<linearGradient id="paint18_linear_216_3967" x1="96.4698" y1="143.098" x2="85.3917" y2="164.049" gradientUnits="userSpaceOnUse">
<stop stop-color="#A0B6FF"></stop>
<stop offset="1" stop-color="#D6DFFF"></stop>
</linearGradient>
<linearGradient id="paint19_linear_216_3967" x1="88.9864" y1="145.27" x2="94.4508" y2="128.345" gradientUnits="userSpaceOnUse">
<stop stop-color="#CAD5FF"></stop>
<stop offset="1" stop-color="#9FB4FF"></stop>
</linearGradient>
<linearGradient id="paint20_linear_216_3967" x1="150.964" y1="127.445" x2="144.078" y2="128.367" gradientUnits="userSpaceOnUse">
<stop stop-color="#F7931A"></stop>
<stop offset="0.0001" stop-color="#F7931A"></stop>
<stop offset="0.46875" stop-color="#FBAD50"></stop>
<stop offset="1" stop-color="#FFCA89"></stop>
</linearGradient>
<linearGradient id="paint21_linear_216_3967" x1="244.618" y1="128.359" x2="239.569" y2="127.898" gradientUnits="userSpaceOnUse">
<stop stop-color="#5E3607"></stop>
<stop offset="1" stop-color="#F7931A"></stop>
</linearGradient>
<linearGradient id="paint0_linear_216_3967" x1="151.882" y1="141.156" x2="208.809" y2="140.234" gradientUnits="userSpaceOnUse">
<stop stop-color="#DFE6FF"></stop>
<stop offset="1" stop-color="#7992EA"></stop>
</linearGradient><linearGradient id="paint1_linear_216_3967" x1="224.418" y1="128.816" x2="158.31" y2="131.122" gradientUnits="userSpaceOnUse">
<stop stop-color="#4D62A9"></stop>
<stop offset="1" stop-color="#4863BD" stop-opacity="0"></stop>
<stop offset="1" stop-color="#ADBFFF"></stop>
</linearGradient><linearGradient id="paint2_linear_216_3967" x1="124.336" y1="307.516" x2="149.978" y2="313.047" gradientUnits="userSpaceOnUse">
<stop stop-color="#CBD7FF"></stop>
<stop offset="1" stop-color="#6D8CF8"></stop>
</linearGradient><linearGradient id="paint3_linear_216_3967" x1="140.864" y1="278.266" x2="180.794" y2="285.181" gradientUnits="userSpaceOnUse">
<stop stop-color="#C7D3FF"></stop>
<stop offset="1" stop-color="#557BFF"></stop>
</linearGradient><linearGradient id="paint4_linear_216_3967" x1="178.968" y1="258.156" x2="148.226" y2="250.321" gradientUnits="userSpaceOnUse">
<stop stop-color="#5A7FFF"></stop>
<stop offset="1" stop-color="#D8E0FF"></stop>
</linearGradient><linearGradient id="paint5_linear_216_3967" x1="146.735" y1="306.602" x2="115.45" y2="307.957" gradientUnits="userSpaceOnUse">
<stop stop-color="#4862BD"></stop>
<stop offset="1" stop-color="#A7BAFF"></stop>
</linearGradient><linearGradient id="paint6_linear_216_3967" x1="221.205" y1="310.715" x2="262.058" y2="305.643" gradientUnits="userSpaceOnUse">
<stop stop-color="#95AAF3"></stop>
<stop offset="1" stop-color="#C7D3FF"></stop>
</linearGradient><linearGradient id="paint7_linear_216_3967" x1="240.419" y1="306.172" x2="271.704" y2="307.528" gradientUnits="userSpaceOnUse">
<stop stop-color="#4862BD"></stop>
<stop offset="1" stop-color="#A7BAFF"></stop>
</linearGradient><linearGradient id="paint8_linear_216_3967" x1="224.877" y1="285.578" x2="262.058" y2="280.506" gradientUnits="userSpaceOnUse">
<stop stop-color="#7E9BFF"></stop>
<stop offset="1" stop-color="#EDF1FF"></stop>
</linearGradient><linearGradient id="paint9_linear_216_3967" x1="221.664" y1="235.305" x2="238.628" y2="228.396" gradientUnits="userSpaceOnUse">
<stop stop-color="#92AAFF"></stop>
<stop offset="1" stop-color="white"></stop>
</linearGradient><linearGradient id="paint10_linear_216_3967" x1="249.668" y1="160.809" x2="258.328" y2="178.207" gradientUnits="userSpaceOnUse">
<stop stop-color="#A2B6FF"></stop>
<stop offset="0.0001" stop-color="#A5B9FF"></stop>
<stop offset="1" stop-color="#E4EAFF"></stop>
</linearGradient><linearGradient id="paint11_linear_216_3967" x1="262.519" y1="177.34" x2="277.109" y2="206.108" gradientUnits="userSpaceOnUse">
<stop stop-color="#9CB2FF"></stop>
<stop offset="1" stop-color="#D8E0FF"></stop>
</linearGradient><linearGradient id="paint12_linear_216_3967" x1="250.773" y1="186.343" x2="250.773" y2="225.2" gradientUnits="userSpaceOnUse">
<stop stop-color="#96ADFF"></stop>
<stop offset="1" stop-color="#CDD8FF"></stop>
</linearGradient><linearGradient id="paint13_linear_216_3967" x1="239.568" y1="226.164" x2="227.632" y2="226.625" gradientUnits="userSpaceOnUse">
<stop stop-color="#B8C8FF"></stop>
<stop offset="1" stop-color="#E3EAFF"></stop>
</linearGradient><linearGradient id="paint14_linear_216_3967" x1="157.85" y1="188.23" x2="234.977" y2="187.308" gradientUnits="userSpaceOnUse">
<stop stop-color="#BCCBFF"></stop>
<stop offset="1" stop-color="#708BE9"></stop>
</linearGradient><linearGradient id="paint15_linear_216_3967" x1="226.714" y1="199.199" x2="155.555" y2="198.738" gradientUnits="userSpaceOnUse">
<stop offset="0.3625" stop-color="#4862BD"></stop>
<stop offset="1" stop-color="#ACBFFF"></stop>
</linearGradient><linearGradient id="paint16_linear_216_3967" x1="134.831" y1="160.646" x2="134.831" y2="178.389" gradientUnits="userSpaceOnUse">
<stop stop-color="#A4B8FF"></stop>
<stop offset="1" stop-color="#C6D2FF"></stop>
</linearGradient><linearGradient id="paint17_linear_216_3967" x1="105.515" y1="161.387" x2="100.507" y2="184.127" gradientUnits="userSpaceOnUse">
<stop stop-color="#A7BBFF"></stop>
<stop offset="1" stop-color="#E0E7FF"></stop>
</linearGradient><linearGradient id="paint18_linear_216_3967" x1="96.4698" y1="143.098" x2="85.3917" y2="164.049" gradientUnits="userSpaceOnUse">
<stop stop-color="#A0B6FF"></stop>
<stop offset="1" stop-color="#D6DFFF"></stop>
</linearGradient><linearGradient id="paint19_linear_216_3967" x1="88.9864" y1="145.27" x2="94.4508" y2="128.345" gradientUnits="userSpaceOnUse">
<stop stop-color="#CAD5FF"></stop>
<stop offset="1" stop-color="#9FB4FF"></stop>
</linearGradient></defs>
</svg>