<svg xmlns:xlink="http://www.w3.org/1999/xlink" width="393" height="361" viewBox="0 0 393 361" fill="none" xmlns="http://www.w3.org/2000/svg">
<path class="hlfill" d="M299 192.119C299 199.784 292.057 206 283.5 206C274.943 206 268 199.784 268 192.119C268 183.935 278.191 171.595 282.047 167.226C282.128 167.119 282.244 167.04 282.376 167.001C282.509 166.961 282.652 166.963 282.783 167.007C282.914 167.05 283.027 167.132 283.105 167.24C283.183 167.349 283.222 167.478 283.216 167.609C282.886 171.266 283.112 179.09 290.049 182.99C290.188 183.079 290.357 183.113 290.523 183.086C290.688 183.059 290.835 182.972 290.934 182.844C291.803 181.635 292.305 180.226 292.387 178.767C292.394 178.633 292.448 178.505 292.541 178.403C292.633 178.301 292.759 178.231 292.898 178.203C293.037 178.176 293.182 178.192 293.31 178.25C293.438 178.308 293.543 178.404 293.607 178.523C296.559 183.106 299 188.109 299 192.119Z" fill="#F7931A"></path>
<path d="M273.812 197.323C273.812 202.118 278.153 206 283.5 206C288.847 206 293.187 202.118 293.187 197.323C293.187 192.527 287.575 185.434 284.895 182.326C284.815 182.217 284.699 182.135 284.565 182.094C284.431 182.053 284.286 182.054 284.153 182.097C284.02 182.141 283.905 182.224 283.827 182.335C283.749 182.445 283.711 182.577 283.72 182.71C283.816 185.147 283.364 189.273 279.619 191.515C279.546 191.561 279.464 191.592 279.378 191.607C279.292 191.621 279.204 191.62 279.119 191.601C279.034 191.583 278.954 191.549 278.883 191.501C278.812 191.452 278.753 191.391 278.708 191.32C278.382 190.794 278.163 190.216 278.062 189.614C278.047 189.482 277.987 189.357 277.89 189.26C277.794 189.163 277.666 189.099 277.527 189.077C277.388 189.055 277.245 189.076 277.12 189.138C276.995 189.2 276.895 189.298 276.835 189.419C275.136 192.119 273.812 194.989 273.812 197.323Z" fill="#303E66"></path>
<path class="hlfill" fill-rule="evenodd" clip-rule="evenodd" d="M282.208 193.605C280.626 195.519 278.172 198.87 278.172 201.229C278.186 201.873 278.336 202.508 278.612 203.098C278.888 203.688 279.285 204.22 279.781 204.663C280.276 205.107 280.86 205.454 281.498 205.683C282.137 205.913 282.817 206.02 283.5 206C284.183 206.02 284.863 205.913 285.502 205.683C286.14 205.454 286.724 205.107 287.219 204.663C287.715 204.22 288.112 203.688 288.388 203.098C288.664 202.508 288.814 201.873 288.828 201.229C288.714 199.898 288.271 198.61 287.536 197.469C287.477 197.362 287.386 197.274 287.274 197.216C287.163 197.158 287.035 197.133 286.908 197.143C286.781 197.154 286.66 197.2 286.56 197.275C286.46 197.35 286.387 197.451 286.348 197.566C286.312 197.658 286.253 197.741 286.175 197.807C286.098 197.873 286.005 197.92 285.904 197.944C285.803 197.969 285.697 197.97 285.596 197.948C285.494 197.925 285.4 197.88 285.321 197.816C284.717 197.341 284.23 196.747 283.896 196.075C283.561 195.403 283.386 194.671 283.384 193.928C283.378 193.801 283.33 193.678 283.247 193.578C283.164 193.477 283.049 193.404 282.919 193.368C282.789 193.333 282.651 193.336 282.523 193.379C282.396 193.421 282.286 193.501 282.208 193.605ZM282.465 194.879C281.802 195.719 281.068 196.727 280.457 197.759C279.664 199.102 279.176 200.326 279.172 201.218C279.184 201.718 279.301 202.213 279.517 202.674C279.735 203.139 280.05 203.563 280.448 203.918C280.845 204.275 281.317 204.555 281.837 204.742C282.356 204.929 282.912 205.017 283.47 205L283.5 205L283.53 205C284.088 205.017 284.644 204.929 285.163 204.742C285.683 204.555 286.155 204.275 286.552 203.918C286.95 203.563 287.265 203.139 287.483 202.674C287.693 202.225 287.809 201.745 287.827 201.259C287.735 200.277 287.439 199.32 286.954 198.443C286.913 198.487 286.869 198.529 286.823 198.568C286.624 198.738 286.389 198.855 286.14 198.916C285.891 198.977 285.631 198.979 285.381 198.924C285.134 198.87 284.899 198.76 284.698 198.598C283.983 198.034 283.402 197.326 283.001 196.521C282.741 196 282.561 195.447 282.465 194.879Z" fill="#F7931A"></path>
<!-- <path d="M283.515 205.5L283.5 205.5L283.485 205.5C282.864 205.519 282.247 205.421 281.668 205.213C281.089 205.005 280.561 204.691 280.114 204.291C279.668 203.891 279.311 203.413 279.064 202.886C278.818 202.36 278.685 201.795 278.672 201.223C278.674 200.188 279.224 198.862 280.027 197.505C280.82 196.164 281.811 194.871 282.594 193.924L282.603 193.913L282.611 193.902C282.625 193.883 282.648 193.864 282.681 193.853C282.715 193.842 282.752 193.841 282.787 193.85C282.821 193.86 282.846 193.878 282.862 193.897C282.876 193.914 282.882 193.93 282.884 193.945C282.889 194.76 283.082 195.563 283.448 196.298C283.816 197.036 284.35 197.688 285.009 198.207C285.149 198.32 285.314 198.398 285.488 198.436C285.664 198.475 285.847 198.473 286.022 198.43C286.197 198.388 286.361 198.305 286.499 198.188C286.638 198.07 286.746 197.92 286.813 197.749L286.818 197.737L286.822 197.726C286.828 197.709 286.84 197.69 286.861 197.674C286.884 197.657 286.914 197.645 286.949 197.642C286.984 197.639 287.017 197.646 287.045 197.66C287.072 197.674 287.089 197.693 287.099 197.711L287.107 197.725L287.116 197.739C287.803 198.806 288.217 200.005 288.328 201.244C288.311 201.809 288.179 202.367 287.936 202.886C287.689 203.413 287.332 203.891 286.886 204.291C286.439 204.691 285.911 205.005 285.332 205.213C284.753 205.421 284.136 205.519 283.515 205.5Z" fill="#303F67" stroke="#FA9F31"/> -->
<mask id="mask0_216_3966" style="mask-type:alpha" maskUnits="userSpaceOnUse" x="151" y="150" width="101" height="63" fill="none">
<rect x="151" y="150" width="101" height="63" rx="31.5" fill="url(&quot;#paint0_linear_216_3966&quot;)"></rect>
</mask>
<g mask="url(#mask0_216_3966)" fill="none">
<rect x="151" y="150" width="101" height="63" rx="31.5" fill="url(&quot;#paint1_linear_216_3966&quot;)"></rect>
<rect x="242" y="162" width="37" height="42" rx="18.5" fill="url(&quot;#paint2_linear_216_3966&quot;)"></rect>
<rect x="125" y="162" width="37" height="42" rx="18.5" fill="url(&quot;#paint3_linear_216_3966&quot;)"></rect>
<path d="M222.143 148.87C219.412 157.534 211.404 163.767 201.906 163.767C192.408 163.767 184.338 157.534 181.669 148.87" stroke="#FFFFFF" stroke-width="0.5px" stroke-miterlimit="10" fill="none"></path>
<path d="M218.543 147C216.308 154.106 209.666 159.28 201.844 159.28C194.022 159.28 187.38 154.106 185.146 147" stroke="#FFFFFF" stroke-width="0.5px" stroke-miterlimit="10" fill="none"></path>
</g>
<path d="M237 179.653C237 190.019 237 208 202 208C167 208 167 190.247 167 179.653C167 164.504 182.651 169.955 202 169.955C221.349 169.955 237 164.504 237 179.653Z" fill="url(&quot;#paint4_linear_216_3966&quot;)"></path>
<path d="M184.649 188.5C189.209 188.5 192.905 191.783 192.905 187.205C192.905 182.626 189.209 178.914 184.649 178.914C180.089 178.914 176.393 182.626 176.393 187.205C176.393 191.783 180.089 188.5 184.649 188.5Z" fill="#2B2B2B"></path>
<path d="M218.256 188.5C222.816 188.5 226.512 191.783 226.512 187.205C226.512 182.626 222.816 178.914 218.256 178.914C213.696 178.914 210 182.626 210 187.205C210 191.783 213.696 188.5 218.256 188.5Z" fill="#2B2B2B"></path>
<path d="M217.5 184C218.328 184 219 183.328 219 182.5C219 181.672 218.328 181 217.5 181C216.672 181 216 181.672 216 182.5C216 183.328 216.672 184 217.5 184Z" fill="#FFFFFF"></path>
<path d="M183.5 184C184.328 184 185 183.328 185 182.5C185 181.672 184.328 181 183.5 181C182.672 181 182 181.672 182 182.5C182 183.328 182.672 184 183.5 184Z" fill="#FFFFFF"></path>
<path d="M214 186C214.552 186 215 185.552 215 185C215 184.448 214.552 184 214 184C213.448 184 213 184.448 213 185C213 185.552 213.448 186 214 186Z" fill="#FFFFFF"></path>
<path d="M180 186C180.552 186 181 185.552 181 185C181 184.448 180.552 184 180 184C179.448 184 179 184.448 179 185C179 185.552 179.448 186 180 186Z" fill="#FFFFFF"></path>
<path d="M203.494 324.049C205.585 324.049 206.428 325.359 206.428 326.549L174.39 346.049C173.096 344.179 171.428 340.049 172.428 335.272C173.055 332.276 196.677 324.049 203.494 324.049Z" fill="black"></path>
<mask id="mask1_216_3966" style="mask-type:alpha" maskUnits="userSpaceOnUse" x="173" y="325" width="35" height="34" fill="none">
<path d="M204.928 338.049C201.728 344.049 187.261 353.883 180.428 358.049L173.928 336.049L205.928 325.049C206.928 326.883 208.128 332.049 204.928 338.049Z" fill="url(&quot;#paint5_linear_216_3966&quot;)"></path>
</mask>
<g mask="url(#mask1_216_3966)" fill="none">
<path d="M204.928 338.049C201.728 344.049 187.261 353.883 180.428 358.049L173.928 336.049L205.928 325.049C206.928 326.883 208.128 332.049 204.928 338.049Z" fill="black"></path>
<path d="M204.826 337C201.626 343 187.159 352.833 180.326 357L173.826 335L205.826 324C206.826 325.833 208.026 331 204.826 337Z" fill="url(&quot;#paint6_linear_216_3966&quot;)"></path>
</g>
<path d="M173.855 336.272C171.455 338.272 179.855 357.772 181.855 357.772C185.355 357.772 186.355 341.821 186.355 339.272C186.355 335.272 176.855 333.772 173.855 336.272Z" fill="black"></path>
<path d="M172.427 337.049C170.027 339.049 178.428 358.549 180.427 358.549C183.927 358.549 184.927 342.599 184.927 340.049C184.927 336.049 175.427 334.549 172.427 337.049Z" fill="#3550AB"></path>
<mask id="mask2_216_3966" style="mask-type:alpha" maskUnits="userSpaceOnUse" x="198" y="292" width="90" height="27" fill="none">
<path d="M199.428 308.549C199.428 321.5 244.261 318.049 256.428 318.049C262.928 318.883 275.578 317.891 286.428 312.049C292.928 308.549 270.428 301.049 235.428 294.549C191.428 286.378 199.428 308.549 199.428 308.549Z" fill="#3550AB"></path>
</mask>
<g mask="url(#mask2_216_3966)" fill="none">
<path d="M199.428 308.549C199.428 325 244.261 318.049 256.428 318.049C262.928 318.883 275.578 317.891 286.428 312.049C292.928 308.549 270.428 301.049 235.428 294.549C191.428 286.378 199.428 308.549 199.428 308.549Z" fill="#3550AB"></path>
<path d="M200.996 303.858C220.996 309.358 245.83 313.358 257.996 313.358C264.496 314.191 277.147 313.2 287.996 307.358C294.496 303.858 271.996 296.358 236.996 289.858C192.996 281.686 200.996 303.858 200.996 303.858Z" fill="#203177"></path>
</g>
<path d="M228.927 304.549C236.127 306.149 263.594 305.883 276.427 305.549C285.427 302.049 236.427 290.049 230.427 289.049C224.427 288.049 219.927 302.549 228.927 304.549Z" fill="url(&quot;#paint7_linear_216_3966&quot;)"></path>
<circle cx="212.427" cy="333.049" r="8" fill="black"></circle>
<circle cx="285.428" cy="312.049" r="8" fill="black"></circle>
<path d="M292.102 335.935C300.365 334.028 300.788 324.577 298.521 315.191C296.254 305.805 290.674 303.982 284.009 305.451C269.814 308.582 236.693 319.96 221.847 325.157C217.605 326.642 215.217 331.093 216.272 335.462V335.462C217.247 339.496 220.891 342.296 225.038 342.135C240.107 341.548 275.298 339.812 292.102 335.935Z" fill="url(&quot;#paint8_linear_216_3966&quot;)"></path>
<path d="M299.96 324.049C293.363 325.08 278.232 327.442 270.486 328.652C262.236 329.94 263.203 337.304 262.97 339.947" stroke="#FFFFFF" stroke-width="0.5px" fill="none"></path>
<path class="hlfill" d="M197.408 324.049C195.316 324.049 194.474 325.359 194.474 326.549L226.511 346.049C227.806 344.179 229.474 340.049 228.474 335.272C227.847 332.276 204.224 324.049 197.408 324.049Z" fill="#F7931A"></path>
<mask id="mask3_216_3966" style="mask-type:alpha" maskUnits="userSpaceOnUse" x="193" y="325" width="34" height="34" fill="none">
<path d="M195.974 338.049C199.174 344.049 213.641 353.883 220.474 358.049L226.974 336.049L194.974 325.049C193.974 326.883 192.774 332.049 195.974 338.049Z" fill="url(&quot;#paint9_linear_216_3966&quot;)"></path>
</mask>
<g mask="url(#mask3_216_3966)" fill="none">
<path d="M195.974 338.049C199.174 344.049 213.641 353.883 220.474 358.049L226.974 336.049L194.974 325.049C193.974 326.883 192.774 332.049 195.974 338.049Z" fill="black"></path>
<path d="M196.076 337C199.276 343 213.743 352.833 220.576 357L227.076 335L195.076 324C194.076 325.833 192.876 331 196.076 337Z" fill="url(&quot;#paint10_linear_216_3966&quot;)"></path>
</g>
<path d="M227.047 336.272C229.447 338.272 221.047 357.772 219.047 357.772C215.547 357.772 214.547 341.821 214.547 339.272C214.547 335.272 224.047 333.772 227.047 336.272Z" fill="black"></path>
<path d="M228.474 337.049C230.874 339.049 222.474 358.549 220.474 358.549C216.974 358.549 215.974 342.599 215.974 340.049C215.974 336.049 225.474 334.549 228.474 337.049Z" fill="#3550AB"></path>
<mask id="mask4_216_3966" style="mask-type:alpha" maskUnits="userSpaceOnUse" x="113" y="292" width="90" height="28" fill="none">
<path d="M201.474 308.549C201.474 324 156.641 318.049 144.474 318.049C137.974 318.883 125.324 317.891 114.474 312.049C107.974 308.549 130.474 301.049 165.474 294.549C209.474 286.378 201.474 308.549 201.474 308.549Z" fill="#3550AB"></path>
</mask>
<g mask="url(#mask4_216_3966)" fill="none">
<path d="M201.474 308.549C201.474 328 156.641 318.049 144.474 318.049C137.974 318.883 125.324 317.891 114.474 312.049C107.974 308.549 130.474 301.049 165.474 294.549C209.474 286.378 201.474 308.549 201.474 308.549Z" fill="#3550AB"></path>
<path d="M199.905 303.858C179.905 309.358 155.072 313.358 142.905 313.358C136.405 314.191 123.755 313.2 112.905 307.358C106.405 303.858 128.905 296.358 163.905 289.858C207.905 281.686 199.905 303.858 199.905 303.858Z" fill="#203177"></path>
</g>
<path d="M171.974 304.549C164.774 306.149 137.308 305.883 124.474 305.549C115.474 302.049 164.474 290.049 170.474 289.049C176.474 288.049 180.974 302.549 171.974 304.549Z" fill="url(&quot;#paint11_linear_216_3966&quot;)"></path>
<circle r="8" transform="matrix(-1 0 0 1 188.474 333.049)" fill="black"></circle>
<circle r="8" transform="matrix(-1 0 0 1 115.474 312.049)" fill="black"></circle>
<path d="M108.799 335.935C100.537 334.028 100.113 324.577 102.38 315.191C104.647 305.805 110.227 303.982 116.893 305.451C131.088 308.582 164.208 319.96 179.055 325.157C183.296 326.642 185.685 331.093 184.629 335.462V335.462C183.655 339.496 180.01 342.296 175.863 342.135C160.794 341.548 125.603 339.812 108.799 335.935Z" fill="url(&quot;#paint12_linear_216_3966&quot;)"></path>
<path d="M100.941 324.049C107.538 325.08 122.669 327.442 130.416 328.652C138.666 329.94 137.698 337.304 137.931 339.947" stroke="#FFFFFF" stroke-width="0.5px" fill="none"></path>
<path d="M243.954 249.398C240.781 274.925 230.224 315 202.031 315C173.837 315 162.822 275.084 159.983 249.398L159.983 232.5C159.983 215 172.576 215 175.5 215L226.5 215C229.423 215 244.165 215 244.165 232.5L243.954 249.398Z" fill="url(&quot;#paint13_linear_216_3966&quot;)"></path>
<path d="M175 215H227V249C227 255.627 221.627 261 215 261H187C180.373 261 175 255.627 175 249V215Z" fill="url(&quot;#paint14_linear_216_3966&quot;)"></path>
<path d="M222.5 222C223.328 222 224 221.328 224 220.5C224 219.672 223.328 219 222.5 219C221.672 219 221 219.672 221 220.5C221 221.328 221.672 222 222.5 222Z" fill="#FFFFFF"></path>
<path d="M217.5 222C218.328 222 219 221.328 219 220.5C219 219.672 218.328 219 217.5 219C216.672 219 216 219.672 216 220.5C216 221.328 216.672 222 217.5 222Z" fill="#FFFFFF"></path>
<path d="M212.5 222C213.328 222 214 221.328 214 220.5C214 219.672 213.328 219 212.5 219C211.672 219 211 219.672 211 220.5C211 221.328 211.672 222 212.5 222Z" fill="#FFFFFF"></path>
<path class="hlfill" d="M205.318 248.771L210.043 244.126L211.512 245.571C211.754 245.809 212.144 245.882 212.461 245.754C212.795 245.626 213 245.315 213 244.949V235.86C213 235.384 212.609 235 212.126 235H202.882C202.528 235 202.212 235.201 202.063 235.53C201.933 235.86 202.008 236.225 202.249 236.463L204.333 238.511C204.667 238.841 205.225 238.841 205.579 238.511C205.914 238.182 205.914 237.634 205.579 237.286L204.984 236.701H211.252V242.846L210.656 242.261C210.322 241.931 209.764 241.931 209.41 242.261L204.072 247.509C203.737 247.839 203.737 248.387 204.072 248.735C204.24 248.899 204.463 248.991 204.686 248.991C204.928 249.027 205.151 248.954 205.318 248.771Z" fill="#F7931A"></path>
<path d="M201.765 241.821L200.088 240.036L198.412 238.25C198.261 238.089 198.043 238 197.841 238C197.64 238 197.422 238.089 197.271 238.25L195.125 240.536L192.979 242.821L192.308 242.107L191.637 241.393C191.52 241.268 191.369 241.25 191.235 241.304C191.101 241.357 191 241.482 191 241.661V249.589C191 249.696 191.05 249.804 191.117 249.875C191.184 249.946 191.285 250 191.386 250H198.831C198.998 250 199.116 249.893 199.166 249.75C199.216 249.607 199.2 249.446 199.082 249.321L198.277 248.464L197.473 247.607L199.619 245.321L201.765 243.036C201.916 242.875 202 242.643 202 242.429C202 242.196 201.916 241.982 201.765 241.821Z" fill="#FFFFFF"></path>
<path d="M248.288 226.327L247.607 226.775C241.608 230.719 239.942 238.78 243.886 244.779L263.023 273.887L274.567 266.297L248.288 226.327Z" fill="#3550AB"></path>
<path d="M237.5 218.5C239.278 214.22 253.5 215.5 253.5 226L248.716 245C248.763 246.204 248.863 248.327 248 249.5L246.229 253.607C245.028 255.207 241.231 254.187 240.967 252.5C238.5 245 234.797 226.374 237.5 218.5Z" fill="url(&quot;#paint15_linear_216_3966&quot;)"></path>
<mask id="mask5_216_3966" style="mask-type:alpha" maskUnits="userSpaceOnUse" x="244" y="224" width="10" height="31" fill="none">
<path d="M252.478 237.334C251.038 243.52 248.086 254.486 246 254C243.914 253.514 243.483 241.761 244.924 235.575C246.364 229.389 250.392 224.014 252.478 224.5C254.564 224.986 253.919 231.149 252.478 237.334Z" fill="black"></path>
</mask>
<g mask="url(#mask5_216_3966)" fill="none">
<path d="M252.478 237.334C251.038 243.52 248.086 254.486 246 254C243.914 253.514 243.483 241.761 244.924 235.575C246.364 229.389 250.392 224.014 252.478 224.5C254.564 224.986 253.919 231.149 252.478 237.334Z" fill="black"></path>
<path d="M248.288 226.327L247.607 226.775C241.608 230.719 239.942 238.78 243.886 244.779L263.023 273.887L274.567 266.297L248.288 226.327Z" fill="#3550AB"></path>
</g>
<circle cx="266" cy="268" r="7" fill="black"></circle>
<path d="M289.53 239.316C289.53 239.316 287.553 232.931 277.66 230.6C267.768 228.269 263.149 233.099 263.149 233.099L261.079 261.092C260.743 265.633 263.759 269.744 268.191 270.789V270.789C272.623 271.833 277.156 269.501 278.883 265.287L289.53 239.316Z" fill="url(&quot;#paint16_linear_216_3966&quot;)"></path>
<ellipse cx="276.504" cy="234.848" rx="13.5" ry="4.97618" transform="rotate(13.3493 276.504 234.848)" fill="black"></ellipse>
<path d="M264.766 268.86C265.601 265.677 267.514 258.378 268.494 254.642C269.538 250.662 263.889 249.089 262.001 248.269" stroke="#FFFFFF" stroke-width="0.5px" fill="none"></path>
<path d="M156.138 226.327L156.774 226.748C162.764 230.707 164.434 238.788 160.504 244.797L141.482 273.887L130 266.297L156.138 226.327Z" fill="#3550AB"></path>
<path d="M166.868 218.5C165.099 214.22 150.954 215.5 150.954 226L155.712 245C155.665 246.204 155.566 248.327 156.424 249.5L158.185 253.607C159.38 255.207 163.157 254.187 163.42 252.5C165.873 245 169.556 226.374 166.868 218.5Z" fill="url(&quot;#paint17_linear_216_3966&quot;)"></path>
<mask id="mask6_216_3966" style="mask-type:alpha" maskUnits="userSpaceOnUse" x="150" y="224" width="11" height="31" fill="none">
<path d="M151.97 237.334C153.403 243.52 156.338 254.486 158.413 254C160.488 253.514 160.917 241.761 159.484 235.575C158.051 229.389 154.045 224.014 151.97 224.5C149.895 224.986 150.537 231.149 151.97 237.334Z" fill="black"></path>
</mask>
<g mask="url(#mask6_216_3966)" fill="none">
<path d="M151.97 237.334C153.403 243.52 156.338 254.486 158.413 254C160.488 253.514 160.917 241.761 159.484 235.575C158.051 229.389 154.045 224.014 151.97 224.5C149.895 224.986 150.537 231.149 151.97 237.334Z" fill="black"></path>
<path d="M156.137 226.327L156.774 226.748C162.764 230.707 164.434 238.788 160.504 244.797L141.481 273.887L130 266.297L156.137 226.327Z" fill="#3550AB"></path>
</g>
<circle r="7.5" transform="matrix(-1 0 0 1 137.5 268.5)" fill="black"></circle>
<path d="M122.299 300.481C122.299 300.481 125.383 306.41 135.534 306.937C145.684 307.464 149.366 301.886 149.366 301.886L146.404 273.974C145.923 269.446 142.222 265.939 137.675 265.703V265.703C133.127 265.467 129.083 268.571 128.136 273.025L122.299 300.481Z" fill="url(&quot;#paint18_linear_216_3966&quot;)"></path>
<ellipse cx="135.913" cy="302.55" rx="13.5" ry="4.97618" transform="rotate(-176.937 135.913 302.55)" fill="black"></ellipse>
<path d="M141.389 266.989C141.136 270.27 140.556 277.793 140.259 281.645C139.943 285.747 145.783 286.286 147.787 286.755" stroke="#FFFFFF" stroke-width="0.5px" fill="none"></path>
<path class="hlfill" d="M280.889 234.314L274.795 232.553C273.146 232.086 272.501 229.911 273.593 228.337L279.489 219.513C280.16 218.549 283.115 219.177 283.225 220.307L284.135 231.102C284.358 233.071 282.649 234.805 280.889 234.314Z" fill="#F7931A"></path>
<path class="hlfill" d="M299.32 229.844C299.32 229.844 292.299 237.38 292.17 234.149C292.041 230.918 291.191 227.242 295.224 225.537C298.709 223.947 307.211 221.502 299.32 229.844Z" fill="#F7931A"></path>
<path class="hlfill" d="M263.169 222.277C263.169 222.277 267.035 231.778 268.355 228.855C269.62 225.92 271.692 222.749 268.554 219.694C265.803 217.012 258.723 211.663 263.169 222.277Z" fill="#F7931A"></path>
<path class="hlfill" d="M137.264 310.771L132.411 311.062C131.104 311.14 130.26 312.683 130.777 314.02L134.224 322.582C134.587 323.431 135.648 323.43 135.907 322.544L139.126 313.707C139.663 312.245 138.633 310.69 137.264 310.771Z" fill="#F7931A"></path>
<path class="hlfill" d="M147.521 317.31C147.521 317.31 151.452 306.814 148.228 308.25C145.005 309.687 141.067 310.668 141.29 315.444C141.48 319.661 143.232 329.133 147.521 317.31Z" fill="#F7931A"></path>
<path class="hlfill" d="M121.819 316.669C121.819 316.669 118.25 306.062 121.399 307.553C124.551 309.106 128.49 310.239 128.084 314.927C127.772 319.112 125.714 328.563 121.819 316.669Z" fill="#F7931A"></path>
<circle cx="202.5" cy="120.5" r="11.25" stroke="#FFFFFF" stroke-opacity="0.2" stroke-width="0.5px" fill="none"></circle>
<circle cx="202.5" cy="120.5" r="18.25" stroke="#FFFFFF" stroke-opacity="0.2" stroke-width="0.5px" fill="none"></circle>
<path d="M202.5 149.5V119.5" stroke="#FFFFFF" fill="none"></path>
<mask id="mask7_216_3966" style="mask-type:alpha" maskUnits="userSpaceOnUse" x="192" y="147" width="21" height="6" fill="none">
<path class="hlfill" d="M192.167 151.163C192.01 150.969 192.094 150.716 192.263 150.531L193.716 148.946C194.853 147.706 196.458 147 198.139 147L206.86 147C208.542 147 210.147 147.706 211.283 148.946L212.737 150.531C212.906 150.716 212.99 150.969 212.832 151.163C212.335 151.778 210.357 153 202.5 153C194.642 153 192.665 151.778 192.167 151.163Z" fill="#F7931A"></path>
</mask>
<g mask="url(#mask7_216_3966)" fill="none">
<path class="hlfill" d="M192.167 151.163C192.01 150.969 192.094 150.716 192.263 150.531L193.716 148.946C194.853 147.706 196.458 147 198.139 147L206.86 147C208.542 147 210.147 147.706 211.283 148.946L212.737 150.531C212.906 150.716 212.99 150.969 212.832 151.163C212.335 151.778 210.357 153 202.5 153C194.642 153 192.665 151.778 192.167 151.163Z" fill="#F7931A"></path>
<path d="M192.447 149.064L193.901 147.478C194.99 146.29 196.528 145.614 198.139 145.614L206.86 145.614C208.472 145.614 210.01 146.29 211.099 147.478L212.553 149.064C212.615 149.132 212.651 149.202 212.662 149.257C212.672 149.305 212.664 149.338 212.638 149.37C212.439 149.616 211.882 150.057 210.366 150.433C208.855 150.809 206.418 151.114 202.5 151.114C198.582 151.114 196.145 150.809 194.634 150.433C193.118 150.057 192.561 149.616 192.362 149.37C192.336 149.338 192.328 149.305 192.338 149.257C192.349 149.202 192.385 149.132 192.447 149.064Z" stroke="#000000" stroke-opacity="0.29" stroke-width="0.5px" fill="none"></path>
</g>
<circle class="hlfill" cx="202.5" cy="120.5" r="3.5" fill="#F7931A"></circle>
<defs>
<linearGradient id="paint0_linear_216_3966" x1="256" y1="182" x2="146" y2="182" gradientUnits="userSpaceOnUse">
<stop stop-color="#7992EA"></stop>
<stop offset="1" stop-color="#DEE5FF"></stop>
</linearGradient>
<linearGradient id="paint1_linear_216_3966" x1="256" y1="182" x2="146" y2="182" gradientUnits="userSpaceOnUse">
<stop stop-color="#7992EA"></stop>
<stop offset="1" stop-color="#DEE5FF"></stop>
</linearGradient>
<linearGradient id="paint2_linear_216_3966" x1="280.465" y1="183.333" x2="240.168" y2="183.333" gradientUnits="userSpaceOnUse">
<stop stop-color="#40529A"></stop>
</linearGradient>
<linearGradient id="paint3_linear_216_3966" x1="163.465" y1="183.333" x2="123.168" y2="183.333" gradientUnits="userSpaceOnUse">
<stop stop-color="#40529A"></stop>
</linearGradient>
<linearGradient id="paint4_linear_216_3966" x1="234.912" y1="202.039" x2="163.457" y2="204.735" gradientUnits="userSpaceOnUse">
<stop stop-color="#4963BD"></stop>
<stop offset="1" stop-color="#92A3E1"></stop>
</linearGradient>
<linearGradient id="paint5_linear_216_3966" x1="190.466" y1="325.049" x2="190.466" y2="358.049" gradientUnits="userSpaceOnUse">
<stop stop-color="#B2C3FF"></stop>
<stop offset="1" stop-color="#5C7AE2"></stop>
</linearGradient>
<linearGradient id="paint6_linear_216_3966" x1="190.364" y1="324" x2="190.364" y2="357" gradientUnits="userSpaceOnUse">
<stop stop-color="#B2C3FF"></stop>
<stop offset="1" stop-color="#5C7AE2"></stop>
</linearGradient>
<linearGradient id="paint7_linear_216_3966" x1="261.927" y1="290.049" x2="250.683" y2="305.802" gradientUnits="userSpaceOnUse">
<stop stop-color="#617EE3"></stop>
<stop offset="1" stop-color="#BCCBFF"></stop>
</linearGradient>
<linearGradient id="paint8_linear_216_3966" x1="259.416" y1="337.881" x2="253.37" y2="312.852" gradientUnits="userSpaceOnUse">
<stop stop-color="#B2C3FF"></stop>
<stop offset="1" stop-color="#5674DF"></stop>
</linearGradient>
<linearGradient id="paint9_linear_216_3966" x1="210.436" y1="325.049" x2="210.436" y2="358.049" gradientUnits="userSpaceOnUse">
<stop stop-color="#B2C3FF"></stop>
<stop offset="1" stop-color="#5C7AE2"></stop>
</linearGradient>
<linearGradient id="paint10_linear_216_3966" x1="210.538" y1="324" x2="210.538" y2="357" gradientUnits="userSpaceOnUse">
<stop stop-color="#B2C3FF"></stop>
<stop offset="1" stop-color="#5C7AE2"></stop>
</linearGradient>
<linearGradient id="paint11_linear_216_3966" x1="138.974" y1="290.049" x2="150.219" y2="305.802" gradientUnits="userSpaceOnUse">
<stop stop-color="#617EE3"></stop>
<stop offset="1" stop-color="#BCCBFF"></stop>
</linearGradient>
<linearGradient id="paint12_linear_216_3966" x1="141.486" y1="337.881" x2="147.532" y2="312.852" gradientUnits="userSpaceOnUse">
<stop stop-color="#B2C3FF"></stop>
<stop offset="1" stop-color="#5674DF"></stop>
</linearGradient>
<linearGradient id="paint13_linear_216_3966" x1="162.546" y1="266.356" x2="246.714" y2="265.355" gradientUnits="userSpaceOnUse">
<stop stop-color="#BCCBFF"></stop>
<stop offset="1" stop-color="#708BE9"></stop>
</linearGradient>
<linearGradient id="paint14_linear_216_3966" x1="175" y1="235.346" x2="230.5" y2="235.346" gradientUnits="userSpaceOnUse">
<stop stop-color="#46569D"></stop>
<stop offset="1" stop-color="#26398B"></stop>
</linearGradient>
<linearGradient id="paint15_linear_216_3966" x1="248.5" y1="217" x2="239" y2="247" gradientUnits="userSpaceOnUse">
<stop stop-color="#2A3D8E"></stop>
<stop offset="1" stop-color="#44559C"></stop>
</linearGradient>
<linearGradient id="paint16_linear_216_3966" x1="286.006" y1="254.27" x2="259.625" y2="248.053" gradientUnits="userSpaceOnUse">
<stop stop-color="#5674DF"></stop>
<stop offset="1" stop-color="#B2C3FF"></stop>
</linearGradient>
<linearGradient id="paint17_linear_216_3966" x1="163.093" y1="216.231" x2="153.413" y2="252.747" gradientUnits="userSpaceOnUse">
<stop stop-color="#2A3D8E"></stop>
<stop offset="1" stop-color="#46569D"></stop>
</linearGradient>
<linearGradient id="paint18_linear_216_3966" x1="123.095" y1="285.138" x2="150.163" y2="286.543" gradientUnits="userSpaceOnUse">
<stop stop-color="#B2C3FF"></stop>
<stop offset="1" stop-color="#5674DF"></stop>
</linearGradient>
<linearGradient id="paint0_linear_216_3966" x1="256" y1="182" x2="146" y2="182" gradientUnits="userSpaceOnUse">
<stop stop-color="#7992EA"></stop>
<stop offset="1" stop-color="#DEE5FF"></stop>
</linearGradient><linearGradient id="paint1_linear_216_3966" x1="256" y1="182" x2="146" y2="182" gradientUnits="userSpaceOnUse">
<stop stop-color="#7992EA"></stop>
<stop offset="1" stop-color="#DEE5FF"></stop>
</linearGradient><linearGradient id="paint2_linear_216_3966" x1="280.465" y1="183.333" x2="240.168" y2="183.333" gradientUnits="userSpaceOnUse">
<stop stop-color="#40529A"></stop>
</linearGradient><linearGradient id="paint3_linear_216_3966" x1="163.465" y1="183.333" x2="123.168" y2="183.333" gradientUnits="userSpaceOnUse">
<stop stop-color="#40529A"></stop>
</linearGradient><linearGradient id="paint4_linear_216_3966" x1="234.912" y1="202.039" x2="163.457" y2="204.735" gradientUnits="userSpaceOnUse">
<stop stop-color="#4963BD"></stop>
<stop offset="1" stop-color="#92A3E1"></stop>
</linearGradient><linearGradient id="paint5_linear_216_3966" x1="190.466" y1="325.049" x2="190.466" y2="358.049" gradientUnits="userSpaceOnUse">
<stop stop-color="#B2C3FF"></stop>
<stop offset="1" stop-color="#5C7AE2"></stop>
</linearGradient><linearGradient id="paint6_linear_216_3966" x1="190.364" y1="324" x2="190.364" y2="357" gradientUnits="userSpaceOnUse">
<stop stop-color="#B2C3FF"></stop>
<stop offset="1" stop-color="#5C7AE2"></stop>
</linearGradient><linearGradient id="paint7_linear_216_3966" x1="261.927" y1="290.049" x2="250.683" y2="305.802" gradientUnits="userSpaceOnUse">
<stop stop-color="#617EE3"></stop>
<stop offset="1" stop-color="#BCCBFF"></stop>
</linearGradient><linearGradient id="paint8_linear_216_3966" x1="259.416" y1="337.881" x2="253.37" y2="312.852" gradientUnits="userSpaceOnUse">
<stop stop-color="#B2C3FF"></stop>
<stop offset="1" stop-color="#5674DF"></stop>
</linearGradient><linearGradient id="paint9_linear_216_3966" x1="210.436" y1="325.049" x2="210.436" y2="358.049" gradientUnits="userSpaceOnUse">
<stop stop-color="#B2C3FF"></stop>
<stop offset="1" stop-color="#5C7AE2"></stop>
</linearGradient><linearGradient id="paint10_linear_216_3966" x1="210.538" y1="324" x2="210.538" y2="357" gradientUnits="userSpaceOnUse">
<stop stop-color="#B2C3FF"></stop>
<stop offset="1" stop-color="#5C7AE2"></stop>
</linearGradient><linearGradient id="paint11_linear_216_3966" x1="138.974" y1="290.049" x2="150.219" y2="305.802" gradientUnits="userSpaceOnUse">
<stop stop-color="#617EE3"></stop>
<stop offset="1" stop-color="#BCCBFF"></stop>
</linearGradient><linearGradient id="paint12_linear_216_3966" x1="141.486" y1="337.881" x2="147.532" y2="312.852" gradientUnits="userSpaceOnUse">
<stop stop-color="#B2C3FF"></stop>
<stop offset="1" stop-color="#5674DF"></stop>
</linearGradient><linearGradient id="paint13_linear_216_3966" x1="162.546" y1="266.356" x2="246.714" y2="265.355" gradientUnits="userSpaceOnUse">
<stop stop-color="#BCCBFF"></stop>
<stop offset="1" stop-color="#708BE9"></stop>
</linearGradient><linearGradient id="paint14_linear_216_3966" x1="175" y1="235.346" x2="230.5" y2="235.346" gradientUnits="userSpaceOnUse">
<stop stop-color="#46569D"></stop>
<stop offset="1" stop-color="#26398B"></stop>
</linearGradient><linearGradient id="paint15_linear_216_3966" x1="248.5" y1="217" x2="239" y2="247" gradientUnits="userSpaceOnUse">
<stop stop-color="#2A3D8E"></stop>
<stop offset="1" stop-color="#44559C"></stop>
</linearGradient><linearGradient id="paint16_linear_216_3966" x1="286.006" y1="254.27" x2="259.625" y2="248.053" gradientUnits="userSpaceOnUse">
<stop stop-color="#5674DF"></stop>
<stop offset="1" stop-color="#B2C3FF"></stop>
</linearGradient><linearGradient id="paint17_linear_216_3966" x1="163.093" y1="216.231" x2="153.413" y2="252.747" gradientUnits="userSpaceOnUse">
<stop stop-color="#2A3D8E"></stop>
<stop offset="1" stop-color="#46569D"></stop>
</linearGradient><linearGradient id="paint18_linear_216_3966" x1="123.095" y1="285.138" x2="150.163" y2="286.543" gradientUnits="userSpaceOnUse">
<stop stop-color="#B2C3FF"></stop>
<stop offset="1" stop-color="#5674DF"></stop>
</linearGradient></defs>
</svg>