<svg xmlns:xlink="http://www.w3.org/1999/xlink" width="374" height="552" viewBox="0 0 374 552" fill="none" xmlns="http://www.w3.org/2000/svg">
<g clip-path="url(#clip0_151_7687)" fill="none">
<rect y="-330" width="374" height="734" fill="url(&quot;#paint0_linear_151_7687&quot;)"></rect>
<path id="auth_svg_bg_path" fill-rule="evenodd" clip-rule="evenodd" d="M38.9676 308.043C40.4748 308.26 41.9874 308.532 43.5 308.864C68.5 314.364 86.5 301.864 96.5 292.364C106.5 282.864 125.5 267.364 150 273.364C174.5 279.364 186 271.864 200.5 255.364C215 238.864 235.5 243.364 246 246.364C256.5 249.364 278.5 246.864 291.5 228.864C304.5 210.864 323 207.364 345 214.364C362.6 219.964 374 216.698 377.5 214.364V423.364H72.5V517.364H-309V408.364C-301.5 404.698 -281.5 398.464 -261.5 402.864C-236.5 408.364 -218.5 395.864 -208.5 386.364C-198.5 376.864 -179.5 361.364 -155 367.364C-130.5 373.364 -119 365.864 -104.5 349.364C-90 332.864 -69.5 337.364 -59 340.364C-48.5 343.364 -26.5 340.864 -13.5 322.864C-0.703857 305.147 17.4211 301.478 38.9676 308.043Z" fill="url(&quot;#paint1_linear_151_7687&quot;)"></path>
<g filter="url(#filter0_f_151_7687)" fill="none">
<ellipse cx="411.327" cy="-36.8137" rx="252.089" ry="84.2276" transform="rotate(-37.4623 411.327 -36.8137)" fill="black" fill-opacity="0.6"></ellipse>
</g>
<g filter="url(#filter1_f_151_7687)" fill="none">
<ellipse cx="-107.673" cy="272.186" rx="252.089" ry="84.2276" transform="rotate(-37.4623 -107.673 272.186)" fill="black" fill-opacity="0.6"></ellipse>
</g>
<path d="M283.563 348.205C278.602 357.2 276.748 367.379 271.591 369.295C285.528 380.068 358.661 339.973 399.938 319.343C372.594 301.502 362.849 316.37 358.421 320.752C353.992 325.133 350.638 323.048 339.783 319.595C328.928 316.142 325.665 319.371 318.206 328.533C310.747 337.695 299.378 336.057 295.603 337.238C291.829 338.419 289.765 336.961 283.563 348.205Z" fill="#BDCBEE"></path>
<g filter="url(#filter2_f_151_7687)" fill="none">
<circle cx="265" cy="310" r="66" fill="#76B8DE" fill-opacity="0.29"></circle>
</g>
<path d="M357.983 242.582C359.7 245.943 358.805 250.584 355.412 256.232C352.036 261.852 346.266 268.329 338.534 275.25C323.076 289.088 299.862 304.627 272.556 318.575C245.25 332.524 219.054 342.224 198.782 346.639C188.642 348.846 180.013 349.725 173.48 349.167C166.916 348.606 162.631 346.611 160.914 343.25C159.197 339.888 160.092 335.248 163.485 329.6C166.862 323.98 172.631 317.503 180.363 310.582C195.822 296.744 219.035 281.205 246.341 267.256C273.647 253.308 299.843 243.608 320.115 239.193C330.255 236.985 338.884 236.106 345.417 236.665C351.981 237.226 356.266 239.221 357.983 242.582Z" stroke="#9DC1F8" fill="none"></path>
<g filter="url(#filter3_f_151_7687)" fill="none">
<ellipse cx="262.46" cy="305.232" rx="74.2689" ry="74.8532" transform="rotate(-56.3535 262.46 305.232)" fill="#FFFFFF" fill-opacity="0.18"></ellipse>
</g>
<circle cx="262.502" cy="309.142" r="77.9857" transform="rotate(-56.3535 262.502 309.142)" fill="#FFFFFF"></circle>
<mask id="mask0_151_7687" style="mask-type:alpha" maskUnits="userSpaceOnUse" x="184" y="232" width="161" height="160" fill="none">
<path d="M308.274 245.719C322.614 255.264 332.856 268.656 338.543 283.618C339.796 286.912 342.315 286.522 342.822 288.158C343.217 290.697 343.692 291.486 344.185 294.208C344.433 295.579 342.351 296.724 342.844 299.955C345.734 318.861 341.857 338.861 330.425 356.037C306.078 392.618 256.687 402.535 220.107 378.188C183.527 353.842 173.609 304.451 197.956 267.87C204.565 257.941 213.019 249.976 222.562 244.127C224.023 243.232 222.886 241.236 223.842 240.799C226.233 239.706 226.731 239.309 228.897 238.191C229.541 237.899 231.485 239.388 233.184 238.671C256.968 228.634 285.175 230.346 308.274 245.719Z" fill="url(&quot;#paint2_radial_151_7687&quot;)"></path>
</mask>
<g mask="url(#mask0_151_7687)" fill="none">
<ellipse cx="265.581" cy="312.879" rx="79.5635" ry="85.7823" transform="rotate(-56.3535 265.581 312.879)" fill="url(&quot;#paint3_linear_151_7687&quot;)"></ellipse>
<path d="M340.214 313.577C325.632 322.063 291.064 332.895 269.454 308.341C242.442 277.647 218.757 268.095 172.615 297.173" stroke="url(&quot;#paint4_linear_151_7687&quot;)" stroke-opacity="0.03" stroke-width="3px" fill="none"></path>
<path d="M343.307 298.127C328.725 306.612 294.157 317.445 272.547 292.89C245.535 262.197 221.85 252.644 175.708 281.722" stroke="url(&quot;#paint5_linear_151_7687&quot;)" stroke-opacity="0.3" stroke-width="2px" fill="none"></path>
<path d="M345.555 290.214C330.973 298.699 296.405 309.532 274.795 284.977C247.783 254.284 224.098 244.731 177.956 273.809" stroke="url(&quot;#paint6_linear_151_7687&quot;)" stroke-opacity="0.3" stroke-width="2px" fill="none"></path>
<path d="M340.593 259.38C337.705 281.395 308.571 293.547 285.36 270.5C256.346 241.691 227.199 201.332 183.116 233.445" stroke="url(&quot;#paint7_linear_151_7687&quot;)" stroke-opacity="0.05" stroke-width="28px" fill="none"></path>
<path d="M228.739 239.352C229.859 238.499 229.408 237.802 229.043 237.561C228.676 237.093 224.05 238.244 222.815 240.672C221.581 243.099 227.338 240.419 228.739 239.352Z" stroke="url(&quot;#paint8_linear_151_7687&quot;)" fill="none"></path>
<path d="M228.42 238.754C229.541 237.884 229.091 237.174 228.726 236.928C228.36 236.452 223.732 237.629 222.495 240.104C221.259 242.578 227.019 239.842 228.42 238.754Z" fill="#1F0836"></path>
<path d="M334.397 235.171C332.404 250.17 312.575 258.485 296.821 242.818C277.128 223.234 257.359 195.783 227.337 217.714" stroke="url(&quot;#paint9_linear_151_7687&quot;)" stroke-opacity="0.05" stroke-width="39px" fill="none"></path>
</g>
<mask id="mask1_151_7687" style="mask-type:alpha" maskUnits="userSpaceOnUse" x="184" y="232" width="161" height="160" fill="none">
<path d="M308.274 245.72C322.614 255.264 332.856 268.657 338.544 283.618C339.796 286.912 342.315 286.522 342.822 288.158C343.217 290.697 343.692 291.486 344.185 294.208C344.433 295.579 342.351 296.724 342.844 299.955C345.734 318.861 341.857 338.861 330.425 356.037C306.078 392.618 256.687 402.535 220.107 378.188C183.527 353.842 173.609 304.451 197.956 267.87C204.565 257.941 213.019 249.976 222.562 244.127C224.023 243.232 222.886 241.236 223.842 240.799C226.233 239.706 226.731 239.309 228.897 238.191C229.541 237.899 231.485 239.388 233.184 238.671C256.968 228.634 285.175 230.346 308.274 245.72Z" fill="url(&quot;#paint10_radial_151_7687&quot;)"></path>
</mask>
<g mask="url(#mask1_151_7687)" fill="none">
<path d="M357.983 242.582C358.975 244.524 359.1 246.941 358.295 249.821C357.489 252.704 355.758 256.016 353.093 259.697C347.761 267.058 338.908 275.594 327.252 284.585C315.601 293.572 301.511 302.736 286.16 311.308C270.809 319.879 254.652 327.605 239.043 333.837C223.432 340.07 208.834 344.625 196.471 347.124C184.09 349.627 174.375 349.981 168.092 348.227C164.958 347.351 162.773 345.978 161.489 344.192C160.213 342.417 159.778 340.167 160.274 337.428C161.274 331.905 166.008 324.696 174.226 316.399" stroke="#9DC1F8" fill="none"></path>
<g filter="url(#filter4_f_151_7687)" fill="none">
<circle cx="243.5" cy="252.5" r="30.5" fill="#76B8DE" fill-opacity="0.35"></circle>
</g>
<g filter="url(#filter5_f_151_7687)" fill="none">
<circle cx="214.5" cy="252.5" r="11.5" fill="#7686DE" fill-opacity="0.65"></circle>
</g>
</g>
<mask id="mask2_151_7687" style="mask-type:alpha" maskUnits="userSpaceOnUse" x="78" y="335" width="222" height="48" fill="none">
<path d="M277.227 336.697C280.247 339.77 290.565 347.913 297.108 349.756L299.877 374.339L286.538 382.021C213.387 380.434 69.348 377.259 78.4081 377.259C87.4682 377.259 100.136 366.913 105.337 361.741C110.286 361.741 123.759 361.495 138.054 360.511C152.348 359.528 166.66 345.557 172.029 338.694C172.868 338.643 175.502 338.571 179.327 338.694C183.153 338.817 185.787 337.414 186.626 336.697C215.568 335.416 274.206 333.624 277.227 336.697Z" fill="#D9D9D9"></path>
</mask>
<g mask="url(#mask2_151_7687)" fill="none">
<path d="M277.227 336.697C280.247 339.77 290.565 347.913 297.108 349.756L299.877 374.339L286.538 382.021C213.387 380.434 69.348 377.259 78.4081 377.259C87.4682 377.259 100.136 366.913 105.337 361.741C110.286 361.741 123.759 361.495 138.054 360.511C152.348 359.528 166.66 345.557 172.029 338.694C172.868 338.643 175.502 338.571 179.327 338.694C183.153 338.817 185.787 337.414 186.626 336.697C215.568 335.416 274.206 333.624 277.227 336.697Z" fill="url(&quot;#paint11_linear_151_7687&quot;)"></path>
<path d="M244.761 340.538L167.499 341.921L167.751 343.611L282.008 343.15H171.274L267.411 342.382L171.274 342.842L274.207 341.921L170.771 342.535L244.761 340.538Z" fill="#603F71"></path>
<path d="M209.609 336.082L287.042 337.188L286.789 338.54L172.281 338.172L283.258 338.172L186.909 337.557L283.258 337.926L180.1 337.188L283.763 337.68L209.609 336.082Z" fill="#008FDF" fill-opacity="0.41"></path>
<path d="M85.8171 340.691L666.558 348.988L664.667 359.129L-194.149 356.363L638.183 356.363L-84.4327 351.754L638.183 354.519L-135.508 348.988L641.967 352.676L85.8171 340.691Z" fill="black" fill-opacity="0.23"></path>
<path d="M222.696 351.446L300.128 352.553L299.876 353.905L185.367 353.536L296.345 353.536L199.996 352.921L296.345 353.29L193.186 352.553L296.849 353.044L222.696 351.446Z" fill="#008FDF" fill-opacity="0.41"></path>
<path d="M195.358 347.144L131.51 348.251L131.718 349.603L226.138 349.234L134.63 349.234L214.075 348.619L134.63 348.988L219.691 348.251L134.214 348.742L195.358 347.144Z" fill="#008FDF" fill-opacity="0.41"></path>
<path d="M164.479 360.972H103.575L96.0249 364.045L130.504 363.738H102.317L102.82 363.431H155.419L101.562 363.123L143.842 362.97L102.317 362.816L146.359 362.509H101.813C101.411 362.509 101.813 362.304 102.065 362.201L147.114 361.894L105.84 361.741L158.187 361.433H105.085L164.479 360.972Z" fill="#008FDF" fill-opacity="0.41"></path>
<path d="M287.042 365.889H57.3087L28.8293 377.566L158.885 376.398H52.5621L54.4607 375.23H252.866L49.7142 374.063L209.198 373.479L52.5621 372.895L218.691 371.727H50.6635C49.1446 371.727 50.6635 370.949 51.6128 370.56L221.539 369.392L65.8525 368.808L263.309 367.64H63.0046L287.042 365.889Z" fill="black" fill-opacity="0.41"></path>
<path d="M264.391 348.374L325.295 348.374L332.845 345.301L298.367 345.608L326.554 345.608L326.05 345.915L273.451 345.915L327.309 346.223L285.028 346.376L326.554 346.53L282.512 346.837L327.057 346.837C327.46 346.837 327.057 347.042 326.805 347.144L281.757 347.452L323.03 347.605L270.683 347.913L323.785 347.913L264.391 348.374Z" fill="#008FDF" fill-opacity="0.41"></path>
</g>
<mask id="mask3_151_7687" style="mask-type:alpha" maskUnits="userSpaceOnUse" x="227" y="320" width="158" height="93" fill="none">
<path d="M372.513 320.057C360.919 322.079 286.713 333.876 227 388.48L235.696 405.838C272.074 410.164 369.18 419.048 383.239 403.037C385.413 400.561 387.007 317.529 372.513 320.057Z" fill="url(&quot;#paint12_linear_151_7687&quot;)"></path>
</mask>
<g mask="url(#mask3_151_7687)" fill="none">
<path d="M372.513 320.057C360.919 322.079 286.713 333.876 227 388.48L235.696 405.838C272.074 410.164 364.832 406.849 378.89 390.839C381.065 388.363 387.007 317.529 372.513 320.057Z" fill="#9B7CB0"></path>
<path d="M372.803 320.057C361.209 322.079 287.003 333.876 227.29 388.48L235.986 405.838C272.364 410.164 388.311 423.686 402.37 407.675C404.544 405.199 387.297 317.529 372.803 320.057Z" fill="url(&quot;#paint13_linear_151_7687&quot;)"></path>
<path d="M331.207 347.864C337.121 328.045 282.268 350.504 254.103 364.211C238.643 374.941 207.492 396.67 206.564 397.749C205.637 398.827 321.062 412.437 375.992 410.864C380.775 406.707 383.325 380.39 378.456 374.323C372.368 366.739 364.687 374.66 343.382 379.042C322.076 383.424 323.816 372.638 331.207 347.864Z" fill="black" fill-opacity="0.15"></path>
<path d="M265.697 388.648C302.429 376.262 362.126 369.824 379.905 368.425" stroke="#FFFFFF" stroke-opacity="0.2" fill="none"></path>
<path d="M254.827 365.728C290.916 337.078 345.846 375.503 373.238 356.796" stroke="#FFFFFF" stroke-opacity="0.2" fill="none"></path>
<path d="M374.476 350.362C367.783 352.821 361.339 353.539 356.341 352.735C351.321 351.927 347.885 349.614 346.943 346.146C346.001 342.678 347.67 338.49 351.38 334.475C355.073 330.477 360.702 326.76 367.395 324.301C374.087 321.843 380.531 321.125 385.529 321.929C390.549 322.737 393.985 325.049 394.927 328.517C395.87 331.986 394.2 336.174 390.49 340.189C386.797 344.186 381.168 347.903 374.476 350.362Z" stroke="#FFFFFF" stroke-opacity="0.2" fill="none"></path>
</g>
<path d="M135 364.5C144.81 374.103 150.374 385.137 158.5 387C140.984 399.385 22.1532 358.852 -44.3578 338.159C-9.07386 317.457 9.41315 333.261 17.1529 337.849C24.8926 342.437 29.2491 340.01 44.2676 335.756C59.2861 331.502 64.9891 334.883 78.522 344.557C92.0549 354.232 108.335 351.936 114.22 353.058C120.106 354.18 122.738 352.496 135 364.5Z" fill="#BDCBEE"></path>
<mask id="mask4_151_7687" style="mask-type:alpha" maskUnits="userSpaceOnUse" x="-66" y="328" width="242" height="64" fill="none">
<path d="M138.726 368.223C148.536 377.825 167.24 383.952 175.366 385.815C157.85 398.2 -142.259 395.657 -46.0617 339.216C-10.7778 318.515 7.70926 334.319 15.449 338.907C23.1887 343.495 27.5452 341.068 42.5637 336.814C57.5822 332.56 63.2852 335.941 76.8181 345.615C90.351 355.289 106.631 352.994 112.517 354.116C118.402 355.238 126.464 356.219 138.726 368.223Z" fill="url(&quot;#paint14_linear_151_7687&quot;)"></path>
</mask>
<g mask="url(#mask4_151_7687)" fill="none">
<path d="M138.434 368.159C148.243 377.762 166.948 383.888 175.073 385.751C157.558 398.137 20.1566 359.846 -46.3544 339.153C-11.0704 318.451 7.41657 334.255 15.1563 338.844C22.896 343.432 27.2525 341.005 42.271 336.751C57.2896 332.497 62.9925 335.878 76.5254 345.552C90.0583 355.226 106.338 352.931 112.224 354.053C118.11 355.175 126.171 356.156 138.434 368.159Z" fill="#9D6BB5"></path>
<path d="M138.663 368.515C148.472 378.118 167.177 384.245 175.303 386.107C157.787 398.493 -149.399 385.471 -46.1251 339.509C-10.8412 318.807 7.64584 334.611 15.3856 339.2C23.1253 343.788 27.4818 341.361 42.5003 337.107C57.5188 332.853 63.2218 336.234 76.7547 345.908C90.2876 355.582 106.567 353.287 112.453 354.409C118.339 355.531 126.401 356.512 138.663 368.515Z" fill="url(&quot;#paint15_linear_151_7687&quot;)"></path>
<path d="M76.7977 351.441C74.8051 354.529 71.1477 356.194 66.7575 356.318C62.37 356.442 57.3043 355.019 52.6181 351.995C47.9318 348.971 44.5493 344.941 42.8549 340.892C41.1594 336.84 41.1697 332.822 43.1623 329.734C45.1548 326.647 48.8123 324.982 53.2025 324.858C57.5899 324.734 62.6556 326.156 67.3419 329.181C72.0281 332.205 75.4107 336.235 77.1051 340.284C78.8005 344.335 78.7903 348.354 76.7977 351.441Z" stroke="#000000" stroke-opacity="0.5" fill="none"></path>
<path d="M76.4526 346.189C74.46 349.277 70.8026 350.941 66.4124 351.065C62.0249 351.189 56.9592 349.767 52.273 346.743C47.5867 343.719 44.2042 339.689 42.5098 335.64C40.8143 331.588 40.8246 327.57 42.8172 324.482C44.8097 321.395 48.4672 319.73 52.8574 319.606C57.2448 319.482 62.3105 320.904 66.9968 323.928C71.683 326.953 75.0656 330.983 76.76 335.032C78.4554 339.083 78.4452 343.102 76.4526 346.189Z" stroke="#000000" stroke-opacity="0.5" fill="none"></path>
<path d="M137.912 363.796C135.919 366.884 132.262 368.548 127.872 368.672C123.484 368.796 118.419 367.374 113.732 364.35C109.046 361.326 105.664 357.295 103.969 353.246C102.274 349.195 102.284 345.176 104.277 342.089C106.269 339.001 109.927 337.337 114.317 337.213C118.704 337.089 123.77 338.511 128.456 341.535C133.142 344.56 136.525 348.59 138.219 352.639C139.915 356.69 139.905 360.709 137.912 363.796Z" stroke="#000000" stroke-opacity="0.5" fill="none"></path>
<path d="M1.38223 334.827C-0.610336 337.914 -4.26776 339.579 -8.65798 339.703C-13.0454 339.827 -18.1111 338.405 -22.7974 335.381C-27.4836 332.356 -30.8662 328.326 -32.5606 324.277C-34.256 320.226 -34.2458 316.207 -32.2532 313.12C-30.2606 310.032 -26.6032 308.367 -22.213 308.243C-17.8255 308.119 -12.7598 309.542 -8.07358 312.566C-3.38734 315.59 -0.00475637 319.62 1.68962 323.669C3.38507 327.721 3.3748 331.739 1.38223 334.827Z" stroke="#000000" stroke-opacity="0.5" fill="none"></path>
<path d="M53.4208 331.965C57.7359 333.973 20.0693 357.468 11.5144 344.337C2.95953 331.206 49.1058 329.957 53.4208 331.965Z" fill="black" fill-opacity="0.23"></path>
<path d="M77.0571 350.877C85.8247 355.105 102.966 353.171 110.441 351.675C103.733 351.753 88.265 350.915 80.0574 346.93C69.7979 341.949 66.0975 345.591 77.0571 350.877Z" fill="black" fill-opacity="0.25"></path>
</g>
<path d="M380.5 382C211.3 369.6 48.3333 376.833 -12 382L-19 564H380.5C381.333 502.667 382.5 380.4 380.5 382Z" fill="url(&quot;#paint16_linear_151_7687&quot;)"></path>
<path d="M249.5 502.5C287.9 502.9 357.167 496 387 492.5V404C336 402.333 223.6 405 182 429C130 459 244 471 290.5 475C337 479 201.5 502 249.5 502.5Z" stroke="#FFFFFF" stroke-opacity="0.33" stroke-width="0.5px" fill="none"></path>
<path d="M-16.5 519C25.5 533 100.8 564 66 576C22.5 591 39 498 144 510C249 522 317 574.5 337 569C357 563.5 412 548.5 388 513C364 477.5 210.5 549.5 262 600.5" stroke="#FFFFFF" stroke-opacity="0.33" stroke-width="0.5px" fill="none"></path>
</g>
<defs>
<filter id="filter0_f_151_7687" x="110.727" y="-298.128" width="601.2" height="522.629" filterUnits="userSpaceOnUse" color-interpolation-filters="sRGB">
<feFlood flood-opacity="0" result="BackgroundImageFix"></feFlood>
<feBlend mode="normal" in="SourceGraphic" in2="BackgroundImageFix" result="shape"></feBlend>
<feGaussianBlur stdDeviation="47" result="effect1_foregroundBlur_151_7687"></feGaussianBlur>
</filter>
<filter id="filter1_f_151_7687" x="-408.273" y="10.8719" width="601.2" height="522.629" filterUnits="userSpaceOnUse" color-interpolation-filters="sRGB">
<feFlood flood-opacity="0" result="BackgroundImageFix"></feFlood>
<feBlend mode="normal" in="SourceGraphic" in2="BackgroundImageFix" result="shape"></feBlend>
<feGaussianBlur stdDeviation="47" result="effect1_foregroundBlur_151_7687"></feGaussianBlur>
</filter>
<filter id="filter2_f_151_7687" x="123" y="168" width="284" height="284" filterUnits="userSpaceOnUse" color-interpolation-filters="sRGB">
<feFlood flood-opacity="0" result="BackgroundImageFix"></feFlood>
<feBlend mode="normal" in="SourceGraphic" in2="BackgroundImageFix" result="shape"></feBlend>
<feGaussianBlur stdDeviation="38" result="effect1_foregroundBlur_151_7687"></feGaussianBlur>
</filter>
<filter id="filter3_f_151_7687" x="171.777" y="214.775" width="181.365" height="180.913" filterUnits="userSpaceOnUse" color-interpolation-filters="sRGB">
<feFlood flood-opacity="0" result="BackgroundImageFix"></feFlood>
<feBlend mode="normal" in="SourceGraphic" in2="BackgroundImageFix" result="shape"></feBlend>
<feGaussianBlur stdDeviation="8" result="effect1_foregroundBlur_151_7687"></feGaussianBlur>
</filter>
<filter id="filter4_f_151_7687" x="193" y="202" width="101" height="101" filterUnits="userSpaceOnUse" color-interpolation-filters="sRGB">
<feFlood flood-opacity="0" result="BackgroundImageFix"></feFlood>
<feBlend mode="normal" in="SourceGraphic" in2="BackgroundImageFix" result="shape"></feBlend>
<feGaussianBlur stdDeviation="10" result="effect1_foregroundBlur_151_7687"></feGaussianBlur>
</filter>
<filter id="filter5_f_151_7687" x="191" y="229" width="47" height="47" filterUnits="userSpaceOnUse" color-interpolation-filters="sRGB">
<feFlood flood-opacity="0" result="BackgroundImageFix"></feFlood>
<feBlend mode="normal" in="SourceGraphic" in2="BackgroundImageFix" result="shape"></feBlend>
<feGaussianBlur stdDeviation="6" result="effect1_foregroundBlur_151_7687"></feGaussianBlur>
</filter>
<linearGradient id="paint0_linear_151_7687" x1="187" y1="-330" x2="187" y2="745.56" gradientUnits="userSpaceOnUse">
<stop offset="0.270833" stop-color="#21284B"></stop>
<stop offset="1" stop-color="#5153E7"></stop>
</linearGradient>
<linearGradient id="paint1_linear_151_7687" x1="-145" y1="254.5" x2="-81" y2="461.5" gradientUnits="userSpaceOnUse">
<stop stop-color="#8886D9" stop-opacity="0.33"></stop>
<stop offset="0.778893" stop-color="white" stop-opacity="0"></stop>
</linearGradient>
<radialGradient id="paint2_radial_151_7687" cx="0" cy="0" r="1" gradientUnits="userSpaceOnUse" gradientTransform="translate(264.19 311.954) rotate(33.6465) scale(79.5635)">
<stop offset="0.71875" stop-color="#2E1D5E"></stop>
<stop offset="1" stop-color="#413072"></stop>
</radialGradient>
<linearGradient id="paint3_linear_151_7687" x1="265.581" y1="227.097" x2="265.581" y2="398.662" gradientUnits="userSpaceOnUse">
<stop stop-color="#6567CE"></stop>
<stop offset="0.692708" stop-color="#271745"></stop>
</linearGradient>
<linearGradient id="paint4_linear_151_7687" x1="328.889" y1="326.58" x2="208.509" y2="278.844" gradientUnits="userSpaceOnUse">
<stop stop-color="white"></stop>
<stop offset="1" stop-color="white" stop-opacity="0"></stop>
</linearGradient>
<linearGradient id="paint5_linear_151_7687" x1="330.681" y1="308.363" x2="229.021" y2="260.8" gradientUnits="userSpaceOnUse">
<stop stop-color="white" stop-opacity="0"></stop>
<stop offset="1" stop-color="white"></stop>
</linearGradient>
<linearGradient id="paint6_linear_151_7687" x1="332.929" y1="300.45" x2="231.269" y2="252.888" gradientUnits="userSpaceOnUse">
<stop stop-color="white" stop-opacity="0"></stop>
<stop offset="1" stop-color="white" stop-opacity="0.35"></stop>
</linearGradient>
<linearGradient id="paint7_linear_151_7687" x1="344.402" y1="282.031" x2="239.776" y2="241.407" gradientUnits="userSpaceOnUse">
<stop stop-color="#F1C480"></stop>
<stop offset="1" stop-color="#F3D4A4" stop-opacity="0"></stop>
</linearGradient>
<linearGradient id="paint8_linear_151_7687" x1="227.55" y1="242.122" x2="226.631" y2="240.205" gradientUnits="userSpaceOnUse">
<stop stop-color="white"></stop>
<stop offset="1" stop-color="white" stop-opacity="0"></stop>
</linearGradient>
<linearGradient id="paint9_linear_151_7687" x1="336.957" y1="250.594" x2="265.909" y2="222.934" gradientUnits="userSpaceOnUse">
<stop stop-color="#F1C480"></stop>
<stop offset="1" stop-color="#F3D4A4" stop-opacity="0"></stop>
</linearGradient>
<radialGradient id="paint10_radial_151_7687" cx="0" cy="0" r="1" gradientUnits="userSpaceOnUse" gradientTransform="translate(264.19 311.954) rotate(33.6465) scale(79.5635)">
<stop offset="0.71875" stop-color="#2E1D5E"></stop>
<stop offset="1" stop-color="#413072"></stop>
</radialGradient>
<linearGradient id="paint11_linear_151_7687" x1="188.938" y1="335" x2="188.938" y2="382.021" gradientUnits="userSpaceOnUse">
<stop stop-color="#7E549F"></stop>
<stop offset="1" stop-color="#090752"></stop>
</linearGradient>
<linearGradient id="paint12_linear_151_7687" x1="376.861" y1="315.506" x2="294.137" y2="348.854" gradientUnits="userSpaceOnUse">
<stop stop-color="#353F7D"></stop>
<stop offset="1" stop-color="#1F234E"></stop>
</linearGradient>
<linearGradient id="paint13_linear_151_7687" x1="377.151" y1="315.506" x2="273.181" y2="371.305" gradientUnits="userSpaceOnUse">
<stop stop-color="#765387"></stop>
<stop offset="1" stop-color="#1F234E"></stop>
</linearGradient>
<linearGradient id="paint14_linear_151_7687" x1="97.959" y1="344.22" x2="18.6198" y2="361.046" gradientUnits="userSpaceOnUse">
<stop stop-color="#354E8F"></stop>
<stop offset="1" stop-color="#1F3161"></stop>
</linearGradient>
<linearGradient id="paint15_linear_151_7687" x1="97.8957" y1="344.513" x2="19.0322" y2="349.949" gradientUnits="userSpaceOnUse">
<stop stop-color="#765387"></stop>
<stop offset="1" stop-color="#1F3161"></stop>
</linearGradient>
<linearGradient id="paint16_linear_151_7687" x1="181.302" y1="375.153" x2="181.302" y2="564" gradientUnits="userSpaceOnUse">
<stop stop-color="#1A2F65"></stop>
<stop offset="1" stop-color="#3D6491"></stop>
</linearGradient>
<clipPath id="clip0_151_7687">
<rect width="374" height="552" fill="white"></rect>
</clipPath>
<linearGradient id="paint0_linear_151_7687" x1="187" y1="-330" x2="187" y2="745.56" gradientUnits="userSpaceOnUse">
<stop offset="0.270833" stop-color="#21284B"></stop>
<stop offset="1" stop-color="#5153E7"></stop>
</linearGradient><linearGradient id="paint1_linear_151_7687" x1="-145" y1="254.5" x2="-81" y2="461.5" gradientUnits="userSpaceOnUse">
<stop stop-color="#8886D9" stop-opacity="0.33"></stop>
<stop offset="0.778893" stop-color="white" stop-opacity="0"></stop>
</linearGradient><radialGradient id="paint2_radial_151_7687" cx="0" cy="0" r="1" gradientUnits="userSpaceOnUse" gradientTransform="translate(264.19 311.954) rotate(33.6465) scale(79.5635)">
<stop offset="0.71875" stop-color="#2E1D5E"></stop>
<stop offset="1" stop-color="#413072"></stop>
</radialGradient><linearGradient id="paint3_linear_151_7687" x1="265.581" y1="227.097" x2="265.581" y2="398.662" gradientUnits="userSpaceOnUse">
<stop stop-color="#6567CE"></stop>
<stop offset="0.692708" stop-color="#271745"></stop>
</linearGradient><linearGradient id="paint4_linear_151_7687" x1="328.889" y1="326.58" x2="208.509" y2="278.844" gradientUnits="userSpaceOnUse">
<stop stop-color="white"></stop>
<stop offset="1" stop-color="white" stop-opacity="0"></stop>
</linearGradient><linearGradient id="paint5_linear_151_7687" x1="330.681" y1="308.363" x2="229.021" y2="260.8" gradientUnits="userSpaceOnUse">
<stop stop-color="white" stop-opacity="0"></stop>
<stop offset="1" stop-color="white"></stop>
</linearGradient><linearGradient id="paint6_linear_151_7687" x1="332.929" y1="300.45" x2="231.269" y2="252.888" gradientUnits="userSpaceOnUse">
<stop stop-color="white" stop-opacity="0"></stop>
<stop offset="1" stop-color="white" stop-opacity="0.35"></stop>
</linearGradient><linearGradient id="paint7_linear_151_7687" x1="344.402" y1="282.031" x2="239.776" y2="241.407" gradientUnits="userSpaceOnUse">
<stop stop-color="#F1C480"></stop>
<stop offset="1" stop-color="#F3D4A4" stop-opacity="0"></stop>
</linearGradient><linearGradient id="paint8_linear_151_7687" x1="227.55" y1="242.122" x2="226.631" y2="240.205" gradientUnits="userSpaceOnUse">
<stop stop-color="white"></stop>
<stop offset="1" stop-color="white" stop-opacity="0"></stop>
</linearGradient><linearGradient id="paint9_linear_151_7687" x1="336.957" y1="250.594" x2="265.909" y2="222.934" gradientUnits="userSpaceOnUse">
<stop stop-color="#F1C480"></stop>
<stop offset="1" stop-color="#F3D4A4" stop-opacity="0"></stop>
</linearGradient><radialGradient id="paint10_radial_151_7687" cx="0" cy="0" r="1" gradientUnits="userSpaceOnUse" gradientTransform="translate(264.19 311.954) rotate(33.6465) scale(79.5635)">
<stop offset="0.71875" stop-color="#2E1D5E"></stop>
<stop offset="1" stop-color="#413072"></stop>
</radialGradient><linearGradient id="paint11_linear_151_7687" x1="188.938" y1="335" x2="188.938" y2="382.021" gradientUnits="userSpaceOnUse">
<stop stop-color="#7E549F"></stop>
<stop offset="1" stop-color="#090752"></stop>
</linearGradient><linearGradient id="paint12_linear_151_7687" x1="376.861" y1="315.506" x2="294.137" y2="348.854" gradientUnits="userSpaceOnUse">
<stop stop-color="#353F7D"></stop>
<stop offset="1" stop-color="#1F234E"></stop>
</linearGradient><linearGradient id="paint13_linear_151_7687" x1="377.151" y1="315.506" x2="273.181" y2="371.305" gradientUnits="userSpaceOnUse">
<stop stop-color="#765387"></stop>
<stop offset="1" stop-color="#1F234E"></stop>
</linearGradient><linearGradient id="paint14_linear_151_7687" x1="97.959" y1="344.22" x2="18.6198" y2="361.046" gradientUnits="userSpaceOnUse">
<stop stop-color="#354E8F"></stop>
<stop offset="1" stop-color="#1F3161"></stop>
</linearGradient><linearGradient id="paint15_linear_151_7687" x1="97.8957" y1="344.513" x2="19.0322" y2="349.949" gradientUnits="userSpaceOnUse">
<stop stop-color="#765387"></stop>
<stop offset="1" stop-color="#1F3161"></stop>
</linearGradient><linearGradient id="paint16_linear_151_7687" x1="181.302" y1="375.153" x2="181.302" y2="564" gradientUnits="userSpaceOnUse">
<stop stop-color="#1A2F65"></stop>
<stop offset="1" stop-color="#3D6491"></stop>
</linearGradient></defs>
</svg>