<svg xmlns:xlink="http://www.w3.org/1999/xlink" xmlns="http://www.w3.org/2000/svg" width="604" height="256" fill="none"><g clip-path="url(#clip0_80_3145)"><path fill="url(#paint0_linear_80_3145)" d="M0 0h604v256H0z"/><g filter="url(#filter0_f_80_3145)"><ellipse cx="440.882" cy="-86.824" rx="370" ry="123.624" transform="rotate(-37.462 440.882 -86.824)" fill="#000" fill-opacity=".25"/></g><path d="M539.446 167.637c-7.43 9.694-8.335 18.77-7.859 22.096 7.145 16.393 122.881 10.691 109.307 0-13.574-10.691-10.716-16.394-5.715-34.925 5.001-18.532-10.717-24.947-28.577-27.798-17.861-2.851-.715-42.766-6.43-61.298-5.715-18.532-26.434-18.532-49.295-22.096-22.862-3.563-19.29-23.52-15.003-49.893 4.287-26.372-20.718-41.34-44.294-42.766C472.719-50.183 454.668-62.823 448-69c2.143 6.177 12.574 20.955 37.15 30.649 30.72 12.117 21.433 33.5 11.431 58.446-10.002 24.947 6.43 32.788 27.862 45.617 21.433 12.83 11.431 31.362 3.572 39.915-7.858 8.553-9.287 28.51 3.572 32.787 12.86 4.277 17.147 17.106 7.859 29.223z" fill="url(#paint1_linear_80_3145)" fill-opacity=".5"/><mask id="a" style="mask-type:alpha" maskUnits="userSpaceOnUse" x="170" y="118" width="442" height="154"><path d="M566.5 124c6 10 26.5 36.5 39.5 42.5l5.5 80-26.5 25C439.667 266.333 153.5 256 171.5 256s43.167-33.667 53.5-50.5c9.833 0 36.6-.8 65-4s56.833-48.667 67.5-71c1.667-.167 6.9-.4 14.5 0s12.833-4.167 14.5-6.5c57.5-4.167 174-10 180 0z" fill="#D9D9D9"/></mask><g mask="url(#a)"><path d="M566.5 124c6 10 26.5 36.5 39.5 42.5l5.5 80-26.5 25C439.667 266.333 153.5 256 171.5 256s43.167-33.667 53.5-50.5c9.833 0 36.6-.8 65-4s56.833-48.667 67.5-71c1.667-.167 6.9-.4 14.5 0s12.833-4.167 14.5-6.5c57.5-4.167 174-10 180 0z" fill="url(#paint2_linear_80_3145)"/><path d="M502 136.5L348.5 141l.5 5.5 227-1.5H356l191-2.5-191 1.5 204.5-3-205.5 2 147-6.5z" fill="#603F71"/><path d="M432.163 122L586 125.6l-.501 4.4L358 128.8h220.484l-191.42-2 191.42 1.2-204.95-2.4 205.952 1.6-147.323-5.2z" fill="#008FDF" fill-opacity=".41"/><path d="M186.22 137L1340 164l-3.76 33L-370 188h1653.63l-1435.652-15 1435.652 9-1537.125-18 1544.635 12-1104.92-39z" fill="#000" fill-opacity=".23"/><path d="M458.163 172L612 175.6l-.501 4.4L384 178.8h220.484l-191.42-2 191.42 1.2-204.95-2.4 205.952 1.6-147.323-5.2zM403.848 158L277 161.6l.413 4.4L465 164.8H283.198l157.837-2-157.837 1.2 168.993-2.4-169.82 1.6 121.477-5.2zM342.5 203h-121l-15 10 68.5-1h-56l1-1h104.5l-107-1 84-.5-82.5-.5 87.5-1H218c-.8 0 0-.667.5-1l89.5-1-82-.5 104-1H224.5l118-1.5z" fill="#008FDF" fill-opacity=".41"/><path d="M586 219H129.581L73 257l258.386-3.8H120.151l3.772-3.8h394.18l-403.61-3.8 316.853-1.9-311.195-1.9 330.055-3.8H116.379c-3.018 0 0-2.533 1.886-3.8l337.599-3.8-309.309-1.9 392.294-3.8H140.897L586 219z" fill="#000" fill-opacity=".41"/><path d="M541 162h121l15-10-68.5 1h56l-1 1H559l107 1-84 .5 82.5.5-87.5 1h88.5c.8 0 0 .667-.5 1l-89.5 1 82 .5-104 1H659L541 162z" fill="#008FDF" fill-opacity=".41"/></g><path d="M317 240.5c5.2 6.8 5.833 13.167 5.5 15.5-5 11.5-86 7.5-76.5 0s7.5-11.5 4-24.5 7.5-17.5 20-19.5.5-30 4.5-43 18.5-13 34.5-15.5 13.5-16.5 10.5-35 14.5-29 31-30c13.2-.8 25.833-9.667 30.5-14-1.5 4.333-8.8 14.7-26 21.5-21.5 8.5-15 23.5-8 41s-4.5 23-19.5 32-8 22-2.5 28 6.5 20-2.5 23-12 12-5.5 20.5z" fill="url(#paint3_linear_80_3145)"/><path d="M394 142c8-4.8 13.333-14 15-18-4 5-12 8.5-29.5 12.5s-19 9.5-19 23c0 13.384-6.88 13.99-23.563 15.461l-.437.039c-17 1.5-14 16-13.5 23.5s2 18.5-16 24.5c-14.4 4.8-9.667 31-5.5 43.5l83-4.5c2.167-4 4.6-13.6-3-20-9.5-8-6-12-2-19s0-11.5-4-16.5.5-10 9-17.5 1-20-3-29.5S384 148 394 142z" fill="url(#paint4_linear_80_3145)"/><mask id="b" style="mask-type:alpha" maskUnits="userSpaceOnUse" x="352" y="177" width="265" height="100"><path d="M552.5 202c16.8-20.8 42.667-25.667 52-24.5l12 88.5c-99 9.5-289.7 21.4-260.5-7 36.5-35.5 61-38.5 77-27.5s32.895 20.233 55.5 19c27.5-1.5 43-22.5 64-48.5z" fill="url(#paint5_linear_80_3145)"/></mask><g mask="url(#b)"><path d="M552.5 202c16.8-20.8 42.667-25.667 52-24.5l12 88.5c-99 9.5-289.7 21.4-260.5-7 36.5-35.5 61-38.5 77-27.5s32.895 20.233 55.5 19c27.5-1.5 43-22.5 64-48.5z" fill="#C68AD6"/><path d="M553.5 203c16.8-20.8 42.667-25.667 52-24.5l12 88.5c-99 9.5-289.7 21.4-260.5-7 36.5-35.5 61-38.5 77-27.5s32.895 20.233 55.5 19c27.5-1.5 43-22.5 64-48.5z" fill="url(#paint6_linear_80_3145)"/><path d="M591.553 175.857c4.396 6.624 4.758 15.07 1.719 23.411-3.04 8.34-9.473 16.539-18.597 22.593-9.123 6.055-19.177 8.797-28.043 8.357-8.866-.44-16.508-4.056-20.904-10.68-4.396-6.624-4.758-15.071-1.719-23.411 3.04-8.34 9.473-16.539 18.597-22.593 9.123-6.055 19.177-8.797 28.043-8.357 8.866.44 16.508 4.056 20.904 10.68zM440.553 193.857c4.396 6.624 4.758 15.07 1.719 23.411-3.04 8.34-9.473 16.539-18.597 22.593-9.123 6.055-19.177 8.797-28.043 8.357-8.866-.44-16.508-4.056-20.904-10.68-4.396-6.624-4.758-15.071-1.719-23.411 3.04-8.34 9.473-16.539 18.597-22.593 9.123-6.055 19.177-8.797 28.043-8.357 8.866.44 16.508 4.056 20.904 10.68z" stroke="#fff" stroke-opacity=".36"/><path d="M613 204c-1.246 6.829-11.75 29.221-30.977 36.122C557.989 248.748 533.42 229.878 519 266" stroke="#000" stroke-opacity=".12" stroke-width="6"/></g><mask id="c" style="mask-type:alpha" maskUnits="userSpaceOnUse" x="217" y="237" width="150" height="26"><path d="M239.32 240c1.6-2 8.333-2.5 11.5-2.5l53-.5c4.5 0 14.8.1 20 .5 6.5.5 5.5 2.5 9 8.5 2.8 4.8 23.5 13 33.5 16.5-52.5 0-155.8-.4-149-2 8.5-2 20-18 22-20.5z" fill="url(#paint7_linear_80_3145)"/></mask><g mask="url(#c)"><path d="M239.32 240c1.6-2 8.333-2.5 11.5-2.5l53-.5c4.5 0 14.8.1 20 .5 6.5.5 5.5 2.5 9 8.5 2.8 4.8 23.5 13 33.5 16.5-52.5 0-155.8-.4-149-2 8.5-2 20-18 22-20.5z" fill="url(#paint8_linear_80_3145)"/><path d="M241.32 240c1.6-2 8.333-2.5 11.5-2.5l53-.5c4.5 0 14.8.1 20 .5 6.5.5 5.5 2.5 9 8.5 2.8 4.8 23.5 13 33.5 16.5-52.5 0-155.8-.4-149-2 8.5-2 20-18 22-20.5z" fill="url(#paint9_linear_80_3145)"/><ellipse cx="283" cy="239" rx="55" ry="6" fill="#1A1643" fill-opacity=".4"/><path d="M254 246.5c-1.6 2-9 8.167-12.5 11l12.5 6c14.5-.667 44.5-1.8 48.5-1 5 1 44.5-1.5 47-1 2 .4 1.5-6.5 1-10-5.333-7.5-16.7-20.3-19.5-11.5-2.8 8.8 4.833 13.667 9 15 .5 1.667.1 4-5.5 0-7-5-27.5-3-34-1s-7-9.5-7-7.5S286 253 279 255s-7-8.5-8-6-17 6-19 6 4-11 2-8.5z" fill="#000" fill-opacity=".15"/></g><mask id="d" style="mask-type:alpha" maskUnits="userSpaceOnUse" x="240" y="236" width="85" height="6"><ellipse cx="282.82" cy="239" rx="42" ry="3" fill="#1A1643"/></mask><g mask="url(#d)"><ellipse cx="282.82" cy="239" rx="42" ry="3" fill="#1A1643"/><path d="M317 240.5c5.2 6.8 5.833 13.167 5.5 15.5-5 11.5-86 7.5-76.5 0s7.5-11.5 4-24.5 7.5-17.5 20-19.5.5-30 4.5-43 18.5-13 34.5-15.5 13.5-16.5 10.5-35 14.5-29 31-30c13.2-.8 25.833-9.667 30.5-14-1.5 4.333-8.8 14.7-26 21.5-21.5 8.5-15 23.5-8 41s-4.5 23-19.5 32-8 22-2.5 28 6.5 20-2.5 23-12 12-5.5 20.5z" fill="url(#paint10_linear_80_3145)"/></g><path d="M447.317 49L396 92.888" stroke="url(#paint11_linear_80_3145)" stroke-width=".5" stroke-linecap="round"/><path d="M496.216 76.559L480 90.888" stroke="url(#paint12_linear_80_3145)" stroke-width=".5" stroke-linecap="round"/><path d="M412.216 33L396 47.329" stroke="url(#paint13_linear_80_3145)" stroke-width=".5" stroke-linecap="round"/><path d="M301.216 8L285 22.329" stroke="url(#paint14_linear_80_3145)" stroke-width=".5" stroke-linecap="round"/><g filter="url(#filter1_f_80_3145)"><circle cx="396.5" cy="92.388" r="2.5" fill="#E89D67"/></g><g filter="url(#filter2_f_80_3145)"><circle cx="480.5" cy="90.388" r="2.5" fill="#E89D67"/></g><g filter="url(#filter3_f_80_3145)"><circle cx="396.5" cy="46.829" r="2.5" fill="#E89D67"/></g><g filter="url(#filter4_f_80_3145)"><circle cx="285.5" cy="21.829" r="2.5" fill="#E89D67"/></g><circle cx="396.5" cy="92.388" r="1.5" fill="#fff"/><circle cx="480.5" cy="90.388" r="1.5" fill="#fff"/><circle cx="396.5" cy="46.829" r="1.5" fill="#fff"/><circle cx="285.5" cy="21.829" r="1.5" fill="#fff"/><path d="M365.382 20L279 93.416" stroke="url(#paint15_linear_80_3145)" stroke-width=".5" stroke-linecap="round"/><path d="M611.382-47L525 26.416" stroke="url(#paint16_linear_80_3145)" stroke-width=".5" stroke-linecap="round"/><g filter="url(#filter5_f_80_3145)"><circle cx="279.5" cy="92.916" r="2.5" fill="#E89D67"/></g><g filter="url(#filter6_f_80_3145)"><circle cx="525.5" cy="25.916" r="2.5" fill="#E89D67"/></g><circle cx="279.5" cy="92.916" r="1.5" fill="#fff"/><circle cx="525.5" cy="25.916" r="1.5" fill="#fff"/><path d="M560 94l.679 2.321L563 97l-2.321.679L560 100l-.679-2.321L557 97l2.321-.679L560 94zM464 29l.679 2.321L467 32l-2.321.679L464 35l-.679-2.321L461 32l2.321-.679L464 29zM281 131l.679 2.321L284 134l-2.321.679L281 137l-.679-2.321L278 134l2.321-.679L281 131zM191 29l.679 2.321L194 32l-2.321.679L191 35l-.679-2.321L188 32l2.321-.679L191 29zM191 206l.679 2.321L194 209l-2.321.679L191 212l-.679-2.321L188 209l2.321-.679L191 206z" fill="#fff"/><circle cx="581" cy="31" r="1" fill="#fff"/><circle cx="335" cy="118" r="1" fill="#fff"/><circle cx="230" cy="75" r="1" fill="#fff"/><circle cx="354" cy="9" r="1" fill="#fff"/><circle cx="522" cy="65" r="1" fill="#fff"/><circle cx="441.5" cy="102.5" r=".5" fill="#fff"/><circle cx="582.5" cy="70.5" r=".5" fill="#fff"/><circle cx="583.5" cy="123.5" r=".5" fill="#fff"/><circle cx="355.5" cy="64.5" r=".5" fill="#fff"/><circle cx="404.5" cy="18.5" r=".5" fill="#fff"/><circle cx="285.5" cy="177.5" r=".5" fill="#fff"/><circle cx="330.5" cy="151.5" r=".5" fill="#fff"/><circle cx="240.5" cy="175.5" r=".5" fill="#fff"/><circle cx="245.5" cy="116.5" r=".5" fill="#fff"/><circle cx="265.5" cy="70.5" r=".5" fill="#fff"/><circle cx="225.5" cy="30.5" r=".5" fill="#fff"/><circle cx="313.5" cy="35.5" r=".5" fill="#fff"/><circle cx="365.5" cy="110.5" r=".5" fill="#fff"/><circle cx="440.5" cy="21.5" r=".5" fill="#fff"/><circle cx="461.5" cy="66.5" r=".5" fill="#fff"/><circle cx="510.5" cy="95.5" r=".5" fill="#fff"/><circle cx="573.5" cy="10.5" r=".5" fill="#fff"/></g><defs><linearGradient id="paint0_linear_80_3145" x1="283.5" y1="0" x2="399.5" y2="269.5" gradientUnits="userSpaceOnUse"><stop offset=".271" stop-color="#21284B"/><stop offset="1" stop-color="#5153E7"/></linearGradient><linearGradient id="paint1_linear_80_3145" x1="545" y1="-69" x2="545" y2="200" gradientUnits="userSpaceOnUse"><stop stop-color="#CACFFF" stop-opacity="0"/><stop offset="1" stop-color="#595F9C"/></linearGradient><linearGradient id="paint2_linear_80_3145" x1="391.095" y1="118.479" x2="391.095" y2="271.5" gradientUnits="userSpaceOnUse"><stop stop-color="#7E549F"/><stop offset="1" stop-color="#090752"/></linearGradient><linearGradient id="paint3_linear_80_3145" x1="313.113" y1="74.5" x2="313.113" y2="263.202" gradientUnits="userSpaceOnUse"><stop stop-color="#CACFFF" stop-opacity="0"/><stop offset="1" stop-color="#595F9C"/></linearGradient><linearGradient id="paint4_linear_80_3145" x1="353.142" y1="124" x2="353.142" y2="266.5" gradientUnits="userSpaceOnUse"><stop stop-color="#C3B6F4" stop-opacity="0"/><stop offset="1" stop-color="#443972" stop-opacity=".83"/></linearGradient><linearGradient id="paint5_linear_80_3145" x1="484.747" y1="177.339" x2="546" y2="265.5" gradientUnits="userSpaceOnUse"><stop stop-color="#765387"/><stop offset="1" stop-color="#353A6B"/></linearGradient><linearGradient id="paint6_linear_80_3145" x1="485.747" y1="178.339" x2="547" y2="266.5" gradientUnits="userSpaceOnUse"><stop stop-color="#765387"/><stop offset="1" stop-color="#353A6B"/></linearGradient><linearGradient id="paint7_linear_80_3145" x1="291.66" y1="237" x2="291.66" y2="262.5" gradientUnits="userSpaceOnUse"><stop stop-color="#583BA8"/><stop offset="1" stop-color="#383C6D"/></linearGradient><linearGradient id="paint8_linear_80_3145" x1="291.66" y1="237" x2="291.66" y2="262.5" gradientUnits="userSpaceOnUse"><stop stop-color="#fff"/><stop offset="1" stop-color="#383C6D"/></linearGradient><linearGradient id="paint9_linear_80_3145" x1="293.66" y1="237" x2="293.66" y2="262.5" gradientUnits="userSpaceOnUse"><stop stop-color="#583BA8"/><stop offset="1" stop-color="#383C6D"/></linearGradient><linearGradient id="paint10_linear_80_3145" x1="313.113" y1="74.5" x2="313.113" y2="263.202" gradientUnits="userSpaceOnUse"><stop stop-color="#CACFFF" stop-opacity="0"/><stop offset="1" stop-color="#595F9C"/></linearGradient><linearGradient id="paint11_linear_80_3145" x1="396.301" y1="93.633" x2="445.312" y2="52.365" gradientUnits="userSpaceOnUse"><stop/><stop offset="0" stop-color="#fff"/><stop offset="1" stop-color="#fff" stop-opacity="0"/></linearGradient><linearGradient id="paint12_linear_80_3145" x1="480.431" y1="91.524" x2="496.133" y2="78.301" gradientUnits="userSpaceOnUse"><stop/><stop offset="0" stop-color="#fff"/><stop offset="1" stop-color="#fff" stop-opacity="0"/></linearGradient><linearGradient id="paint13_linear_80_3145" x1="396.431" y1="47.965" x2="412.133" y2="34.743" gradientUnits="userSpaceOnUse"><stop/><stop offset="0" stop-color="#fff"/><stop offset="1" stop-color="#fff" stop-opacity="0"/></linearGradient><linearGradient id="paint14_linear_80_3145" x1="285.431" y1="22.965" x2="301.133" y2="9.743" gradientUnits="userSpaceOnUse"><stop/><stop offset="0" stop-color="#fff"/><stop offset="1" stop-color="#fff" stop-opacity="0"/></linearGradient><linearGradient id="paint15_linear_80_3145" x1="279.172" y1="94.271" x2="361.458" y2="24.988" gradientUnits="userSpaceOnUse"><stop/><stop offset="0" stop-color="#fff"/><stop offset="1" stop-color="#fff" stop-opacity="0"/></linearGradient><linearGradient id="paint16_linear_80_3145" x1="525.172" y1="27.271" x2="607.458" y2="-42.012" gradientUnits="userSpaceOnUse"><stop/><stop offset="0" stop-color="#fff"/><stop offset="1" stop-color="#fff" stop-opacity="0"/></linearGradient><filter id="filter0_f_80_3145" x="43.647" y="-426.398" width="794.469" height="679.147" filterUnits="userSpaceOnUse" color-interpolation-filters="sRGB"><feFlood flood-opacity="0" result="BackgroundImageFix"/><feBlend in="SourceGraphic" in2="BackgroundImageFix" result="shape"/><feGaussianBlur stdDeviation="47" result="effect1_foregroundBlur_80_3145"/></filter><filter id="filter1_f_80_3145" x="381" y="76.888" width="31" height="31" filterUnits="userSpaceOnUse" color-interpolation-filters="sRGB"><feFlood flood-opacity="0" result="BackgroundImageFix"/><feBlend in="SourceGraphic" in2="BackgroundImageFix" result="shape"/><feGaussianBlur stdDeviation="6.5" result="effect1_foregroundBlur_80_3145"/></filter><filter id="filter2_f_80_3145" x="465" y="74.888" width="31" height="31" filterUnits="userSpaceOnUse" color-interpolation-filters="sRGB"><feFlood flood-opacity="0" result="BackgroundImageFix"/><feBlend in="SourceGraphic" in2="BackgroundImageFix" result="shape"/><feGaussianBlur stdDeviation="6.5" result="effect1_foregroundBlur_80_3145"/></filter><filter id="filter3_f_80_3145" x="381" y="31.329" width="31" height="31" filterUnits="userSpaceOnUse" color-interpolation-filters="sRGB"><feFlood flood-opacity="0" result="BackgroundImageFix"/><feBlend in="SourceGraphic" in2="BackgroundImageFix" result="shape"/><feGaussianBlur stdDeviation="6.5" result="effect1_foregroundBlur_80_3145"/></filter><filter id="filter4_f_80_3145" x="270" y="6.329" width="31" height="31" filterUnits="userSpaceOnUse" color-interpolation-filters="sRGB"><feFlood flood-opacity="0" result="BackgroundImageFix"/><feBlend in="SourceGraphic" in2="BackgroundImageFix" result="shape"/><feGaussianBlur stdDeviation="6.5" result="effect1_foregroundBlur_80_3145"/></filter><filter id="filter5_f_80_3145" x="264" y="77.416" width="31" height="31" filterUnits="userSpaceOnUse" color-interpolation-filters="sRGB"><feFlood flood-opacity="0" result="BackgroundImageFix"/><feBlend in="SourceGraphic" in2="BackgroundImageFix" result="shape"/><feGaussianBlur stdDeviation="6.5" result="effect1_foregroundBlur_80_3145"/></filter><filter id="filter6_f_80_3145" x="510" y="10.416" width="31" height="31" filterUnits="userSpaceOnUse" color-interpolation-filters="sRGB"><feFlood flood-opacity="0" result="BackgroundImageFix"/><feBlend in="SourceGraphic" in2="BackgroundImageFix" result="shape"/><feGaussianBlur stdDeviation="6.5" result="effect1_foregroundBlur_80_3145"/></filter><clipPath id="clip0_80_3145"><path fill="#fff" d="M0 0h604v256H0z"/></clipPath></defs></svg>