<svg xmlns:xlink="http://www.w3.org/1999/xlink" xmlns="http://www.w3.org/2000/svg" width="604" height="256" fill="none"><g clip-path="url(#clip0_80_3127)"><path fill="url(#paint0_linear_80_3127)" d="M0 0h604v256H0z"/><g filter="url(#filter0_f_80_3127)"><ellipse cx="569.882" cy="-74.824" rx="370" ry="123.624" transform="rotate(-37.462 569.882 -74.824)" fill="#42229C" fill-opacity=".6"/></g><mask id="a" style="mask-type:alpha" maskUnits="userSpaceOnUse" x="376" y="119" width="302" height="302"><circle cx="527" cy="270" r="151" fill="url(#paint1_radial_80_3127)"/></mask><g mask="url(#a)"><circle cx="527" cy="270" r="151" fill="#fff"/><circle cx="532" cy="275" r="156" fill="url(#paint2_radial_80_3127)"/><path d="M561.5 144c22.8-11.6 56.5 5.833 70.5 16l-29.5-34.5c-30.833-6.333-92.5-19-109.5 18.5s-2.5 74.028 50.5 93.5c34.862 12.808 46 36.833 47.5 46.5h52c2.5 0 20 7 11.5-20.5s-61-55.5-83.5-67-38-38-9.5-52.5z" stroke="#000" stroke-opacity=".18" stroke-width="12"/><path d="M449 163.5c-2-16.4 12.5-30.5 32-41 2.8 0-141.414-46.472-208.5 144.029-17.667 50.166 222.294 69.458 238 35.5 18.5-40-59.47-76.852-72.5-89.529-19.5-18.972 13.5-28.5 11-49z" stroke="#000" stroke-opacity=".22" stroke-width="8"/><path d="M409.777 236.04c36.12 3.772 57.56 39.702 63.765 57.196l-2.936 11.379-133.772-20.648c9.265-17.548 36.823-51.7 72.943-47.927z" stroke="#000" stroke-opacity=".08" stroke-width="8"/><path d="M618 187.5c6-8.4-7.833-19.167-15.5-23.5-33-15-33.102 7.935-16.5 18.5 11 7 26.643 12.5 32 5z" stroke="#fff" stroke-opacity=".13"/><g filter="url(#filter1_f_80_3127)"><circle cx="580.5" cy="143.028" r="66.5" fill="#B0B8FF" fill-opacity=".32"/></g><g filter="url(#filter2_f_80_3127)"><circle cx="455" cy="247.529" r="32" fill="#B0FAFF" fill-opacity=".29"/></g></g><path d="M486.382 40.471L400 113.888" stroke="url(#paint3_linear_80_3127)" stroke-width=".5" stroke-linecap="round"/><path d="M568.317 26L517 69.888" stroke="url(#paint4_linear_80_3127)" stroke-width=".5" stroke-linecap="round"/><g filter="url(#filter3_f_80_3127)"><circle cx="400.5" cy="113.388" r="2.5" fill="#E89D67"/></g><g filter="url(#filter4_f_80_3127)"><circle cx="517.5" cy="69.388" r="2.5" fill="#E89D67"/></g><circle cx="400.5" cy="113.388" r="1.5" fill="#fff"/><circle cx="517.5" cy="69.388" r="1.5" fill="#fff"/><mask id="b" style="mask-type:alpha" maskUnits="userSpaceOnUse" x="141" y="198" width="695" height="145"><path d="M250.7 275.839c-30.631 22.505-85.72 35.178-109.435 38.702 46.656 33.107 904.485 67.398 645.099-85.687-95.14-56.15-152.241-19.43-175.595-9.09-23.355 10.34-35.137 3.727-76.873-8.862-41.736-12.589-58.944-4.97-100.229 17.207-41.284 22.178-87.155 14.28-104.271 16.268-17.116 1.988-40.408 3.331-78.696 31.462z" fill="url(#paint5_linear_80_3127)"/></mask><g mask="url(#b)"><path d="M251.553 275.722c-30.631 22.504-85.719 35.178-109.435 38.701 46.656 33.107 449.506-43.33 645.099-85.687-95.139-56.15-152.241-19.43-175.595-9.09-23.354 10.34-35.136 3.727-76.873-8.862-41.736-12.589-58.944-4.97-100.228 17.208-41.284 22.177-87.156 14.279-104.272 16.267-17.116 1.989-40.408 3.332-78.696 31.463z" fill="#9D6BB5"/><path d="M250.801 276.574c-30.631 22.505-85.719 35.178-109.435 38.702 46.656 33.107 927.544 42.351 645.099-85.687-95.139-56.15-152.241-19.43-175.595-9.09-23.354 10.34-35.136 3.727-76.872-8.862-41.737-12.589-58.945-4.97-100.229 17.207-41.284 22.178-87.155 14.28-104.271 16.268-17.116 1.988-40.408 3.331-78.697 31.462z" fill="url(#paint6_linear_80_3127)"/><path d="M431.316 242.97c5.007 8.186 15.29 12.905 28.009 13.822 12.709.917 27.76-1.976 42.122-8.923 14.362-6.946 25.273-16.61 31.315-26.596 6.047-9.993 7.182-20.234 2.175-28.421-5.006-8.187-15.289-12.905-28.009-13.822-12.709-.917-27.76 1.976-42.122 8.922-14.362 6.947-25.272 16.61-31.314 26.596-6.047 9.994-7.182 20.235-2.176 28.422z" stroke="#000" stroke-opacity=".5"/><path d="M433.732 229.982c5.006 8.187 15.289 12.905 28.008 13.822 12.71.917 27.761-1.976 42.123-8.922 14.362-6.947 25.272-16.61 31.314-26.596 6.047-9.994 7.182-20.235 2.175-28.422-5.006-8.186-15.289-12.905-28.008-13.822-12.709-.917-27.76 1.976-42.122 8.923-14.362 6.946-25.273 16.61-31.315 26.596-6.047 9.993-7.182 20.234-2.175 28.421zM253.407 265.363c5.006 8.186 15.289 12.905 28.008 13.822 12.709.917 27.76-1.976 42.122-8.923 14.362-6.946 25.273-16.61 31.315-26.596 6.047-9.993 7.182-20.234 2.175-28.421-5.006-8.187-15.289-12.905-28.008-13.822-12.709-.917-27.761 1.976-42.123 8.922-14.362 6.947-25.272 16.61-31.314 26.596-6.047 9.994-7.182 20.235-2.175 28.422z" stroke="#000" stroke-opacity=".5"/><path d="M504.207 197.399c-12.87 4.398 88.314 67.803 116.321 36.372 28.007-31.43-103.451-40.771-116.321-36.372z" fill="#000" fill-opacity=".23"/><path d="M431.553 241.135c-26.192 9.308-74.622 2.187-95.564-2.537 19.137 1.103 63.543 1.115 88.069-7.664 30.657-10.973 40.235-1.435 7.495 10.201z" fill="#000" fill-opacity=".25"/></g><path d="M408 45l.679 2.321L411 48l-2.321.679L408 51l-.679-2.321L405 48l2.321-.679L408 45zM585 97l.679 2.321L588 100l-2.321.679L585 103l-.679-2.321L582 100l2.321-.679L585 97zM348 210l.679 2.321L351 213l-2.321.679L348 216l-.679-2.321L345 213l2.321-.679L348 210zM227 34l.679 2.321L230 37l-2.321.679L227 40l-.679-2.321L224 37l2.321-.679L227 34z" fill="#fff"/><circle cx="383.5" cy="9.5" r=".5" fill="#fff"/><circle cx="336" cy="78" r="1" fill="#fff"/><circle cx="582" cy="48" r="1" fill="#fff"/><circle cx="389" cy="156" r="1" fill="#fff"/><circle cx="286" cy="33" r="1" fill="#fff"/><circle cx="362.5" cy="128.5" r=".5" fill="#fff"/><circle cx="235.5" cy="224.5" r=".5" fill="#fff"/><circle cx="287.5" cy="87.5" r=".5" fill="#fff"/><circle cx="314.5" cy="181.5" r=".5" fill="#fff"/><circle cx="344.5" cy="31.5" r=".5" fill="#fff"/><circle cx="375.5" cy="79.5" r=".5" fill="#fff"/><circle cx="443.5" cy="22.5" r=".5" fill="#fff"/><circle cx="527.5" cy="93.5" r=".5" fill="#fff"/><circle cx="297.5" cy="225.5" r=".5" fill="#fff"/><circle cx="214.5" cy="186.5" r=".5" fill="#fff"/><circle cx="177.5" cy="234.5" r=".5" fill="#fff"/><circle cx="132.5" cy="34.5" r=".5" fill="#fff"/><circle cx="181.5" cy="76.5" r=".5" fill="#fff"/><circle cx="189.5" cy="18.5" r=".5" fill="#fff"/><circle cx="321.5" cy="111.5" r=".5" fill="#fff"/><circle cx="442.5" cy="58.5" r=".5" fill="#fff"/><circle cx="465.5" cy="17.5" r=".5" fill="#fff"/><circle cx="471.5" cy="103.5" r=".5" fill="#fff"/><circle cx="543.5" cy="18.5" r=".5" fill="#fff"/><circle cx="267.5" cy="200.5" r=".5" fill="#fff"/><circle cx="224.5" cy="96.5" r=".5" fill="#fff"/></g><defs><linearGradient id="paint0_linear_80_3127" x1="302" y1="0" x2="302" y2="469.5" gradientUnits="userSpaceOnUse"><stop offset=".271" stop-color="#21284B"/><stop offset="1" stop-color="#5153E7"/></linearGradient><linearGradient id="paint3_linear_80_3127" x1="400.172" y1="114.742" x2="482.458" y2="45.459" gradientUnits="userSpaceOnUse"><stop/><stop offset="0" stop-color="#fff"/><stop offset="1" stop-color="#fff" stop-opacity="0"/></linearGradient><linearGradient id="paint4_linear_80_3127" x1="517.301" y1="70.633" x2="566.312" y2="29.365" gradientUnits="userSpaceOnUse"><stop/><stop offset="0" stop-color="#fff"/><stop offset="1" stop-color="#fff" stop-opacity="0"/></linearGradient><linearGradient id="paint5_linear_80_3127" x1="373.667" y1="221.787" x2="587.133" y2="298.18" gradientUnits="userSpaceOnUse"><stop stop-color="#354E8F"/><stop offset="1" stop-color="#1F3161"/></linearGradient><linearGradient id="paint6_linear_80_3127" x1="373.768" y1="222.522" x2="594.18" y2="264.339" gradientUnits="userSpaceOnUse"><stop stop-color="#765387"/><stop offset="1" stop-color="#1F3161"/></linearGradient><filter id="filter0_f_80_3127" x="172.647" y="-414.398" width="794.469" height="679.147" filterUnits="userSpaceOnUse" color-interpolation-filters="sRGB"><feFlood flood-opacity="0" result="BackgroundImageFix"/><feBlend in="SourceGraphic" in2="BackgroundImageFix" result="shape"/><feGaussianBlur stdDeviation="47" result="effect1_foregroundBlur_80_3127"/></filter><filter id="filter1_f_80_3127" x="473" y="35.529" width="215" height="215" filterUnits="userSpaceOnUse" color-interpolation-filters="sRGB"><feFlood flood-opacity="0" result="BackgroundImageFix"/><feBlend in="SourceGraphic" in2="BackgroundImageFix" result="shape"/><feGaussianBlur stdDeviation="20.5" result="effect1_foregroundBlur_80_3127"/></filter><filter id="filter2_f_80_3127" x="390" y="182.529" width="130" height="130" filterUnits="userSpaceOnUse" color-interpolation-filters="sRGB"><feFlood flood-opacity="0" result="BackgroundImageFix"/><feBlend in="SourceGraphic" in2="BackgroundImageFix" result="shape"/><feGaussianBlur stdDeviation="16.5" result="effect1_foregroundBlur_80_3127"/></filter><filter id="filter3_f_80_3127" x="385" y="97.888" width="31" height="31" filterUnits="userSpaceOnUse" color-interpolation-filters="sRGB"><feFlood flood-opacity="0" result="BackgroundImageFix"/><feBlend in="SourceGraphic" in2="BackgroundImageFix" result="shape"/><feGaussianBlur stdDeviation="6.5" result="effect1_foregroundBlur_80_3127"/></filter><filter id="filter4_f_80_3127" x="502" y="53.888" width="31" height="31" filterUnits="userSpaceOnUse" color-interpolation-filters="sRGB"><feFlood flood-opacity="0" result="BackgroundImageFix"/><feBlend in="SourceGraphic" in2="BackgroundImageFix" result="shape"/><feGaussianBlur stdDeviation="6.5" result="effect1_foregroundBlur_80_3127"/></filter><radialGradient id="paint1_radial_80_3127" cx="0" cy="0" r="1" gradientUnits="userSpaceOnUse" gradientTransform="matrix(0 173 -173 0 527 270)"><stop offset=".321" stop-color="#241C62"/><stop offset="1" stop-color="#70426E"/></radialGradient><radialGradient id="paint2_radial_80_3127" cx="0" cy="0" r="1" gradientUnits="userSpaceOnUse" gradientTransform="matrix(0 178.728 -178.728 0 532 275)"><stop offset=".321" stop-color="#3B1C62"/><stop offset="1" stop-color="#425770"/></radialGradient><clipPath id="clip0_80_3127"><path fill="#fff" d="M0 0h604v256H0z"/></clipPath></defs></svg>