<svg xmlns:xlink="http://www.w3.org/1999/xlink" xmlns="http://www.w3.org/2000/svg" width="604" height="256" fill="none"><g clip-path="url(#clip0_80_3149)"><path fill="url(#paint0_linear_80_3149)" d="M0 0h604v256H0z"/><g filter="url(#filter0_f_80_3149)"><ellipse cx="569.882" cy="-74.824" rx="252.089" ry="84.228" transform="rotate(-37.462 569.882 -74.824)" fill="#000" fill-opacity=".6"/></g><g filter="url(#filter1_f_80_3149)"><ellipse cx="-37.673" cy="280.186" rx="252.089" ry="84.228" transform="rotate(-37.462 -37.673 280.186)" fill="#000" fill-opacity=".6"/></g><g filter="url(#filter2_f_80_3149)"><ellipse cx="423.327" cy="297.186" rx="252.089" ry="84.228" transform="rotate(-37.462 423.327 297.186)" fill="#000" fill-opacity=".6"/></g><g filter="url(#filter3_f_80_3149)"><circle cx="474.572" cy="169.572" r="31.494" transform="rotate(15 474.572 169.572)" fill="#FFDAC6" fill-opacity=".72"/></g><mask id="a" style="mask-type:alpha" maskUnits="userSpaceOnUse" x="437" y="131" width="76" height="77"><circle cx="474.943" cy="169.787" r="37.907" transform="rotate(15 474.943 169.787)" fill="#D9D9D9"/></mask><g mask="url(#a)"><circle cx="474.943" cy="169.787" r="37.907" transform="rotate(15 474.943 169.787)" fill="#fff"/><circle cx="475.936" cy="171.507" r="37.907" transform="rotate(15 475.936 171.507)" fill="url(#paint1_radial_80_3149)"/><path fill="#AB76CC" fill-opacity=".28" d="M435.784 169.469l71.875 19.259-3.634 13.561-71.875-19.258zM454.919 125.178l58.314 15.625-2.18 8.137-58.314-15.625zM433 152.735l85.436 22.893-1.453 5.424-85.437-22.892z"/><circle cx="487.68" cy="181.921" r="37.907" transform="rotate(15 487.68 181.921)" fill="#000" fill-opacity=".17"/></g><path d="M658.675 226.286c-7.692 28.709-35.452 49.181-74.22 59.026-38.759 9.842-88.464 9.043-139.922-4.745s-94.903-37.949-123.548-65.852c-28.652-27.91-42.456-59.519-34.764-88.228 7.693-28.709 35.453-49.181 74.22-59.026 38.759-9.843 88.464-9.044 139.922 4.745 51.459 13.788 94.904 37.948 123.549 65.852 28.651 27.909 42.456 59.519 34.763 88.228z" stroke="#fff" stroke-opacity=".5" stroke-width=".5"/><path d="M635.718 214.32c-6.588 24.589-30.539 42.085-64.044 50.447-33.496 8.36-76.482 7.572-121.012-4.36-44.531-11.932-82.152-32.743-106.98-56.73-24.835-23.995-36.829-51.122-30.241-75.71 6.589-24.589 30.54-42.085 64.045-50.447 33.495-8.36 76.481-7.572 121.012 4.36 44.531 11.932 82.151 32.743 106.979 56.73 24.835 23.995 36.83 51.122 30.241 75.71z" stroke="#fff" stroke-opacity=".5" stroke-width=".5"/><path d="M589.61 201.966c-4.682 17.472-21.746 29.91-45.658 35.845-23.902 5.933-54.588 5.35-86.386-3.171-31.799-8.52-58.665-23.358-76.398-40.447-17.741-17.096-26.3-36.399-21.618-53.872 4.682-17.472 21.745-29.91 45.657-35.845 23.902-5.933 54.588-5.35 86.387 3.171 31.798 8.52 58.664 23.358 76.398 40.447 17.74 17.096 26.299 36.399 21.618 53.872z" stroke="#fff" stroke-opacity=".5" stroke-width=".5"/><path d="M572.343 195.886c-4.08 15.229-18.63 26.159-38.955 31.476-20.316 5.314-46.35 5.001-73.278-2.215-26.929-7.215-49.631-19.961-64.569-34.721-14.943-14.767-22.079-31.507-17.998-46.737 4.081-15.229 18.631-26.159 38.955-31.476 20.317-5.314 46.35-5.001 73.279 2.214 26.929 7.216 49.631 19.961 64.568 34.722 14.944 14.767 22.079 31.507 17.998 46.737z" stroke="#fff" stroke-opacity=".5" stroke-width=".5"/><path d="M560.138 192.615c-3.579 13.358-16.309 22.958-34.096 27.64-17.779 4.679-40.557 4.424-64.116-1.888-23.558-6.313-43.412-17.481-56.47-30.423-13.063-12.948-19.287-27.627-15.708-40.985 3.579-13.357 16.309-22.958 34.096-27.639 17.779-4.679 40.558-4.424 64.116 1.888 23.558 6.313 43.412 17.481 56.47 30.423 13.063 12.947 19.287 27.627 15.708 40.984z" stroke="#fff" stroke-opacity=".5" stroke-width=".5"/><path d="M551.609 191.848c-3.503 12.174-15.212 20.787-31.405 24.829-16.186 4.04-36.802 3.496-58.004-2.606-21.202-6.101-38.954-16.597-50.517-28.622-11.568-12.03-16.908-25.55-13.405-37.723 3.503-12.173 15.212-20.786 31.405-24.828 16.186-4.04 36.801-3.496 58.003 2.605 21.203 6.101 38.954 16.597 50.517 28.623 11.568 12.03 16.909 25.549 13.406 37.722z" stroke="#fff" stroke-opacity=".5" stroke-width=".5"/><path d="M544.04 192.572c-3.603 10.925-14.557 18.329-29.448 21.422-14.884 3.091-33.649 1.859-52.761-4.444-19.112-6.302-34.929-16.473-45.055-27.811-10.131-11.344-14.532-23.811-10.93-34.736 3.603-10.925 14.557-18.33 29.448-21.422 14.884-3.091 33.649-1.859 52.761 4.443 19.112 6.302 34.929 16.474 45.055 27.812 10.131 11.343 14.532 23.811 10.93 34.736z" stroke="#fff" stroke-opacity=".5" stroke-width=".5"/><mask id="b" style="mask-type:alpha" maskUnits="userSpaceOnUse" x="461" y="93" width="22" height="22"><circle cx="471.896" cy="103.896" r="10.53" transform="rotate(15 471.896 103.896)" fill="#D9D9D9"/></mask><g mask="url(#b)"><circle cx="471.896" cy="103.896" r="10.53" transform="rotate(15 471.896 103.896)" fill="#BDD7FF"/><circle cx="478.314" cy="107.069" r="10.53" transform="rotate(15 478.314 107.069)" fill="url(#paint2_linear_80_3149)"/></g><mask id="c" style="mask-type:alpha" maskUnits="userSpaceOnUse" x="383" y="136" width="22" height="23"><circle cx="394.435" cy="147.489" r="10.53" transform="rotate(15 394.435 147.489)" fill="#D9D9D9"/></mask><g mask="url(#c)"><circle cx="394.435" cy="147.489" r="10.53" transform="rotate(15 394.435 147.489)" fill="#BDD7FF"/><circle cx="400.852" cy="150.662" r="10.53" transform="rotate(15 400.852 150.662)" fill="url(#paint3_linear_80_3149)"/></g><mask id="d" style="mask-type:alpha" maskUnits="userSpaceOnUse" x="355" y="211" width="22" height="22"><circle cx="365.896" cy="221.896" r="10.53" transform="rotate(15 365.896 221.896)" fill="#D9D9D9"/></mask><g mask="url(#d)"><circle cx="365.896" cy="221.896" r="10.53" transform="rotate(15 365.896 221.896)" fill="#BDD7FF"/><circle cx="372.314" cy="225.069" r="10.53" transform="rotate(15 372.314 225.069)" fill="url(#paint4_linear_80_3149)"/></g><mask id="e" style="mask-type:alpha" maskUnits="userSpaceOnUse" x="278" y="118" width="22" height="22"><circle cx="288.896" cy="128.896" r="10.53" transform="rotate(15 288.896 128.896)" fill="#D9D9D9"/></mask><g mask="url(#e)"><circle cx="288.896" cy="128.896" r="10.53" transform="rotate(15 288.896 128.896)" fill="#BDD7FF"/><circle cx="295.314" cy="132.069" r="10.53" transform="rotate(15 295.314 132.069)" fill="url(#paint5_linear_80_3149)"/></g><mask id="f" style="mask-type:alpha" maskUnits="userSpaceOnUse" x="561" y="180" width="22" height="22"><circle cx="571.822" cy="190.659" r="10.53" transform="rotate(15 571.822 190.659)" fill="#D9D9D9"/></mask><g mask="url(#f)"><circle cx="571.822" cy="190.659" r="10.53" transform="rotate(15 571.822 190.659)" fill="#BDD7FF"/><circle cx="578.24" cy="193.832" r="10.53" transform="rotate(15 578.24 193.832)" fill="url(#paint6_linear_80_3149)"/></g><mask id="g" style="mask-type:alpha" maskUnits="userSpaceOnUse" x="489" y="208" width="22" height="22"><circle cx="500.161" cy="219.423" r="10.53" transform="rotate(15 500.161 219.423)" fill="#D9D9D9"/></mask><g mask="url(#g)"><circle cx="500.161" cy="219.423" r="10.53" transform="rotate(15 500.161 219.423)" fill="#BDD7FF"/><circle cx="506.578" cy="222.596" r="10.53" transform="rotate(15 506.578 222.596)" fill="url(#paint7_linear_80_3149)"/></g><path d="M570 50l.679 2.321L573 53l-2.321.679L570 56l-.679-2.321L567 53l2.321-.679L570 50zM444 19l.679 2.321L447 22l-2.321.679L444 25l-.679-2.321L441 22l2.321-.679L444 19zM286 235l.679 2.321L289 238l-2.321.679L286 241l-.679-2.321L283 238l2.321-.679L286 235zM231 35l.679 2.321L234 38l-2.321.679L231 41l-.679-2.321L228 38l2.321-.679L231 35zM214 216l.679 2.321L217 219l-2.321.679L214 222l-.679-2.321L211 219l2.321-.679L214 216zM594 142l.679 2.321L597 145l-2.321.679L594 148l-.679-2.321L591 145l2.321-.679L594 142z" fill="#fff"/><circle cx="331" cy="26" r="1" fill="#fff"/><circle cx="512" cy="31" r="1" fill="#fff"/><circle cx="393" cy="94" r="1" fill="#fff"/><circle cx="275" cy="190" r="1" fill="#fff"/><circle cx="277" cy="59" r="1" fill="#fff"/><circle cx="571" cy="19" r="1" fill="#fff"/><circle cx="580" cy="243" r="1" fill="#fff"/><circle cx="471.5" cy="22.5" r=".5" fill="#fff"/><circle cx="398.5" cy="38.5" r=".5" fill="#fff"/><circle cx="371.5" cy="22.5" r=".5" fill="#fff"/><circle cx="332.5" cy="56.5" r=".5" fill="#fff"/><circle cx="301.5" cy="34.5" r=".5" fill="#fff"/><circle cx="333.5" cy="117.5" r=".5" fill="#fff"/><circle cx="334.5" cy="157.5" r=".5" fill="#fff"/><circle cx="357.5" cy="188.5" r=".5" fill="#fff"/><circle cx="302.5" cy="169.5" r=".5" fill="#fff"/><circle cx="257.5" cy="222.5" r=".5" fill="#fff"/><circle cx="247.5" cy="148.5" r=".5" fill="#fff"/><circle cx="228.5" cy="90.5" r=".5" fill="#fff"/><circle cx="585.5" cy="89.5" r=".5" fill="#fff"/><circle cx="531.5" cy="60.5" r=".5" fill="#fff"/><circle cx="594.5" cy="35.5" r=".5" fill="#fff"/><circle cx="521.5" cy="104.5" r=".5" fill="#fff"/><circle cx="447.5" cy="244.5" r=".5" fill="#fff"/><circle cx="429.5" cy="141.5" r=".5" fill="#fff"/><circle cx="441.5" cy="77.5" r=".5" fill="#fff"/><circle cx="330.5" cy="87.5" r=".5" fill="#fff"/><circle cx="564.5" cy="123.5" r=".5" fill="#fff"/><circle cx="593.5" cy="236.5" r=".5" fill="#fff"/><circle cx="536.5" cy="251.5" r=".5" fill="#fff"/><circle cx="530.5" cy="199.5" r=".5" fill="#fff"/><circle cx="522.5" cy="177.5" r=".5" fill="#fff"/><circle cx="551.5" cy="78.5" r=".5" fill="#fff"/><circle cx="261.5" cy="11.5" r=".5" fill="#fff"/><circle cx="258.5" cy="94.5" r=".5" fill="#fff"/><circle cx="234.5" cy="196.5" r=".5" fill="#fff"/><circle cx="329.5" cy="201.5" r=".5" fill="#fff"/><circle cx="391.5" cy="250.5" r=".5" fill="#fff"/><circle cx="394.5" cy="222.5" r=".5" fill="#fff"/><circle cx="428.5" cy="170.5" r=".5" fill="#fff"/><circle cx="371.5" cy="140.5" r=".5" fill="#fff"/><circle cx="567.5" cy="222.5" r=".5" fill="#fff"/><circle cx="573.5" cy="160.5" r=".5" fill="#fff"/><circle cx="430.5" cy="221.5" r=".5" fill="#fff"/><circle cx="385.5" cy="193.5" r=".5" fill="#fff"/><circle cx="391.5" cy="178.5" r=".5" fill="#fff"/><circle cx="500.5" cy="237.5" r=".5" fill="#fff"/><circle cx="436.5" cy="111.5" r=".5" fill="#fff"/><circle cx="462.5" cy="88.5" r=".5" fill="#fff"/><circle cx="177.5" cy="49.5" r=".5" fill="#fff"/><circle cx="115.5" cy="39.5" r=".5" fill="#fff"/><circle cx="184.5" cy="89.5" r=".5" fill="#fff"/><circle cx="160.5" cy="17.5" r=".5" fill="#fff"/><circle cx="123.5" cy="71.5" r=".5" fill="#fff"/><circle cx="185.5" cy="189.5" r=".5" fill="#fff"/><circle cx="140.5" cy="238.5" r=".5" fill="#fff"/><circle cx="211.5" cy="241.5" r=".5" fill="#fff"/></g><defs><linearGradient id="paint0_linear_80_3149" x1="302" y1="0" x2="302" y2="469.5" gradientUnits="userSpaceOnUse"><stop offset=".271" stop-color="#21284B"/><stop offset="1" stop-color="#5153E7"/></linearGradient><linearGradient id="paint2_linear_80_3149" x1="478.314" y1="96.54" x2="478.314" y2="117.599" gradientUnits="userSpaceOnUse"><stop stop-color="#486FD5"/><stop offset="1" stop-color="#733B8D"/></linearGradient><linearGradient id="paint3_linear_80_3149" x1="400.852" y1="140.132" x2="400.852" y2="161.191" gradientUnits="userSpaceOnUse"><stop stop-color="#486FD5"/><stop offset="1" stop-color="#733B8D"/></linearGradient><linearGradient id="paint4_linear_80_3149" x1="372.314" y1="214.539" x2="372.314" y2="235.599" gradientUnits="userSpaceOnUse"><stop stop-color="#486FD5"/><stop offset="1" stop-color="#733B8D"/></linearGradient><linearGradient id="paint5_linear_80_3149" x1="295.314" y1="121.54" x2="295.314" y2="142.599" gradientUnits="userSpaceOnUse"><stop stop-color="#486FD5"/><stop offset="1" stop-color="#733B8D"/></linearGradient><linearGradient id="paint6_linear_80_3149" x1="578.24" y1="183.302" x2="578.24" y2="204.362" gradientUnits="userSpaceOnUse"><stop stop-color="#486FD5"/><stop offset="1" stop-color="#733B8D"/></linearGradient><linearGradient id="paint7_linear_80_3149" x1="506.578" y1="212.066" x2="506.578" y2="233.126" gradientUnits="userSpaceOnUse"><stop stop-color="#486FD5"/><stop offset="1" stop-color="#733B8D"/></linearGradient><filter id="filter0_f_80_3149" x="269.282" y="-336.139" width="601.2" height="522.629" filterUnits="userSpaceOnUse" color-interpolation-filters="sRGB"><feFlood flood-opacity="0" result="BackgroundImageFix"/><feBlend in="SourceGraphic" in2="BackgroundImageFix" result="shape"/><feGaussianBlur stdDeviation="47" result="effect1_foregroundBlur_80_3149"/></filter><filter id="filter1_f_80_3149" x="-338.273" y="18.872" width="601.2" height="522.629" filterUnits="userSpaceOnUse" color-interpolation-filters="sRGB"><feFlood flood-opacity="0" result="BackgroundImageFix"/><feBlend in="SourceGraphic" in2="BackgroundImageFix" result="shape"/><feGaussianBlur stdDeviation="47" result="effect1_foregroundBlur_80_3149"/></filter><filter id="filter2_f_80_3149" x="122.727" y="35.872" width="601.2" height="522.629" filterUnits="userSpaceOnUse" color-interpolation-filters="sRGB"><feFlood flood-opacity="0" result="BackgroundImageFix"/><feBlend in="SourceGraphic" in2="BackgroundImageFix" result="shape"/><feGaussianBlur stdDeviation="47" result="effect1_foregroundBlur_80_3149"/></filter><filter id="filter3_f_80_3149" x="393.07" y="88.07" width="163.003" height="163.003" filterUnits="userSpaceOnUse" color-interpolation-filters="sRGB"><feFlood flood-opacity="0" result="BackgroundImageFix"/><feBlend in="SourceGraphic" in2="BackgroundImageFix" result="shape"/><feGaussianBlur stdDeviation="25" result="effect1_foregroundBlur_80_3149"/></filter><radialGradient id="paint1_radial_80_3149" cx="0" cy="0" r="1" gradientUnits="userSpaceOnUse" gradientTransform="rotate(44.502 36.907 636.864) scale(57.0858)"><stop offset="0" stop-color="#6C5FBD"/><stop offset="1" stop-color="#352F79"/></radialGradient><clipPath id="clip0_80_3149"><path fill="#fff" d="M0 0h604v256H0z"/></clipPath></defs></svg>