<svg xmlns:xlink="http://www.w3.org/1999/xlink" xmlns="http://www.w3.org/2000/svg" width="604" height="256" fill="none"><g clip-path="url(#clip0_80_3141)"><path fill="url(#paint0_linear_80_3141)" d="M0 0h604v256H0z"/><g filter="url(#filter0_f_80_3141)"><ellipse cx="569.882" cy="-74.824" rx="370" ry="123.624" transform="rotate(-37.462 569.882 -74.824)" fill="#223D9C" fill-opacity=".6"/></g><path fill-rule="evenodd" clip-rule="evenodd" d="M409.361 80.44c.545-.67 1.53-.77 2.2-.225l63.327 51.6a1.564 1.564 0 01-1.976 2.425l-63.327-51.6a1.564 1.564 0 01-.224-2.2z" fill="#9E9CEE"/><path fill-rule="evenodd" clip-rule="evenodd" d="M378.661 104.236a1.564 1.564 0 012.066.789l33.228 74.273a1.565 1.565 0 01-2.855 1.277l-33.227-74.273c-.353-.788 0-1.713.788-2.066z" fill="url(#paint1_linear_80_3141)"/><path fill-rule="evenodd" clip-rule="evenodd" d="M400.293 105.947a1.563 1.563 0 012.178.382l36.746 52.382a1.565 1.565 0 01-2.561 1.796l-36.745-52.382a1.563 1.563 0 01.382-2.178z" fill="url(#paint2_linear_80_3141)"/><mask id="a" style="mask-type:alpha" maskUnits="userSpaceOnUse" x="375" y="74" width="43" height="43"><circle cx="396.109" cy="95.109" r="21.109" fill="#D9D9D9"/></mask><g mask="url(#a)"><circle cx="396.109" cy="95.109" r="21.109" fill="url(#paint3_radial_80_3141)"/><path fill-rule="evenodd" clip-rule="evenodd" d="M373.886 110.995l41.436-32.446 1.446 1.847-41.436 32.446-1.446-1.847z" fill="#2B2969" fill-opacity=".47"/><path d="M406.664 113.873l-8.6-18.373 13.291 14.855-4.691 3.518z" fill="#000" fill-opacity=".4"/></g><path fill-rule="evenodd" clip-rule="evenodd" d="M394.373 88.398a1.564 1.564 0 012.193.284l55.118 71.536a1.564 1.564 0 01-2.477 1.909l-55.118-71.536a1.564 1.564 0 01.284-2.193z" fill="url(#paint4_linear_80_3141)"/><circle opacity=".4" cx="593.365" cy="5.365" r="240.297" transform="rotate(63.353 593.365 5.365)" fill="url(#paint5_radial_80_3141)"/><circle opacity=".2" cx="593.365" cy="5.365" r="148.565" transform="rotate(63.353 593.365 5.365)" fill="url(#paint6_radial_80_3141)"/><g filter="url(#filter1_f_80_3141)"><circle cx="597.162" cy="7.528" r="106.947" transform="rotate(63.353 597.162 7.528)" fill="#fff" fill-opacity=".18"/></g><mask id="b" style="mask-type:alpha" maskUnits="userSpaceOnUse" x="486" y="-102" width="215" height="215"><circle cx="593.365" cy="5.365" r="106.947" transform="rotate(63.353 593.365 5.365)" fill="url(#paint7_radial_80_3141)"/></mask><g mask="url(#b)"><circle cx="593.365" cy="5.365" r="106.947" transform="rotate(63.353 593.365 5.365)" fill="#fff"/><circle cx="594.365" cy="5.365" r="106.947" transform="rotate(63.353 594.365 5.365)" fill="url(#paint8_radial_80_3141)"/><path d="M608.721 90.565c-17.312 3.034-55.072 1.525-67.609-28.78-15.67-37.883-35.544-54.827-91.112-43.14" stroke="url(#paint9_linear_80_3141)" stroke-opacity=".03" stroke-width="3"/><path d="M619.199 67.377c-17.313 3.033-55.072 1.524-67.609-28.781-15.671-37.882-35.545-54.827-91.112-43.14" stroke="url(#paint10_linear_80_3141)" stroke-opacity=".03" stroke-width="16"/><path d="M627.835 23.895c-10.134 19.66-41.541 21.22-55.521-8.212-17.475-36.791-31.178-84.453-83.332-69.226" stroke="url(#paint11_linear_80_3141)" stroke-opacity=".05" stroke-width="28"/></g><path d="M627.964-61.504c-11.282-8.4-26.642.824-33.716 13.012-11.25 19.382 32.262 46.83 48.58 30.304 13.758-13.932-.762-32.817-14.864-43.316z" stroke="url(#paint12_linear_80_3141)" stroke-width="3"/><path d="M626.607-62.857c-11.282-8.4-26.641.824-33.715 13.012-11.251 19.382 32.261 46.83 48.579 30.304 13.758-13.932-.761-32.817-14.864-43.316z" fill="#141043" stroke="url(#paint13_linear_80_3141)" stroke-width="2"/><mask id="c" style="mask-type:alpha" maskUnits="userSpaceOnUse" x="135" y="215" width="517" height="114"><path d="M447.841 215.006C327.58 214.355 189.172 269.388 135 296.783c0 48.822 344.667 29.971 517 14.647v-62.249c-17.944-11.12-83.898-33.524-204.159-34.175z" fill="url(#paint14_linear_80_3141)"/></mask><g mask="url(#c)"><path d="M447.841 215.006C327.58 214.355 189.172 269.388 135 296.783c0 48.822 344.667 29.971 517 14.647v-62.249c-17.944-11.12-83.898-33.524-204.159-34.175z" fill="#fff"/><path d="M449.872 215.006c-120.261-.651-258.669 54.382-312.841 81.777 0 48.822 344.667 29.971 517 14.647v-62.249c-17.944-11.12-83.898-33.524-204.159-34.175z" fill="url(#paint15_linear_80_3141)"/><path d="M596.135 229.246c-41.136 20.749-137.426 27.91-189.431 20.749-52.004-7.16-123.409-10.985-175.719 6.103" stroke="#fff" stroke-opacity=".11"/><path d="M481.246 191.344c-13.349 3.883-24.194 10.076-30.944 16.928-6.767 6.87-9.328 14.297-6.428 20.695 2.9 6.399 10.812 10.779 21.505 12.57 10.665 1.787 23.944.964 37.293-2.919 13.35-3.883 24.195-10.077 30.944-16.929 6.767-6.87 9.328-14.297 6.428-20.695-2.899-6.398-10.812-10.778-21.505-12.57-10.664-1.787-23.943-.963-37.293 2.92z" stroke="#fff" stroke-opacity=".13"/><g filter="url(#filter3_f_80_3141)"><ellipse rx="90.657" ry="36.429" transform="matrix(-.96397 .26603 .39504 .91867 296.29 224.581)" fill="#B17773" fill-opacity=".42"/></g><path d="M185.083 331.252c55.476-3.166 154.326-19.127 105.915-57.645-60.514-48.148-272.258 63.201-105.915 57.645z" fill="url(#paint16_linear_80_3141)" fill-opacity=".21"/><path d="M429.76 313.25c45.928 8.122 130.862 14.225 103.175-26.33-34.608-50.695-239.706-1.212-103.175 26.33z" fill="#000" fill-opacity=".1"/><path d="M662.157 245.145c-36.566-.678-108.377 9.276-103.095 54.518" stroke="#fff" stroke-opacity=".06"/></g><path d="M585.382 101L499 174.416" stroke="url(#paint17_linear_80_3141)" stroke-width=".5" stroke-linecap="round"/><path d="M368.382 90L282 163.416" stroke="url(#paint18_linear_80_3141)" stroke-width=".5" stroke-linecap="round"/><path d="M356.317 43L305 86.888" stroke="url(#paint19_linear_80_3141)" stroke-width=".5" stroke-linecap="round"/><g filter="url(#filter4_f_80_3141)"><circle cx="499.5" cy="173.916" r="2.5" fill="#E89D67"/></g><g filter="url(#filter5_f_80_3141)"><circle cx="282.5" cy="162.916" r="2.5" fill="#E89D67"/></g><g filter="url(#filter6_f_80_3141)"><circle cx="305.5" cy="86.388" r="2.5" fill="#E89D67"/></g><circle cx="499.5" cy="173.916" r="1.5" fill="#fff"/><circle cx="282.5" cy="162.916" r="1.5" fill="#fff"/><circle cx="305.5" cy="86.388" r="1.5" fill="#fff"/><path d="M354 177l.679 2.321L357 180l-2.321.679L354 183l-.679-2.321L351 180l2.321-.679L354 177zM426 26l.679 2.321L429 29l-2.321.679L426 32l-.679-2.321L423 29l2.321-.679L426 26zM573 191l.679 2.321L576 194l-2.321.679L573 197l-.679-2.321L570 194l2.321-.679L573 191zM222 59l.679 2.321L225 62l-2.321.679L222 65l-.679-2.321L219 62l2.321-.679L222 59z" fill="#fff"/><circle cx="248" cy="204" r="1" fill="#fff"/><circle cx="483" cy="85" r="1" fill="#fff"/><circle cx="306" cy="22" r="1" fill="#fff"/><circle cx="256.5" cy="110.5" r=".5" fill="#fff"/><circle cx="375.5" cy="31.5" r=".5" fill="#fff"/><circle cx="439.5" cy="195.5" r=".5" fill="#fff"/><circle cx="584.5" cy="158.5" r=".5" fill="#fff"/><circle cx="305.5" cy="205.5" r=".5" fill="#fff"/><circle cx="246.5" cy="20.5" r=".5" fill="#fff"/><circle cx="139.5" cy="51.5" r=".5" fill="#fff"/><circle cx="184.5" cy="228.5" r=".5" fill="#fff"/><circle cx="100.5" cy="26.5" r=".5" fill="#fff"/><mask id="d" style="mask-type:alpha" maskUnits="userSpaceOnUse" x="398" y="185" width="221" height="124"><path d="M566.521 186.213c-5.286-5.534-103.21 60.09-151.512 93.594L398 288.166l212.102 20.756 8.182-92.723c-15.052-7.689-46.477-24.451-51.763-29.986z" fill="url(#paint20_linear_80_3141)"/></mask><g mask="url(#d)"><path d="M566.521 186.213c-5.286-5.534-103.21 60.09-151.512 93.594L398 288.166l212.102 20.756 8.182-92.723c-15.052-7.689-46.477-24.451-51.763-29.986z" fill="url(#paint21_linear_80_3141)"/><path d="M514.162 258.519c-3.768-5.637 30.286-47.801 50.881-74.516-28.2 2.689-94.484 15.344-126.804 43.38-32.32 28.035-38.598 52.762-37.697 61.621l120.285 19.809 43.322-3.396c9.849-23.418 28.592-66.345 21.595-70.289-6.998-3.943-65.669 32.235-71.582 23.391z" fill="url(#paint22_linear_80_3141)"/><path d="M565.439 184.308l.703-.912-1.147.109c-14.128 1.347-37.78 5.189-61.948 12.203-24.156 7.01-48.892 17.207-65.135 31.297-16.203 14.055-25.895 27.295-31.425 38.153-5.522 10.844-6.906 19.339-6.442 23.897l.039.38.377.062 120.285 19.809.06.01.06-.005 43.322-3.395.304-.024.118-.281c.648-1.54 1.334-3.166 2.05-4.86 4.718-11.171 10.691-25.31 15.074-37.613 2.524-7.082 4.529-13.58 5.464-18.564.466-2.489.672-4.633.529-6.297-.142-1.639-.638-2.964-1.738-3.584-.562-.317-1.317-.402-2.166-.354-.861.049-1.889.24-3.048.541-2.318.603-5.232 1.669-8.526 3.021-5.022 2.061-10.975 4.807-17.122 7.643-1.918.885-3.855 1.778-5.789 2.663-8.143 3.724-16.225 7.282-22.635 9.358-3.208 1.039-5.965 1.696-8.085 1.828-2.16.133-3.463-.288-4.04-1.152-.148-.22-.237-.585-.193-1.156.043-.565.211-1.274.509-2.125.595-1.701 1.678-3.883 3.165-6.455 2.971-5.139 7.505-11.756 12.811-19.045 7.794-10.707 17.228-22.832 25.771-33.812 3.089-3.97 6.061-7.79 8.798-11.34z" stroke="#fff" stroke-opacity=".24"/></g></g><defs><linearGradient id="paint0_linear_80_3141" x1="302" y1="0" x2="302" y2="469.5" gradientUnits="userSpaceOnUse"><stop offset=".271" stop-color="#21284B"/><stop offset="1" stop-color="#5153E7"/></linearGradient><linearGradient id="paint1_linear_80_3141" x1="382.818" y1="104.491" x2="412.527" y2="180.327" gradientUnits="userSpaceOnUse"><stop stop-color="#34337B"/><stop offset="1" stop-color="#9F9EF0"/></linearGradient><linearGradient id="paint2_linear_80_3141" x1="405.882" y1="107.618" x2="446.146" y2="162.346" gradientUnits="userSpaceOnUse"><stop offset=".099" stop-color="#2A286D"/><stop offset="1" stop-color="#A19FF1"/></linearGradient><linearGradient id="paint4_linear_80_3141" x1="396.5" y1="88.855" x2="458.264" y2="165.473" gradientUnits="userSpaceOnUse"><stop stop-color="#4A4892"/><stop offset="1" stop-color="#B3B1F3"/></linearGradient><linearGradient id="paint9_linear_80_3141" x1="593.01" y1="98.932" x2="495.829" y2="9.119" gradientUnits="userSpaceOnUse"><stop stop-color="#fff"/><stop offset="1" stop-color="#fff" stop-opacity="0"/></linearGradient><linearGradient id="paint10_linear_80_3141" x1="603.188" y1="72.711" x2="524.017" y2="-9.826" gradientUnits="userSpaceOnUse"><stop stop-color="#fff"/><stop offset="1" stop-color="#fff" stop-opacity="0"/></linearGradient><linearGradient id="paint11_linear_80_3141" x1="623.763" y1="46.411" x2="539.403" y2="-26.964" gradientUnits="userSpaceOnUse"><stop stop-color="#F1C480"/><stop offset="1" stop-color="#F3D4A4" stop-opacity="0"/></linearGradient><linearGradient id="paint12_linear_80_3141" x1="648.477" y1="-17.882" x2="604.411" y2="-40.175" gradientUnits="userSpaceOnUse"><stop stop-color="#fff" stop-opacity=".06"/><stop offset="1" stop-color="#3E2D6E" stop-opacity="0"/></linearGradient><linearGradient id="paint13_linear_80_3141" x1="642.333" y1="-50.391" x2="596.841" y2="-27.564" gradientUnits="userSpaceOnUse"><stop/><stop offset="1" stop-color="#3E2D6E" stop-opacity="0"/></linearGradient><linearGradient id="paint14_linear_80_3141" x1="352.363" y1="107.19" x2="492.834" y2="336.451" gradientUnits="userSpaceOnUse"><stop stop-color="#684A7B"/><stop offset="1" stop-color="#0F1433"/></linearGradient><linearGradient id="paint15_linear_80_3141" x1="354.395" y1="107.19" x2="494.865" y2="336.451" gradientUnits="userSpaceOnUse"><stop stop-color="#684A7B"/><stop offset="1" stop-color="#232A59"/></linearGradient><linearGradient id="paint16_linear_80_3141" x1="214.225" y1="261.024" x2="213.231" y2="332.037" gradientUnits="userSpaceOnUse"><stop stop-color="#21284B"/><stop offset="1" stop-color="#21284B" stop-opacity="0"/></linearGradient><linearGradient id="paint17_linear_80_3141" x1="499.172" y1="175.271" x2="581.458" y2="105.988" gradientUnits="userSpaceOnUse"><stop/><stop offset="0" stop-color="#fff"/><stop offset="1" stop-color="#fff" stop-opacity="0"/></linearGradient><linearGradient id="paint18_linear_80_3141" x1="282.172" y1="164.271" x2="364.458" y2="94.988" gradientUnits="userSpaceOnUse"><stop/><stop offset="0" stop-color="#fff"/><stop offset="1" stop-color="#fff" stop-opacity="0"/></linearGradient><linearGradient id="paint19_linear_80_3141" x1="305.301" y1="87.633" x2="354.312" y2="46.365" gradientUnits="userSpaceOnUse"><stop/><stop offset="0" stop-color="#fff"/><stop offset="1" stop-color="#fff" stop-opacity="0"/></linearGradient><linearGradient id="paint20_linear_80_3141" x1="564.105" y1="174.298" x2="493.175" y2="295.938" gradientUnits="userSpaceOnUse"><stop stop-color="#834B7A"/><stop offset="1" stop-color="#101533"/></linearGradient><linearGradient id="paint21_linear_80_3141" x1="564.105" y1="174.298" x2="493.175" y2="295.938" gradientUnits="userSpaceOnUse"><stop stop-color="#834B7A"/><stop offset="1" stop-color="#101533"/></linearGradient><linearGradient id="paint22_linear_80_3141" x1="572.499" y1="194.562" x2="476.513" y2="292.927" gradientUnits="userSpaceOnUse"><stop stop-opacity="0"/><stop offset="1" stop-opacity=".15"/></linearGradient><filter id="filter0_f_80_3141" x="172.647" y="-414.398" width="794.469" height="679.147" filterUnits="userSpaceOnUse" color-interpolation-filters="sRGB"><feFlood flood-opacity="0" result="BackgroundImageFix"/><feBlend in="SourceGraphic" in2="BackgroundImageFix" result="shape"/><feGaussianBlur stdDeviation="47" result="effect1_foregroundBlur_80_3141"/></filter><filter id="filter1_f_80_3141" x="440.192" y="-149.442" width="313.94" height="313.94" filterUnits="userSpaceOnUse" color-interpolation-filters="sRGB"><feFlood flood-opacity="0" result="BackgroundImageFix"/><feBlend in="SourceGraphic" in2="BackgroundImageFix" result="shape"/><feGaussianBlur stdDeviation="25" result="effect1_foregroundBlur_80_3141"/></filter><filter id="filter3_f_80_3141" x="174.709" y="150.327" width="243.162" height="148.507" filterUnits="userSpaceOnUse" color-interpolation-filters="sRGB"><feFlood flood-opacity="0" result="BackgroundImageFix"/><feBlend in="SourceGraphic" in2="BackgroundImageFix" result="shape"/><feGaussianBlur stdDeviation="16.5" result="effect1_foregroundBlur_80_3141"/></filter><filter id="filter4_f_80_3141" x="484" y="158.416" width="31" height="31" filterUnits="userSpaceOnUse" color-interpolation-filters="sRGB"><feFlood flood-opacity="0" result="BackgroundImageFix"/><feBlend in="SourceGraphic" in2="BackgroundImageFix" result="shape"/><feGaussianBlur stdDeviation="6.5" result="effect1_foregroundBlur_80_3141"/></filter><filter id="filter5_f_80_3141" x="267" y="147.416" width="31" height="31" filterUnits="userSpaceOnUse" color-interpolation-filters="sRGB"><feFlood flood-opacity="0" result="BackgroundImageFix"/><feBlend in="SourceGraphic" in2="BackgroundImageFix" result="shape"/><feGaussianBlur stdDeviation="6.5" result="effect1_foregroundBlur_80_3141"/></filter><filter id="filter6_f_80_3141" x="290" y="70.888" width="31" height="31" filterUnits="userSpaceOnUse" color-interpolation-filters="sRGB"><feFlood flood-opacity="0" result="BackgroundImageFix"/><feBlend in="SourceGraphic" in2="BackgroundImageFix" result="shape"/><feGaussianBlur stdDeviation="6.5" result="effect1_foregroundBlur_80_3141"/></filter><radialGradient id="paint3_radial_80_3141" cx="0" cy="0" r="1" gradientUnits="userSpaceOnUse" gradientTransform="rotate(153.435 195.051 93.567) scale(24.4748)"><stop stop-color="#A3A1F3"/><stop offset="1" stop-color="#34337B"/></radialGradient><radialGradient id="paint5_radial_80_3141" cx="0" cy="0" r="1" gradientUnits="userSpaceOnUse" gradientTransform="rotate(90 294 299.365) scale(240.297)"><stop offset=".807" stop-color="#2E1D5E" stop-opacity="0"/><stop offset="1" stop-color="#7458C8" stop-opacity=".21"/></radialGradient><radialGradient id="paint6_radial_80_3141" cx="0" cy="0" r="1" gradientUnits="userSpaceOnUse" gradientTransform="rotate(90 294 299.365) scale(148.565)"><stop offset=".667" stop-color="#2E1D5E" stop-opacity="0"/><stop offset=".771" stop-color="#7458C8" stop-opacity=".34"/><stop offset="1" stop-color="#C88661"/></radialGradient><radialGradient id="paint7_radial_80_3141" cx="0" cy="0" r="1" gradientUnits="userSpaceOnUse" gradientTransform="rotate(90 294 299.365) scale(106.947)"><stop offset=".719" stop-color="#2E1D5E"/><stop offset="1" stop-color="#413072"/></radialGradient><radialGradient id="paint8_radial_80_3141" cx="0" cy="0" r="1" gradientUnits="userSpaceOnUse" gradientTransform="rotate(90 294.5 299.865) scale(106.947)"><stop offset=".088" stop-color="#111D5C"/><stop offset="1" stop-color="#5F4E82"/></radialGradient><clipPath id="clip0_80_3141"><path fill="#fff" d="M0 0h604v256H0z"/></clipPath></defs></svg>